<?xml version="1.0" encoding="UTF-8"?>
<svg id="Layer_1" xmlns="http://www.w3.org/2000/svg" version="1.1" viewBox="0 0 180 180">
  <!-- Generator: Adobe Illustrator 30.5.1, SVG Export Plug-In . SVG Version: 2.1.4 Build 3)  -->
  <defs>
    <style>
      .st0 {
        fill: #fff;
      }

      .st1 {
        fill: #fb923c;
      }
    </style>
  </defs>
  <rect class="st1" width="180" height="180" rx="16" ry="16"/>
  <g>
    <path class="st0" d="M83.5,50.2c.2,0,.3,0,.4,0,.1,0,.4-.2.5-.2.2-.1.2-.3.4-.4.1,0,.3,0,.4-.1.1-.1.1-.3.3-.4h0c0-.3.9-.5,1.1-.8,0,0,0-.2,0-.3,0-.1.2-.2.3-.3.2-.2.3-.5.4-.7,0-.2.3-.6,0-.4-.1,0-.2.3-.3.4-.2.1-.2,0-.4,0-.3,0-.2.3-.3.5-.2.4-.2-.1-.4-.3-.4-.4-.2.5-.4.6-.2.1-.2-.2-.3-.3,0-.1,0-.2-.3-.3-.1.2,0,.4,0,.5-.2.2-.3-.1-.4-.2-.2,0-.4,0-.4.2,0,.2.2.4.3.6-.2,0-.3,0-.3.2-.1-.1,0-.3-.2-.4-.2.1-.2.3-.2.5,0,.2,0,.3-.1.5,0,0,.1,0,.2,0-.3.2-.7.2-.6.7,0,.3.2.2.4,0Z"/>
    <path class="st0" d="M88.4,47.2c.7-.4,1.2-.9,1.4-1.7,0-.3.2-.6.4-1h0c.4-.3.8-.7.8-1.2,0-.1,0-.6,0-.6-.2-.2-.7.6-.8.8,0-.3.4-.8.5-1,0-.2.1-.3.2-.5,0-.3-.1-.5-.1-.8,0-.2,0-.3-.2-.4-.1,0-.3,0-.5,0-.6,0-.6.4-.8.8,0,.2-.3.3-.3.5,0,.3.4.3.4.5-.2,0-.5.1-.7,0,0,.2,0,.5,0,.7.1.2.4.2.6.4-.2,0-.4-.2-.6,0-.2,0-.2.3-.1.5,0,.2.3.3.4.5.1.3-.1.3-.3.3-.2,0-.3.2-.5.3-.2.1-.4.2-.5.3-.5.4.3.5.4.7-.2,0-.4,0-.3.3,0,.2.2.2.4.3-.2,0-.5,0-.7.1-.2.1-.3.5-.3.7-.1.3-.6,1.3.2,1h0c.1-.2.3-.3.3-.5,0-.2,0-.3,0-.4s.3-.2.4-.3c.1-.1.1-.2.3-.3Z"/>
    <path class="st0" d="M153.9,23.8c-.2-.3-.5-.5-.7-.9-.1-.3,0-.8-.3-1h-.2c-.3,0-.7,0-.8,0-.1-.6-.8-.3-1.2-.1.2.4,1,1.4,0,1.4,0-.6.3-1.8-.7-1.6,0,0,0-.2,0-.3-1,0,.1,1.3-.3,1.8-.8.9-.5-.9-.5-1.2,0-.6-.7-1-1.2-.4-.4.4-.3,1.5-.7,2-.3-.7.7-1.3.4-2-.5.3-.8-.4-.4-.7,0-.1-.1,0-.2,0h0c-.4-.5-1.6-.4-2.3-.5-.2,0-.4,0-.5,0-.2,0-.2-.3-.3-.3-.4-.1-.7-.1-1.1.1,0-.1.2-.4.4-.5-.2,0-.3-.2-.5-.2.3-.5,1.7,0,2.2,0,.8,0,1.7.1,2.5,0,.6,0,.9-.2,1.3-.6.2-.1.4-.3.5-.5.1-.2,0-.5.2-.6.2-.3.6-.8.9-1,.5-.4,1-.2,1.4-.8.3-.6.1-.7-.2-1.2-.3-.4-.7-1-1.2-.4,0-.5-.8-.4-.9-1-.4,0-.8,0-1.1,0-.4.2-.7,1-1.2.6.2-.1,1.1-.7,1.1-1,0-.7-.9-.3-1.2-.6.1,0,.2-.3.3-.3-.9-.9-.9.7-1.5.9-.2-.6.2-1.3-.6-1.1,0,0-.2.3-.2.3,0,0-.3,0-.3,0-.3.2-.5.5-.8.6,0-.2,0-.4.2-.6-.1,0-.2,0-.3,0,.1-.1.2-.4.3-.6-.1-.1-.2,0-.3,0h0c-.3,0-.5-.3-.6-.6-.2,0-.5,0-.7,0h-.3c-.8-.3-.7.6-.8,1-.2.8-.9,1,0,1.5-.8,0-.4.7-.4,1.3,0,.4,0,.4.1.7.2.3.5.2.4.7-.2,0-.2,0-.4,0-.3.4-.4.9-.5,1.3-.1-.5,0-1.1.1-1.6-.7.2-.5.7-.8,1.2,0-.2,0-.5,0-.8-.4,0-.5.6-1,.6,0-.8,0-.9.6-1.5.3-.3.9-.9.7-1.5-.6-1.3-1.9,2.2-2.4,1,.6-.3,1.5-.9,1.4-1.6-.5,0-.8,0-1.3.2,0-.2-.2-.3-.2-.5.3-.3.6,0,.8-.4.3.4.8.2,1.1,0-.1,0-.3-.3-.4-.4.2,0,.4,0,.7,0,0-.3,0-.3.2-.5,0,0-.2,0-.3,0,.2-.2.7-1,.5-1.3-.4-.6-.8.1-1,0-.7-.2-.1-.4-.2-.8-.1-.4-.4-.4-.6,0-.2-.4-.4-.3-.5,0,0,0-.1-.1-.1-.2-.1.2-.3.5-.4.7,0,0,0-.2,0-.3,0,0-.3.2-.4.3-.1,0-.1-.2-.1-.3h0c.1-.4,0-.6-.4-.6,0,.3-.3.6-.2.9,0,.4.5.5.3,1-.4-.6-.7-.5-1.4-.5.2.3.4.5.7.7-.2,0-.5,0-.8,0,0,.6.3,1.6.9.7.7.1.5.5,1,.8-.3.1-.6,0-.9,0,0,.3,0,.7.1,1-1,0-.6,1.4-.2,1.8-1.4,0,0,1.3-.3,1.7-.2.3-.8-.1-1.1,0-.3.2,0,1-.7.7.2.4,0,.9-.5,1,0-.3.1-.8.2-1.1,0,0,0-.5,0-.5,0,0,0-.5,0-.6,0-1.2-.3-1.4-1.4-.9-.4-.7,1.4-1.2,1.3-2.1,0-.3-.2-.4-.3-.6,0-.2.2-.7.1-.9-.3-.7-.6-.4-.9.2-.5.8-1.3,1.9-1.4,2.8,0,.5.1,1,0,1.5-.2.6-.8.7-.9,1.3h0c-.1.6-.8,1.6-.7,2.1,0,.4.3.3.4.7,0,.4-.2.8-.3,1.1-.9-.2-.2,1.5-.9,1.8-.1-.4-.1-1,0-1.4-.2.6-.7.8-.3,1.5-.7.4-.5-1-.4-1.3,0-.3,0-.5.2-.8.2-.3.7-.5.6-.9,0-.3-.5,0-.6-.5,0-.4.5-.3.6-.6.1-.4-.3-1.2-.4-1.7h0c0-1.1,1.2-2.3,1.6-3.2.1-.3.8-1.2.2-1.5-.5-.2-1.1.9-1.4,1.1-.4-.4.3-.6.2-1,0-.2-.7-.4-.9-.4,0,0,.6,2.4,0,2.1-.3-.1,0-.9-.4-1.2-.6-.5-.5.1-.9.4-.6-.3,0-.8-.1-1.3-.2.2-.3.8-.6.6-.4-.2,0-.9-.6-.7,0,0-.1-.2-.2-.2,0,.6-.3.9-.2,1.4,0,0,.2.4.2.5,0,.2,0,.5,0,.7-.4-.3-.9-1-1.3-.4-.2.4,0,1.1.3,1.2.4.2.8-.1,1.2.1.4.2.8.9.8,1.4-.7.4-1-1-1.7-.7-.4.1-.3,1.3-.5,1.8.4.2.8.5.8,1.1-.4,0-.6-.5-1-.5-.5,0-.6.3-.9.6h0c-.3.7-1.2,1.2-1.1,1.9,0,.5.7.2,0,.6-.3.2-.8,0-.9.5.3,0,.6,0,.9,0-.2.3-.6,0-.9.5.1,0,.3.2.5.2-.5.4-.1.6,0,.9-.1,0-.5.1-.6.2-.3.5,0,.1.2.4.4.5.4.4,1,.4.3.7-.3.6-.8.5,0,.5-.4,1-1,.8.4-.6,0-.9-.1-1.5,0-.3.1-.7-.1-.8-.3-.1-.5.3-.8.2.2-.8.8-.9-.3-.9-.4,0-1.4-.3-1.6-.1-.6.6.5.8.6,1.1.2.5-.8.1-1.1.2-.1-.5.2-1.4,0-1.9-.3.1-.3.5-.6.6,0-.2,0-.5,0-.7-.1,0-.4.1-.5.3,0-.1,0-.3,0-.4-.2.3-.6.5-.6.8.4.2.3.8.3,1.2-.5-.6-1.1-1-1.6-1.7-.1.3,0,.7,0,1,0-.7-.8-.4-1,.1-.2.6.3,1.2.8.8,0,.4.2.5.5.7,0,0,.8.4.8.4.4,0,1-.7,1.3-.9.7.5-.5.8-.7,1.2.4.2,1.1-.1.7.5-.1.2-.4,0-.6.2-.2.2,0,.6-.2.8,0,0-.1-.1-.2-.2-.9.8-1-1.8-2.1-1-.4.3.4,2.6-.7,2,0,.4-.4,1-.5.3,0-.5.7-.7.4-1.3-.1,0-.1.2-.2.3h-.3c-.6.2-.3,1-.5,1.4-.2.3-.6.3-.7.5-.2.3,0,.6,0,.9,0,.3-.2.5-.1.8,0,.3.5.7.7.8.4.3,1.3.6,1.2,1.1-.4-.4-.9-.5-1.3-.9-.7-.7-.7-.4-.8.4,0,.3-.2.4-.2.7,0,.2,0,.5,0,.7-.1.2-.4.3-.6.5-.2.2-.4.5-.6.6-.1-.5.9-1.4,1.1-1.9.2-.5,0-1.1,0-1.6,0-.9.2-1.9.1-2.8,0-.4-.3-1.5-.8-1.5-.1.4,0,.9,0,1.3,0-.3,0-.6-.2-.8-.5.5-.3,1.4-.7,1.9,0-.2,0-.4,0-.6-.2.5-.9,1.4-.7,1.9.3.7,1.2.2,1.5.8-.6.2-1.3-.4-1.6.3-.2.5,0,1.3-.3,1.7-.5-.4-.2-1.5,0-2,.2-.6,0-1.4-.1-2.1-.2-1-1,0-1.5.3-.3.1-.5.1-.7.3-.2.2-.2.5-.3.7h0c-.1.4-.6.7-.5,1.1,0,.4.7.5.7.9,0,.2-.2.3-.2.6,0,0,.4.4.5.5.2.2,0,.2.3.3.2,0,.4,0,.6,0,.3.2.4.6.5.9.3.5.7.6,0,.8-1.7.5.1-1-.7-1.4-.6-.3-.9.3-1.3-.4,0,0,0-.2,0-.3,0,0-.2-.1-.3-.2,0-.2,0-.5,0-.7-.4-.1,0-.5-.3-.6-.2,0-.6.3-.7.4-.3.2-1.5.4-.7.9,0,0-.2.2-.2.2.1.2.5.3.7.4.2.2.3.5.6.6.6.2.9-.1,1.4.4-.3.3-.6,0-.9-.1,0,0-.4,0-.5,0-.2.2,0,.2,0,.3,0,.1.3.2.3.4-.1.3-.3,0-.4-.1-.4-.3-.1-.7-.3-1.1-.7.2,0,1.2-.3,1.6-.3-.3-.2-.8-.2-1.1,0-.5,0-.5-.2-.8-.1-.1-.2-.2-.4-.3-.1-.1,0-.3-.2-.4-.4-.2-.6.1-.7.4-.1.3,0,.7-.2,1.1-.2.3-.5.5-.5.9,0,.3.3.4.4.7,0,0,0,.3,0,.5,0,.2.3.3.3.5-.1,0-.3-.2-.5-.2-.2,0-.5.3-.7.4-.3.2-.9.2-1,.6,0,0,.1,0,.2,0-.2.4-.5.7-.7,1.1h0c.5.3-.4.5,0,.9.2.2.7-.3.9-.4,0,.5.7.3.6.8,0,.4-.7.3-.5-.1-.3-.2-1.1,0-.9.6.1.4.9.3,1.1.5.1,0,.4.2.4.4,0,.5-.2.1-.4,0-.5-.1-.8-.3-1.3-.6-.2.3-.5.5-.8.8.1,0,.3,0,.4.1.2,0,.3.1.4.2.2.1.9.4.6.6-.4.3-.6-.4-.7-.5-.2-.1-.8-.2-1,0-.6.4.1.5,0,.9,0,.4-.7-.1-.8-.3-.1-.1.1-.3-.2-.4-.2,0-.3.2-.5.2-.2,0-.4,0-.6,0-.2,0-.2.3-.4.4-.7.2-.2-.4-.1-.7,0-.3-.2-.2-.2-.6,0-.2.2-.6.2-.8-.2,0-.3-.2-.3-.4-.4.2-.3-.2-.6-.3h0c-.6,0-.3-.5-.7-.6-.2.4.4.7.4,1-.5.1-.7-.6-.9.1-.1.5.2.6.3.9-.8.3-.3.5-.3,1.2v.2c-.5,0-.4-.6-.9-.2-.3.3-.4.6-.4,1,0,.3-.2.6-.4.9-.2.4-.7.5-.9.9-.2.4-.5.6-.8.9.3.3.6,0,.9.1.1,0,.1.3.3.4.2,0,.2,0,.3-.2,0-.2.2-.2.3-.4.1-.2,0-.3,0-.5,0,0,.1-.1.1-.2,0,0,0-.2,0-.2,0,0,.1,0,.2-.2,0-.2,0-.4,0-.5.1.2,0,.6,0,.9,0,.2,0,.4,0,.5.1,0,.1-.1.2-.2,0,0,.2,0,.2-.1.2-.1.2-.3.2-.5,0-.2.3-1,.5-1h0c0-.4.5-.5.8-.4.1,0,.3.1.5,0,.1,0,.1-.3.2-.4.2-.4.5,0,.6.3,0,.5-.5.1-.5.5,0,.2.3.3.3.5,0,.2,0,.4,0,.5.2,0,.2-.6.5-.4.2,0,0,.2.3.1,0,0,.3,0,.4,0,.3,0,.2-.2.5-.5.3-.3.4,0,.6,0,0,0-.3.1-.3.2,0,.1.1.3.2.2.1,0,.1-.2.3-.2.1,0,.2,0,.4,0,.2,0,.5-.3.7-.5.2-.2.5-.4.8-.5h0c0,.3-.2.5-.2.7,0,.3.2.2.4.2.2,0,.4.2.6.3.2,0,.4,0,.6.2-.4,0-.7,0-1.1-.1-.2,0-.6-.2-.9,0,0,.1.2.3.2.4-.3,0-.6,0-.8.2-.1.2,0,.7,0,1,.2.3.5.4.5.8,0,.2,0,.6,0,.8-.2-.1,0-.7-.1-1,0-.2-.3-.3-.4-.5-.1-.2-.1-.4-.1-.6-.1-.6-.5-.4-.8,0-.3.3-.5.4-.9.3h0c0-.3,0-.4-.2-.5-.1,0-.2,0-.3-.1-.1,0-.1-.1-.3-.2-.2,0-.5,0-.7,0-.2,0-.3.3-.5.2,0,.2-.3.2-.4.3-.2.2,0,.2,0,.3.1.2.2.3.5.4.2,0,.3,0,.5.1.4.3.3.6.5,1,.2.3.7.4.7.8-.2,0-.4,0-.6-.2,0-.1,0-.2-.2-.2-.1,0-.2,0-.3-.2,0-.2,0-.5-.1-.7-.1-.2-.4-.2-.6-.3,0,0,0,0-.1-.1,0,0-.1,0-.2,0-.2,0-.1-.1-.3-.2-.1,0-.2,0-.3,0-.1,0,0-.2-.2-.2-.3,0-.2.5-.1.7.1.2.1,0,.2.1,0,0,.1,0,.2,0,0,0,0,.1.1.1.1,0,.1-.2.3,0,0,0,.2.2.2.2.1,0,.2.2.3.3,0,0,.3.2.3.3,0,0-.2,0-.3,0-.1,0,0,.2-.1.3-.1.1-.5,0-.6.2-.2.1,0,.5.2.5.3,0,.2-.4.6-.3.1,0,.2.2.3.2,0,0,.2,0,.3,0,.2,0,.6.3.3.4-.1,0-.5,0-.6-.1-.1,0-.1-.2-.3-.2-.1,0-.3.2-.3.3,0,.1,0,.3,0,.4,0,.1.2,0,.3.2.2.1,0,.3,0,.4,0,.1.2,0,.3.2,0,0,0,0,0,0h0c0,0-.1.2-.2.2,0,.1,0,.5,0,.5-.2.2-.2-.2-.3-.3,0-.2-.2-.3-.3-.5,0-.2-.2-.4-.3,0,0,.2,0,.4,0,.6,0,.2,0,.3.2.5.3.2.7.4.8.8-.1,0-.4-.2-.5-.3-.2-.2-.3-.2-.5-.3-.4-.3,0-.8-.3-1.2,0-.2-.3-.4-.3-.6,0-.2,0-.4,0-.6,0-.3,0-.8-.2-1.1-.2-.3-.3-.2,0-.6.2-.3.1-.4-.1-.6h0c-.2,0-.4,0-.5.1-.1.2.1.3,0,.5-.2.1-.3,0-.2.3,0,.2.2.3.2.5,0,.3-.1.2-.3.3-.1,0-.2.1-.4.2-.1,0-.3.4-.4.4-.2,0-.2-.2-.2-.4.2,0,.3,0,.4-.3,0,0,0-.2,0-.3,0,0,.1-.2.1-.2,0-.3-.3-.4-.4-.1,0,.2,0,.4-.1.5,0,0-.4.4-.5.3-.1-.1.2-.4,0-.5-.2-.3-.5.7-.6.8,0,0,0,0,0,0-.1,0-.4.5-.3.7,0,.3.4.2.6,0,0,0,.2-.3.3-.3.2-.1.2,0,.4.1s.2,0,.3,0c.2,0,0,.2.3.2.4,0,.4-.3.7,0,0,0,.2.2.2.4,0,.2,0,.1-.1.3,0,0,0,0-.1,0,0,0,0,.1,0,.2,0,0-.1.2-.3.2-.2,0-.1-.5-.5-.5-.1,0-.3.1-.4.2-.2.1-.1.1-.4.2-.2,0-.6.3-.8.3h0c-.2,0-.2.1-.3.2-.2.2-.3.1-.5,0-.2,0-.2,0-.4,0-.1,0-.2-.1-.3-.1-.1,0-.8.2-.8.3,0,.4.6,0,.8,0,.1,0,.3,0,.4.1.1.2-.1.1-.2.1-.3,0-.4.2-.7.3-.1,0-.3,0-.3,0-.2.2,0,.2.1.3,0,0,0,.2.1.3,0,0,.3,0,.4,0,.2,0,.3,0,.4.2,0,.2,0,.2-.2.2-.3,0-.7,0-1,.2,0,.2.4.2.5.2-.2,0-.5.1-.5.3,0,.2.3.3.5.4.3,0,.3,0,.5-.1.2-.2.3-.3.6-.4.4-.2.6-.5.9-.8.1-.1.3-.3.4-.5,0-.2,0-.4.1-.6.1-.2.2-.2.2,0,0,0-.1,0-.1.2,0,0,0,.2.1.3.1.1.3.3.5.4.2,0,.3.1.5.3.2.2.3.3.6.4.1,0,.4,0,.4.2,0,.2-.5.2-.6.1-.2,0-.3-.3-.4-.4-.2-.1-.3-.3-.6-.3-.2,0-.5,0-.5.2,0,.5.8.2,1,.7-.2,0-.2-.1-.3-.1-.1,0-.1,0-.2,0-.2,0-.4,0-.6-.3-.1-.1-.4-.5-.5,0,0,.2.1.3.3.3,0,.2-.9.3-.6.7.1.2.4,0,.6.1,0,0,.3.4.3.6-.2-.1-.3-.4-.5-.4-.2,0-.2.2-.2.4h0c.2.5.5.5.8.5.2,0,.4.2.5.1.1,0,.3-.3.4-.4.2-.1.8-.5,1-.5.2,0,.2.2,0,.3-.1.1-.3.1-.4.2-.2.1-.3.3-.5.5-.2.1-.5.2-.5.4,0,0,.2,0,.3,0,0,0-.2.2-.2.3,0,.2,0,0,.2.2.1.1.2.3.2.5,0,.1,0,.4-.1.5-.2,0-.1,0-.2-.2,0-.2,0-.2-.1-.3-.2-.2-.2-.3-.3-.6,0-.2-.1-.4-.4-.5-.1,0-.5,0-.6,0-.3.1-.2.6-.5.8-.4-.3.3-.9.3-1.3-.2,0-.5.2-.7.3-.2,0-.4.2-.6.3-.2-.2.4-.3.5-.5,0-.2-.2-.5-.3-.5-.3-.1-.4.2-.6.4-.2.2-.4.2-.6.4s-.4.4-.3.5c0,.3.5,0,.7,0,.2,0,.4,0,.6,0,.1,0,.2,0,.2,0,0,.2-.1.2-.2.2-.1.1-.3.5-.5.6-.3.1,0-.5,0-.7-.1,0-.2,0-.3.1-.1,0-.2,0-.3,0-.4,0-.3.2-.4.5h0c0,.1,0,.3-.1.3-.1.2-.1.1-.3.2-.2,0-.1,0-.3.2,0,.1-.1.2-.3.3-.1,0-.7.3-.6.5,0,.2.5,0,.7,0,.2,0,.4,0,.6,0,0,0,.2,0,.3,0,.1,0,.2-.2.4-.2.1,0,.3,0,.4,0,.1,0,.3,0,.4,0,.2,0,.5,0,.7,0,.2,0,.3-.2.5-.2.2,0,.4,0,.5.2.2.2.2.2.3.4,0,.1,0,.5.3.2.1.2.6.3.7,0h0c.2,0,.3,0,.5.1,0,0-.3,0-.3.2,0,.1,0,.3,0,.4,0,.2,0,.5-.2.7-.2.4-.2.2-.2-.1,0-.3,0-.5-.3-.7-.1,0-.2,0-.4-.1-.2-.1,0-.2-.3-.1-.1,0-.1.2-.3.1-.2,0-.1-.3-.4-.2-.3,0-.4.4-.4.6,0,.2.1.6-.1.6-.3,0-.1-.7-.1-.9,0,0,0-.4,0-.4-.1-.1-.3,0-.5-.1h0c-.2,0-.6,0-.7,0,0,0,0,.3-.2.3-.1,0-.3,0-.4,0,0,.4-.6.3-.7.4-.2.2-.4.6-.5.8.1,0,.2,0,.4,0,.1,0,.2.2.3.2.2,0,.4.1.6.1.2,0,.4,0,.4.3,0,.5-.2.1-.3,0s-1.2-.4-1.3-.3c0,0,0,.5,0,.6,0,.2-.3.5-.5.4-.1,0-.1-.4-.2-.5,0,0,0,0,0,0h.1v-.3s0,0,0,0c0,0,0,0,0-.1,0,0,0-.1,0-.2,0,0,0,0,0,0,0,0,0,0,0-.1,0,0,0,0,0-.1,0,0,0,0,.1-.1,0,0,0-.1,0-.2s0,0,0-.1c0,0,0,0,0,0,0,0,0,0,0,0,0,0,0,0,0-.2,0-.1,0-.2,0-.3,0,0-.2-.1-.2,0,0,0,0,.2-.1.2,0,0,0,.2,0,.2,0,0,0,0,0,.1,0,0,0,0,0,0,0,0,0-.1,0-.2,0,0,0-.1,0-.1,0,0-.2,0-.2,0-.1,0-.1.2-.1.3,0,0,0,.1,0,.2,0,0,0,0,0,0,0,0,0,0,0,.1,0,0,0,.1,0,.1,0,0,.1,0,.2,0,0,0,0,0,0,0,0,0,0,0,0,0,0,0,0,0,.1.1,0,.1.1.2.1.3,0,0,0,.1,0,.2,0,0,0,0-.1,0,0,0-.1.3-.2.4-.1.1-.3.2-.3.4h0c0,.2-.4.6-.5.3,0-.2.7-.4.3-.7-.2-.2-.4.2-.6.2,0,0-.4,0-.4,0-.1.1.1.2.1.3-.1,0-1.4.3-.9.6.1,0,.2,0,.4,0,0,0,0,.3.1.3.1.2.3.4.6.6.3.3.4.2.8.2.5,0,0,.3-.3.2-.5,0-.9-.4-1.4-.3-.3,0-.6.3,0,.4.2,0,.7-.1.8.2-.1,0-1.3.1-.8.5.2.1.4-.1.6-.2.2,0,.4,0,.6,0,.2,0,.5,0,.3.2-.2.1-.4,0-.6,0-.3,0-.8.5-1.1.2,0,0,0-.2-.1-.3,0,0-.2,0-.3,0,0,0,0-.1-.1-.1,0,0-.1,0-.2,0-.1,0-.2-.1-.3-.1h0c-.2,0-.4,0-.5.1,0,.1.3,0,.4.1,0,0,0,.2.1.2,0,0,.2,0,.2,0,.3.1.9,0,.9.5-.3.1-.3,0-.6-.1-.1,0-.1,0-.3,0,0,0,0,0-.1,0,0,0-.2,0-.2,0,0,0-.2,0-.2,0-.1,0-.3,0-.4,0-.2.2.3.2.4.2,0,0,.3,0,.3,0,.1.2-.1.1-.2.2-.2.1-.4.2-.4.5,0,.2,0,.1,0,.3.1.2.1.2.3.1.1,0,.1-.2.3-.2.1,0,.2,0,.4,0,.4,0,.4-.5.7-.6.2,0,.6,0,.7.2-.1.2-.8.1-.8.5,0,.3.7.4.6.8-.2,0-.3-.3-.4-.4-.1,0-.3,0-.5-.1-.3,0-.8,0-1,.3.1.2,0,.3,0,.3,0,.1.3.1.4.2,0,.1-.4.3-.6.3-.3,0-.1-.4-.2-.6,0-.5-.8-.8-1.1-.2.2.2.5.3.7.6-.3.3.1.5,0,.9-.1.4-.7.3-.7.6v.2c.1.2.3,0,.5.1,0,0,.2.1.3.2,0,0,.2,0,.3,0,.1,0,.2,0,.3,0,.1,0,.2-.2.4-.2.1,0,.5-.1.6,0,.2,0,0,.2.2.3,0,.1.2.2.2.2,0,.1,0,0,0,.2,0,.1-.2.3,0,.3,0,0,.5-.2.6-.2.2,0,.5,0,.7,0,0,0,.2.1.3,0,.1,0,0-.3.2-.4,0,0,.3,0,.4-.1.1,0,.2-.1.4-.1,0,.2-.2.3-.3.4-.1.1-.2.3-.4.3-.1,0-.3,0-.4.2-.2.1-.3.4-.6.4,0-.2,0-.3-.2-.3,0,0-.4,0-.5.1,0,.1,0,.4,0,.5.1,0,.4,0,.5,0,.3.3-.5.2-.6.3-.1.1-.1.4-.3.5-.2.2-.3.1-.3-.1,0-.2.6-.7.2-.8-.2,0-.4.2-.4,0,0-.2.4-.2.3-.4,0-.2-.9,0-1,0-.4.1-.5.5-.9.7-.4.2-.8.2-1.2.3-.2,0-.4,0-.6.1-.2.1-.3.4-.4.5h0c0,0-.1,0,0,.2,0,.1.1,0,.2,0,.2,0,.3.2.5.2.4,0,.6-.3,1-.2,0,0,0,0,0,0-.4,0-.3.3-.4.6-.1.3-.3.4,0,.7.2.1.5,0,.6.3,0,0,0,.2,0,.2,0,0,0,.1,0,.2,0,.1,0,.3,0,.4,0,0-.4-.4-.4-.4-.1-.2,0-.4-.2-.4,0,0-.2,0-.3,0-.2,0-.2-.1-.3-.3-.2-.2-.2-.4-.5-.2-.2.1-.4.4-.6.6-.2.2-.2.3-.2.6,0,.1-.1.2,0,.3,0,.1.2,0,.3.1.1.1.1.5,0,.6-.1-.4-.3,0-.4.1-.2.3-.2.3,0,.6s.1.3.2.6c0,.3.5.3.5.5-.3.1-.4-.1-.5-.3,0,0-.1-.3-.2-.4,0-.1-.2-.1-.3-.3,0-.1,0-.2-.1-.4-.2-.1-.2,0-.3,0-.2.1-.5.4-.5.7h0c0,.4,0,.4,0,.7.1.2,0,.4.1.6.4,0,.4-.7.7-.6.4.2-.3.7-.3.8.1,0,.7-.2.7,0,0,.1-.8.4-.3.6.1,0,.2,0,.3,0,0,0,0,.1,0,.2,0,0,.1,0,.2,0,.7.2-.2.2-.3.3,0,.1.2.3,0,.4,0,0-.4-.1-.4-.2,0-.1.1-.3,0-.4-.2-.2-.3.1-.3.3,0,.2,0,.3,0,.5,0,.2-.2.2-.2.3,0,0-.1,0-.1.1,0,0,.1.1.1.2,0,.1-.4.3-.5.3-.1,0-.3.3-.2.4,0,0,.2,0,.3,0,0,0,0,0,.2.2,0,0,0,.2.1.2.1,0,.1-.1.2-.2.2,0,.4,0,.6,0h0c.1,0,.2,0,.2.1-.2,0-1,0-.9.2,0,0,.2,0,.2.2-.2,0-.5-.2-.6.1-.1.3.2.5.4.5.4,0,1.1-.7,1.4-1,.2-.2.4-.5.6-.7.1-.1.6-.5.4,0,0,.2-.5.5-.6.7-.1.1-.2.3-.3.4-.1.1-.2.1-.3.2-.3.2-.4.4-.7.6-.4.2-.5.3-.5.7-.2,0-.2-.3-.4-.3-.1,0-.3.2-.4.3h0c-.2,0-.3,0-.5.2-.1.2,0,.4-.2.6-.1.2-.3.2-.3,0,0-.2,0-.3-.2-.4-.3-.2-.3,0-.3-.4,0-.1-.2-.5-.4-.3-.1.1,0,.4-.1.6,0,0-.2,0-.3,0-.1,0-.2,0-.3.2-.2.3-.2.2-.5.2-.1,0-.5,0-.5.2.1,0,.4,0,.5,0,.2.2,0,.3-.2.3,0,0-.1,0-.2,0,0,0,0,.1-.2.2-.1,0-.4-.1-.5,0-.1,0,.2.3.3.4,0,0,0,.1.1.2,0,0,.2,0,.3,0,.2,0,.3,0,.5,0,.2-.1.5,0,.6-.2.2-.1.9-.7,1.1-.4,0,.2-.2.1-.3.2,0,0-.2.2-.3.2-.2.1-.4,0-.6.2-.2.1-.4.3-.7.3-.1,0-.6,0-.6.3,0,.3.4,0,.6,0,.3,0-.2.4-.3.4,0,0-.3,0-.3.1,0,.2.2.1.2.1.2,0,.3,0,.5,0,.2,0,.3,0,0,.2,0,0-.3.1-.4.1-.2,0-.2-.1-.4,0-.1,0-.2.1-.3.1,0,0,0,.1,0,.1-.2,0-.4,0-.6,0h-.1c-.1.4-.3.3-.5.5.2.2,0,.2-.1.4,0,.2,0,.2.1.4,0,.1.1.2.2.3,0,.2.1.2.3.4.5.5,0-.4.4-.2.1,0,0,.2.1.3.1.2.1,0,.3,0,.5,0,.4.2,0,.2-.1,0-.3,0-.4.1,0,0,0,.2,0,.2,0,.1-.2.1-.3.2-.3.2-.5.3-.2.6,0,0,.2,0,.2.2,0,.2-.3,0-.4,0-.2,0-.3,0-.4.2,0,.2,0,.3-.1.5-.1.1-.3.2-.4.3-.1.1-.2.3-.3.4,0-.3.3-.6.4-.9,0-.1,0-.4,0-.5-.2-.2-.2.1-.4,0-.2,0-.1-.2-.1-.4,0-.3,0-.3-.2-.4,0,0,0-.2-.1-.2,0,0-.2,0-.2,0,0,0,.1-.5.1-.6,0,0-.2,0-.2,0,0,0,0-.2,0-.3-.1-.1-.3,0-.3.2,0,.2.1.3.2.5,0,.2,0,.3,0,.5-.3-.3-.2.1-.4.3-.1-.1-.2-.2-.3-.2-.1,0,0,.3,0,.4-.2-.3-.5-.1-.7-.3,0,.1,0,.3,0,.4.1.1.4,0,.5.1,0,.1,0,.1-.1.2,0,.1,0,.1,0,.2,0,.1.3.4,0,.3-.2,0-.1-.2-.2-.4-.1-.3-.2-.1-.4-.2-.1,0-.2-.3-.3-.3-.2,0,.1.4.1.5,0,.1.1.5,0,.6-.2.2-.3-.2-.5-.3-.2.2.1.4-.1.5-.1,0-.2,0-.3,0,0,0,0,.2-.1.3,0,0-.2.2-.2.2-.1.1-.2,0-.3,0-.2,0-.1,0-.2.2,0,.1-.2.2-.2.3.2,0,.6,0,.5.5-.1.5-.2-.1-.4-.2,0,.1-.1.2-.3.3-.2,0-.2-.1-.3,0-.2,0,0,.7-.3.5h0c0,.1-.2.2-.2.3.2,0,.4,0,.6,0,0,.2,0,.2-.2.3,0,0-.2,0-.2,0,0,0,0,.1-.2.2,0-.1-.2-.4-.4-.3-.2,0,0,.4,0,.5,0,.2,0,.3-.2.5,0,0-.4.3-.3.4,0,.4.6,0,.8,0,.3,0,.1,0,.2.3,0,.2.2.2.2.5-.7-.3-1,.5-1.5.4-.1,0-.2-.1-.3,0-.1,0,0,.2-.1.3-.1.1-.5.3-.7.3h0c-.2.1-.8.5-.6.6.2.2.7.1.9.1,0,0,0,0,0,0-.2,0-.5,0-.6,0-.1,0-.2.2-.2.2,0,0-.2,0-.2,0-.2.2,0,.3-.1.5,0,.2-.4.2-.4.5,0,0,.2,0,.3-.1.2-.1.2-.1.4-.2,0,0,.2,0,.2,0,0,0,0-.1,0-.2.1,0,.2,0,.4,0,.5,0,1-1,1.6-.8,0,0-.2.1-.3.2.1.1.3,0,.4,0-.1.2-.3.3-.5.3-.2,0-.3.2-.5.2-.1,0-.3,0-.4.1-.2.2,0,.4,0,.6,0,.1-.1.3,0,.4,0,.2.3.1.4.3,0,.1,0,.3,0,.5,0,.2.1.3.2.4h0c0,.5.5.3.7.1.3-.2.6-.3.9-.4.3-.2.6-.1.9-.3.2-.2.5-.2.7-.3h0c.3,0,.4-.3.6-.5.2-.2.4-.2.6-.3.2-.2.2-.4.5-.4.3,0,.6,0,.8,0,.2-.1.3-.4.3-.6,0-.2.2-.4.2-.6,0-.2-.2-.4-.3-.5-.3-.2-.3-.1-.5.1-.1.1-.1,0-.3.1-.1,0-.2,0-.3.1-.3.1-.5.3-.8.5-.3-.3.6-.7.8-.8h0c.2,0,.4-.3.6-.4.2,0,.4-.1.6-.2.2,0,.3-.3.5-.4.1-.1.3-.1.5-.2.1,0,.4-.3.4-.4,0-.2,0-.4,0-.5,0-.2.2-.3.4-.4,0,0,.3-.4.5-.1.1.3-.7.5-.6.8,0,.3.3.1.4.2,0,0,0,.1.2.2,0,0,.3,0,.4,0,.3.3-.8.5-.9.6-.2.2-.3.4-.6.5-.2,0-.5.2-.6.4,0,.2,0,.5,0,.6.4.2.4-.3.6-.4.1,0,.3,0,.4,0,.1,0,.1-.2.2-.4,0-.2.1-.6.4-.6.2.3,0,.3-.2.5,0,.1,0,.2,0,.3,0,.1-.1.1-.2.2,0,0-.2,0-.1.2,0,.1.2,0,.3,0,0,.1,0,.3,0,.4,0,.2.2,0,.3.2,0,0,0,.2,0,.3-.1.1-.2,0-.3,0,0,0-.2,0-.3,0,0,0-.2,0-.3,0-.4,0-.5.7-1,.7-.1,0-.2,0-.3,0-.1,0-.2.1-.4.1-.1,0-.2,0-.3,0-.1,0-.1.3-.2.4h0c-.3,0-.6.3-.8.5-.2.1-.2.2-.3.4-.1.2-.3.2-.5.4.3.4,1-.3,1.3-.4,0,0,.2-.2.3-.1.2,0,0,.1,0,.2.1.3.4.3,0,.4-.3,0-.5,0-.6.3-.1.3,0,.4.2.5,0,0,.2,0,.2.2,0,.2,0,.1-.1.2-.2.2-.3.3-.6.2-.3-.1-.5-.2-.9-.2-.2,0-.6-.4-.8-.1h0c-.3,0-.6-.2-.8-.2-.2,0-.2,0-.4,0,0,0-.1.2-.2.2,0,0-.2,0-.2,0-.3.1-.4.5-.2.8.2.3.8.3.8.5-.2,0-.6,0-.7,0-.1,0-.2-.2-.3-.3-.2,0-.3,0-.4,0-.4,0,0-.4.1-.7.1-.3.2-.6-.1-.8,0-.3-.4-.5-.5-.7-.2-.2,0-.4-.1-.7,0-.2-.2-.3-.2-.4,0-.1.1-.3,0-.4,0-.4-.4.3-.6,0-.2.2-.4.4-.4.6,0,.2.2.4,0,.6-.1-.1,0-.4-.3-.4-.1,0-.3.3-.4.3-.2,0-.4,0-.5,0-.2,0-.2.4-.5.3,0,.2.3.5.4.5.2,0,.5-.1.5,0-.3,0-.6.2-.8.2-.2,0-.6,0-.6.4.2,0,0,.2.2.3.1.1.3,0,.4,0,.2,0,.6-.3.9-.2,0,.1-.7.4-.8.5-.1,0-.3,0-.4,0s-.3.2-.4.3c0,0-.3.3-.4.3-.2,0,.1-.5.2-.5.1-.2.3-.2.3-.5,0-.2-.2-.4-.3-.5h-.1c-.1-.1-.4-.6-.5-.5-.2.1,0,.5,0,.6,0,0-.1,0-.2,0,0-.2-.1-.2-.3-.2-.2,0,0,.3-.1.3-.2.2-.3-.5-.4-.6-.1,0-.3,0-.4,0,0,0,0,0,0,.1,0,0-.1,0-.2,0-.1,0-.2,0-.2.2,0,.1.2.3.2.3.2,0,.7.1.2.3-.2,0-.5.2-.7.2-.3,0-.5,0-.6.2,0,.2.2.6.2.8.1.3.4.4.8.5.3,0,.8-.2.9,0-.3.1-.6.2-.9.2-.2,0-.9,0-.9.2.2.1.4.8,0,.6-.1,0-.2-.3-.3-.4-.1,0-.3,0-.5,0h0c-.2,0-.5-.3-.7-.3-.4,0,.1.4.1.6-.2,0-.3,0-.4-.1,0-.1,0-.4-.3-.3-.2,0,0,.7,0,.9,0,.2.1.3.1.4,0,.2,0,.3.2.4.3,0,.7,0,1,0,.1,0,.4,0,.4.2,0,.2-.5.2-.5.4.2,0,.6-.1.8,0-.2.3-1.4,0-.8.8,0,.1.6.3.5.5,0,.1-.7,0-.9-.1-.1,0-.2-.2-.4-.2-.2,0-.2,0-.3-.2,0-.1.1-.2,0-.4,0,0-.1-.1-.2-.2,0-.1,0,0,0-.2,0-.4-.1-.2-.4-.5,0-.1-.1-.3-.2-.4,0,0-.2,0-.2-.2,0-.2.2-.8-.3-.7-.3,0-.2.5-.2.7h0c0,.3.3.6.4.9.1.3.3.6.3,1,0,.2,0,.2,0,.5.1.2.2.3.4.5.3.3.6.7.9.9.2.1.3.1.4.4,0,.1.2.4,0,.5-.1-.2-.2-.4-.4-.6-.2-.1-.4-.2-.5-.3-.2-.2-.2-.4-.4-.6-.2-.2-.4-.3-.6-.6-.2-.2-.3-.4-.3-.7,0-.2,0-.5,0-.7-.1-.5-.6-.4-1-.4h0c-.2,0-.5.2-.7,0-.2-.1,0-.4-.4-.2-.4.2-.9.7-1.4.5.2-.4.2-.5-.2-.7h0c-.2-.1-.3-.3-.3-.5-.1,0-.2,0-.4,0-.1,0-.2-.2-.4-.2-.1,0-.2,0-.3.1,0,0-.2,0-.3,0-.2,0-.4.3-.6.4-.2.1-.5.3-.6.5.3,0,.4,0,.4.4,0,.3,0,.4.3.5.3,0,.4,0,.6.1.2.2.3.4,0,.3-.1,0-.2-.1-.3-.1,0,0-.3,0-.3,0-.2,0-.1,0-.2,0,0,0,0,0,0,.1,0,0-.1,0-.2.1-.1.2-.2.4,0,.6.1.1.2,0,.3,0,.1,0,.1,0,.2,0,.1,0,.2.3.4.2.2,0,0-.3.3-.2.1,0,0,.2.3.2.2,0,.2-.1.4,0h0c.2.2.3.3.6.4.2,0,.4,0,.5,0,.5,0,1,0,1.4-.2.6-.2,2-.3,2,.7-.4-.5-1.1-.7-1.7-.5-.4.1-.7.2-1,.4-.3.1-.6.1-.9.2-.3.1-.7.4-.4.8.1.1.3.4.4.4,0,0,.5,0,.4.2-.1.2-.9,0-1,0-.3-.3-.2-.7-.5-.9-.1,0-.5-.2-.6-.2-.2,0-.3.2-.6.2-.6-.1.3-.9-.5-.6h0c0,0-.3,0-.4,0-.2,0,0,.2,0,.4,0,.4-.3.6-.4.1,0-.3,0-.7-.4-.7-.3,0-.7.3-.8.6,0-.1,0-.2,0-.3,0,.1-.2.3-.3.5,0,.2,0,.3-.1.4,0-.2,0-.4,0-.7h-.2c0-.3-.2-.4-.4-.2-.1.2,0,.5-.1.7-.1-.3,0-.5-.3-.6-.2,0-.6,0-.7.2-.4.7.5.6.9.7.3,0,.5,0,.7.2,0,.1.1.3.2.4.1,0,.3,0,.4.1.5.2,1.1.4,1.4,1,.2.3,0,.5,0,.8,0,.3.4.6.7.7h0c.2,0,.3.2.5.3.2,0,.4,0,.6,0,.3.1.7.8.5,1-.3-.2-.3-.8-.8-.7-.2,0-.3.2-.5.1-.2,0-.2-.4-.5-.2-.2.1-.1.4-.2.5,0,.2-.1.3-.3.5-.1.2-.6.7-.1.8.4,0,.8,0,1,.3-.4,0-.8.1-1.2,0-.2,0-.4,0-.6-.1-.2-.1-.2-.2,0-.4.3-.4.5-.7.6-1.2,0-.2,0-.4,0-.6,0-.2-.2-.3-.3-.5,0-.3,0-.7,0-1,0-.2,0-.4-.3-.5-.2,0-.3,0-.4,0-.1,0-.2-.4-.4-.3-.2,0-.2.2-.4.3-.2.1-.3,0-.3.2,0,.2.1.3,0,.5-.2,0,0-.3-.3-.5-.1,0-.4,0-.5,0-.3.2,0,.7,0,1,0,.4.1.7.3,1,0,.1.4.3.4.4,0,.3-.1.2-.3.2,0,.3.4.6,0,.9-.4.3-.3-.3-.3-.6,0-.2,0-.3-.1-.5,0-.2,0-.4,0-.5,0,0-.1-.1-.1-.2,0-.1,0-.3,0-.4,0-.2-.2-.3-.2-.5h0c0-.3,0-.7-.4-.7-.2,0-.7.3-.8.4-.1.1-.2.3-.3.4s-.3,0-.4.2c-.2.2,0,.5,0,.8,0-.1-.1-.4-.3-.3-.2,0,0,.2,0,.3,0,.3.2.6.4.8.2.2.3.6.6.7.1,0,.3,0,.4,0,.1,0,.2.4.2.5-.1,0-.2-.2-.3-.3-.1,0-.3,0-.4,0-.1,0-.1-.3-.3-.3-.2,0-.3.2-.4.3,0-.2.2-1-.4-1,0,.3,0,.3-.2.5-.1.2-.4.5-.6.6-.4.2-.1-.3,0-.5.2-.3.4-.4.5-.7.1-.3.2-.6-.1-.8-.3-.2-.3,0-.6.1-.2,0-.4,0-.5,0-.1.2,0,.4,0,.6,0,.4-.2.4-.3,0,0-.3,0-.5-.2-.8h-.1c-.3,0-.5-.6-.8-.4-.1,0,0,.3-.2.4-.1.2-.2.1-.1.4,0,0,.2.4.2.4,0,0,.3,0,.4,0,.3,0,.6.4.3.7-.2-.1-.2-.4-.5-.4-.1.2-.1.9-.5.8,0-.3.2-.5.1-.8-.1-.3-.5-.4-.6-.8,0-.2,0-.3,0-.5,0-.2,0-.2-.1-.3,0,0-.1,0-.2,0,0,0,0-.1,0-.2-.1-.1-.1-.2-.3-.3,0,0,0,0,0,.1-.2,0-.4-.2-.5,0,.2.2,0,.3,0,.5,0,.1.2.1.2.3,0,0-.2.2-.2.3.2,0,.3,0,.5.1,0,0,.1.1.2.2,0,0,.2,0,.3.1.1.1.1.3.2.4,0,.1.3.2.2.4-.1,0-.3-.1-.4,0,0,0,0,.2,0,.2,0,0-.2.1-.2.2,0,0-.1.2-.2.3-.2,0-.2-.1-.3-.2,0,0,0,.1-.1.2,0-.1,0-.3-.1-.4,0,0-.1.1-.2.2,0,0,0-1.1-.2-.6-.1,0-.2-.2-.3-.2-.2.2-.1,1.4.2,1.4.2,0,.2,0,.3-.1.1,0,.2,0,.4,0,.2,0,.5.2.7.2.2,0,.5,0,.7,0,.3,0,.5.2.7.3.5,0,1,.2,1.5.2h0c.2,0,.6,0,.7.3-.2,0-1,0-1.1.1.2.2.6.1.9.2.3,0,.6.1.9.2.3,0,.6.1.9.2.3,0,.5.2.8.4h0c.8,0,2.2-1,2.4.4-.2,0-.5-.4-.8-.4-.3,0-.5.2-.8.3-.4.1-1,.1-1.4,0-.2,0-.4-.3-.7-.4-.2,0-.4,0-.6,0-.3,0-.3-.2-.5.1,0,.2-.3.8-.6.7-.3,0,0-.7.1-.8,0,0,.2-.2.2-.3,0-.2-.2-.2-.3,0h0c-.3,0-.6,0-.9,0-.1,0-.4.2-.6.1-.3-.2.2-.2.3-.3.1,0,.2-.3.1-.4-.1-.2-.4,0-.6-.1-.4,0-.8-.4-1.2-.4-.4,0-.2.2-.3.4-.1.2-.5.1-.6.3-.3,0-.6.1-.9.2,0,.2.4.1.5.1.3,0,.4.2,0,.3,0,0-.3,0-.3,0,0,.1.1.1.1.3,0,.1,0,.3-.2.3-.1,0,0-.2-.2-.3,0,.1-.1.3-.3.3,0-.3,0-.4-.2-.5-.2,0-.5,0-.6.2-.1.3-.1.9.2,1,.2,0,.3,0,.5,0,.2,0,.3.2.6.3.3,0,1.2.4,1.2.7-.2,0-.6,0-.6.2-.2,0-.8,0-.9.1,0,.3.4.3.6.4.1,0,.1.2.2.3,0,0,.2,0,.3,0,.2,0,.4.3.5.3h0c.4.1.7,0,1.1-.1.2,0,.4,0,.5.1.2.4-.1.2-.3.2-.3,0-.4.2-.7.3-.2,0-.5,0-.7,0-.2,0-.3-.3-.5-.4-.2,0-.4,0-.6,0-.4,0-.8-.1-1.2-.1-.2,0-.6,0-.7.2,0,.3.2.2.4.2,0,0,.3,0,.3,0,0,0,0,.3-.1.3-.2,0-.3-.3-.4.2,0,.2,0,.5.1.6.2.1.4-.2.6-.2.3,0,.4.1.7,0,.3,0,.5-.2.9-.1.2,0,.5.1.7.2.2,0,.5.1.6.3-.3,0-.8,0-1.1-.1-.2,0-.4-.2-.6,0-.1,0-.4.2-.5.3-.4-.2-.3-.2-.6,0,0,0,0,0-.2.1,0,0-.2,0-.3,0,0,0-.2.1-.3.1,0,0-.2,0-.3,0-.3.2,0,.4.1.6,0,0,.2,0,.2-.1,0,.5.3.3.7.5.1,0,.3.2.3.4,0,.2-.1.2-.3.3,0,0,.1.2.2.2-.1,0-.3.1-.3.3.2.1.3.1.5.1.1,0,0-.1.2,0,0,0,.1.2.2.3.3.4.5.3.8,0h0c.2,0,.3-.1.4-.2.2,0,.4,0,.6,0,.2,0,.3-.2.5-.3.2,0,.3.1.5.2.1,0,.5,0,.6,0,.2,0,.4-.3.6-.4.5,0-.3.7.4.6h0c.2,0,.4,0,.6,0,0,.6.4.4.8.6.4.1.7.4,1,0,.4-.3-.1-1.8.4-2,0,.1,0,.4.2.4.1,0,.4-.4.4-.4.3-.3.4-.7.7-.9.4.5-.3,1-.6,1.4-.4.6-.3,1.1.4,1.3h0c.4,0,.5.2.8.4h0c.3-.1.6-.3.9-.4.2-.1.7-.5.5,0,0,.2-.1,0-.3.2-.2,0-.2.4-.4.4-.2,0-.7-.2-.7.2,0,.4,1.3-.2,1.6-.3.3,0,.6.2.9,0,.3-.3,0-.7,0-1,0-.2-.3-.4-.3-.6,0-.3.1-.2.2-.3.3-.4-.3-.8.5-.8.3,0,.4-.3.7-.4.3-.2.6-.3.9-.4.1.2-.1.3-.3.4-.2.1-.3.2-.4.4,0,0-.2.1-.3.2,0,0,0,.1-.1.2-.1.2-.2.3-.3.4-.3.4-.2.4-.1.9,0,.3,0,.7.3.8.2,0,.4,0,.6,0,.2,0,.5-.4.7-.3,0,.2-.5.4-.7.5-.3.1-.4.1-.6.4-.2.3-.1.5-.5.4-.2,0-.5-.2-.7-.4-.2.2-.3.3-.6.3-.2,0-.4,0-.6.1-.4.2,0,.7-.2,1.1h0c0,.3.5.4.6.8,0,.3,0,.7-.4.7,0-.2.2-.4,0-.7,0-.1,0-.2-.2-.3,0,0-.3-.2-.3-.2-.2,0,0,0-.2,0-.1,0-.2,0-.3.1-.1,0-.2,0-.3.1-.1,0-.2.2-.3.2-.2-.3.4-.6.6-.7.3-.2.4-.3.4-.7,0-.1,0-.3,0-.4-.1-.2-.3,0-.4-.1-.3-.2,0-.7-.3-.8h0c-.2,0-.4,0-.6,0-.2,0-.2-.2-.4-.3-.3-.1-.1.1-.2.3,0,.1-.3.4-.3.5-.2.2-.2,0-.5,0-.2,0-.4.1-.5.3,0,.1,0,.5-.2.6-.2.1-.2-.3-.5,0,0-.2.4-.5.3-.7,0-.3-.5,0-.6.1,0,0,.4-.9-.1-.7h0c-.5,0-.7-.3-1.2-.3-.3,0-.8-.5-1,0,0,0,.1,0,.1,0,0,.2-.2,0-.3.1,0,0-.1.2-.2.2,0-.2,0-.4,0-.5-.2-.1-.2.1-.3.2-.2,0-.2,0-.4,0-.4,0-.2.1-.3.4,0-.2-.2-.3-.4-.1h0c-.1,0-.5,0-.6,0-.2,0-.2.4-.3.5-.2-.3-.3-.2-.6-.3-.4,0-.1-.1-.3-.4-.1-.2-.5-.1-.6-.2,0,0-.1-.2-.2-.2s-.3.2-.4.3c-.1,0-.2,0-.3,0,0,0,0,.2,0,.3,0,.2,0,.4.1.5.2,0,.2,0,.3,0,.1,0,.2,0,.3,0,.2,0,.6-.1.6,0,0,.3-.6,0-.7.2-.2.1-.2.6-.4.8,0-.2,0-.8-.3-.8-.3,0-.2.7-.1.8,0,0,.1,0,.1.1,0,0,0,.2,0,.2,0,0,0,.3.1.4.2.1.1,0,.4-.1.2,0,.2.2.3.4,0,0,0-.3.2-.3.1,0,.1.2.3.1.2,0,.3-.4.6-.4,0,.1-.1.2-.2.4,0,0,0,.3-.1.3-.1.1-.2,0-.4,0,0,0-.2.3-.2.3,0,.2.3.5.4.7.1.2.3.5.3.8-.1.4-.3,0-.3-.2,0-.3-.1-.4-.4-.7-.2-.2-1.1-1.1-1.2-.4,0,.2.1.2.2.3,0,.1,0,.2.1.3,0,.1.2.2.3.3,0,.1.1.4.3.2h-.1c.2.3.4,1.1.8,1.1.1,0,.4-.3.5-.3.2-.1.3-.3.5-.5.3-.4.7-.8,1.1-1.1.3-.2.6-.6,1.1-.5,0,.3-.2.2-.4.4-.2.1-.3.3-.5.5-.1,0-.5.2-.4.4,0,.1.4,0,.5,0,.1.2-.1.4,0,.6,0,0,.4.2.5.3.2,0,.4,0,.4.2,0,.2-.3.2-.4.1-.2,0-.3-.3-.5-.3s-.3.3-.3.5c0,.2,0,.4-.1.6,0,.1,0,.2,0,.3,0,0,0,.3,0,.4,0,.2-.1,0-.2.1,0,0-.1.2-.2.3-.2.2-.4.1-.6,0-.5,0-.7-.4-1.1-.7-.1-.1-.3-.4-.5-.3,0,0,0,0,0,0,0,0,0,0,0-.1,0,0,0,0,0-.1,0,0,0,0,0-.1h0c0-.1,0-.3,0-.4,0,0,0,0,0-.1,0,0,0,0,0,0,0,0,0-.1,0-.2s0-.2,0-.3c0,0,0-.1,0-.1,0,0-.1,0-.2,0,0,0-.1,0-.1.1,0,0,0,0,0,0,0,0,0,0,0,.1,0,0,0,0,0,.1,0,0,0,0,0,0,0,0,0,0,0,0,0,0,0,0,0,.1,0,.1,0,.2,0,.3,0,0,0,.1,0,.2s0,0,0,.1c0,0,0,.1,0,.2s0,.1,0,.2c0,0,.1,0,.1-.1,0,0,0,0,0,0,0,.1,0,.3.1.5,0,.3,0,.1,0,.3,0,0-.2.1-.2.1,0,0,0,.2,0,.2-.1.1-.4,0-.5.3,0,.1,0,.2,0,.4,0,.1,0,.2,0,.4,0,.2,0,.4,0,.6,0,.3,0,.3.4.5.2.1.3.3.3.5-.6.3.2.5.5.2.4-.3.6-1,1-1.3h0c0-.4.7-1.6,1.2-1.2-.4.3-.5.3-.7.7,0,.2-.1.2-.1.5,0,.2,0,.3-.1.4,0,0,.2.1.3.2-.2.2-.4.1-.6.3-.1.1-.2.6-.3.7.3,0,.4,0,.6-.1.2-.1.4-.2.6-.3h0c-.2.3-.3.2-.3.5,0,.1,0,.3,0,.4,0,.1-.1.2-.2.3.1,0,.3.2.5.2,0,.2-.2.1-.3.2-.2,0-.2,0-.2.3,0,.1,0,.8.2.5.2.4.7-.2.8-.4.1-.2,0-.4.1-.6,0-.2.2-.3.3-.5,0-.2-.1-.3,0-.5,0,0,.3-.2.3-.3,0-.1.1-.2.2-.3.3-.5.6,0,1-.3.2-.1.4-.4.5-.5.2-.4-.1-.4-.3-.5.1-.3.4.2.5-.3,0-.3-.1-.6-.1-.9.3.1,0,.9.5.8h.1c.3,0,.7-.2,1-.4h.1c.3,0,.6-.2.8-.4.2-.1.4-.4.6-.3,0,.1-.9.7-.4.8.1,0,.4-.2.5-.3.2-.1.3-.1.5-.2.5,0,.5-.3.5-.8,0-.3,0-.2.2-.2.1,0,.4,0,.5,0-.2.2-.5.2-.4.6,0,.3.3.1.5.3.4.3-.4.1-.5.1-.2,0-.6,0-.8,0-.2,0-.6.2-.7.3-.3.2-.2.5-.4.8-.2.2-.3.4-.4.7,0,.3-.3.5-.3.8,0,.3-.1.6-.2.9,0,.3-.2.5-.3.8h0c0,0-.1.1-.2.1-.1-.2.1-.6.2-.8,0-.3.2-.6.2-.8,0-.3,0-.6,0-.8,0-.3.4-.5.5-.9,0-.3.2-.5-.2-.7-.3,0-.5.2-.8.3-.1,0-.2,0-.4,0-.3.1-.1.1-.2.3-.2.3-.6.4-.8.6,0,0-.2.2-.3.3,0,0-.1,0-.2.2,0,0,0,.2,0,.3,0,0-.2,0-.2.1-.4.4,0,.7-.2,1.1.2,0,.4,0,.6,0,.2-.1.2-.4.4-.4,0,.2,0,.1,0,.2,0,0,.1.2,0,.3,0,0-.5,0-.6.1-.2,0-.5,0-.6.2-.2.1-.3.4-.5.5h0c-.3,0-.4.2-.6.4-.2.3-.3.2-.6.3-.3,0-.4.2-.5.4-.1.2-.6.4-.7.6,0,.3.4.3.6.4.2.2.1.5.3.7.7.4.6-1,1-.9.4,0-.2.5-.2.6,0,.2,0,.7,0,.8h.1c.4-.2.7-.4,1.1-.6.3-.2.8-.4,1.2-.4,0,.2-1,.6-1.2.7-.4.2-.8.4-1.2.5-.3,0-.9-.1-1.2.2-.5.6.5.5.7.5,0,.3-.4.2-.6.3-.1,0,0,0-.2.2-.1.1-.2.3-.4.3,0-.2.4-.8-.2-.7h0c-.2-.1-.4-.3-.7-.3-.1,0-.3,0-.4,0-.1.2,0,.1,0,.3,0,.4,0,.9-.3,1.2h0c0-.2,0-.4,0-.6,0-.3,0-.3-.2-.6-.1-.2-.1-.5-.4-.5-.2,0-.4.2-.5.4-.1.2-.1.4-.3.6-.1.2-.4.4-.5.6,0,.2,0,.4,0,.6,0,.2,0,.4,0,.6,0,.2.3.5.3.7,0,.2-.1.5,0,.7.2-.3.1-.8.3-1.2.2-.3.6-.3.9-.4.3-.2.9-.8.9,0,0,.3,0,.7,0,1.1,0,.3,0,.3-.1.6,0,0-.2.4-.1.5.2.2.4-.2.6-.3.2-.1.4,0,.6,0,.4,0,.8-.2.6-.7,0-.2-.2-.4-.4-.4-.2,0-.3.2-.5.3-.5,0-.2-.2,0-.4,0-.1.1-.6.2-.6.2,0,.2.5.4.1.2-.2,0-.6.3-.7,0,.1.1.4.2.5,0,.1.4.2.5.2h0c.5,0,1.3,0,1.6-.4.2-.2.6-1.6,1-1.4,0,.5-.5.9-.6,1.3.2,0,.4,0,.6-.1.2,0,.5,0,.7,0,.3,0,.4,0,.1.2-.2.1-.4.1-.7.2-.2,0-.6.2-.7.3-.2.1-.3.4-.4.6-.2.2-.5.4-.8.5-.2,0-.5.2-.5.4,0,.3.4.5.6.5.3,0,.4-.4.7-.5,0,.2,0,.4.2.5.2.2.3.1.5.1.3,0,.7,0,1,.3-.5.1-1.1,0-1.5.2-.4.2-.9.2-1.3.5-.1,0-.5.3-.5.5,0,.2.6.3.4.5,0,0-.6,0-.7,0-.3,0-.5,0-.7.3h0c0,.2,0,.5.1.6.2.2.4.1.5.3.2.3-.3.4-.4.5,0,0,.1.5.2.6.3.2.4-.2.6-.3.2-.1.5-.2.8-.3.5-.1.9-.2,1.4-.3.3,0,1.3-.2,1.4,0-.4.1-.9,0-1.3.2-.5,0-.9.2-1.4.4-.4,0-.9.3-1,.8,0,.4.5.7.8.8-.1,0-.6.1-.8,0-.3-.1-.3-.5-.5-.7-.2-.1-.3-.1-.4-.3,0-.1,0-.3-.1-.4-.1-.2-.6-.5-.8-.4,0,.1,0,.2,0,.3-.7-.3-.3.4-.8.5-.1-.3,0-.7,0-1h0c0-.3.1-.6-.1-.8-.2-.2-.6-.2-.7,0-.1.2,0,.6,0,.8,0,.1-.1.2-.2.3,0,.1,0,.3,0,.4,0,.3-.2.7-.3.9-.2.3-.5.4-.5.8,0,.3.3.6.3.9,0,.4,0,.6.3.9.1.1.3.2.4.4,0,.2,0,.4.2.6.2.5.6.6,1,.9h0c.5,0,.7.8.9,1.2.2.5.6.5,1,.8.8.5,1.5,1.1,2.5,1.4h0c0-.1,0-.8.3-.7.1,0,0,.3,0,.4,0,.1.1.2.2.4,0,0,.2,0,.3,0,.3.4-.5.3-.4.7-.3,0-.5-.2-.7,0,0,0,0,.2,0,.2,0,0-.1,0-.1.2-.1.2-.2.2-.2.4,0,.6.9.7,1.4.5-.2-.3-.3-.7-.2-1,.3.1,0,.6.4.5.4,0,.2-.4,0-.6.2,0,.3.2.5.3.2.1.5,0,.6.2-.2.1-.9.2-.9.3-.1.5.8.1.9.1,0,.3-.6,1.3,0,.8.4-.3.8-.4,1.1-.7.2.6-.1.4-.5.5-.2,0-.8.6-.5.9.2.3.5-.4.8-.5.1,0,.4,0,.6,0,.2,0,.2.3.5.2h0c.2.1.4.1.7.2.3,0,.4.2.6.3.3.1.4,0,.6-.2,0,0,.2,0,.3-.1,0,0,.2-.3.2-.3.2-.1,0-.2.2-.2,0,0,.3.2.3.3,0,0,.2,0,.3,0,.2,0,0,.2.3.2.7,0,.6-.8.8-1.1.6-.9.6.9,1.2.6h0c.5,0,.3-1.1,1-.7,0,0,0-.1,0-.2.2-.1.3-.4.5-.5.1,0,.2,0,.3,0,0,0,.2,0,.2-.1,0,0,.3,0,.3,0,0,0,0-.2.1-.2,0,0,.2-.2.1-.2,0,0,.2-.1.2-.2.2-.2.1-.3.4-.4.2,0,.4,0,.5-.3.1-.2.1-.4.3-.6,0,0,.2,0,.2,0,0,0,0-.2.1-.3h0c.2-.3.4-.7.7-.8.3-.2.5-.3.7-.7.2-.3.3-.6.7-.7.4-.1.7,0,.9-.4-.2,0-.4,0-.5,0,0-.2.2-.3.3-.4-.2,0-.9,0-.7-.3,0-.1.8,0,1,0,.4,0,.4,0,.7-.2.3-.2.3-.6.6-.8-.2,0-.9.1-1-.1-.1-.3.7-.2.9-.3,0-.2,0-.3.3-.3.2-.3.6,0,.9,0,.1,0,0-.2.2-.3,0,0,.3,0,.5,0,0-.1,0-.2-.1-.3.4,0,.7-.2.5-.7h0c-.3-.3-.6-.5-.7-.9.5-.2.8.5,1,.7.3.2.3.2.3.6,0,.2-.1.5.1.6.2.2,1,0,1.2-.2.1-.2,0-.6.2-.7.3-.1.3.3.4.4.1-.2.4-.3.6-.5.1-.3.2-.5.3-.7.2-.3.3-.2.6-.4.4-.3,0-1.3.5-1.5.3-.1.4.3.7-.1.2-.3-.1-.5-.1-.8,0-.3.3-.4.3-.7,0-.3-.2-.4-.5-.5,0,0,0,.3-.1.3-.2,0-.1-.2-.2-.3-.1-.2-.3-.5,0-.7,0-.5.4-1,.3-1.6,0-.4-.1-.2-.3-.4-.2-.2-.3-.4-.2-.7.2.4.6.3.7.7,0,.3,0,.8,0,1.1,0,.3,0,.8.3.8.4,0,.4-.7.6-1,.3-.5.2-.4,0-.9-.2-.4-.3-.8-.3-1.2,0-.6,0-1.7.9-1.7,1,0,1.1,1.7.5,2.2-.1-.3.2-.7-.2-.9-.4-.3-.5.3-.5.6,0,.4,0,.6,0,1,0,.3,0,.6,0,.9,0,.3,0,.6.1.9.1.4.1.5,0,.9-.1.3-.3,1.9.2,1.6h0c.6,0,.4.2.3.5-.1.2-.4.7.2.5,0,.2-.1.7,0,.8.3.2.3-.3.5-.5.2.1,0,.4.1.6.1.3.3.4.3.7,0,.4,0,1.1.2,1.4.4-.4,1.7-1.8,2.3-1.1.4.4.3,1.1.3,1.6s.1,1,.1,1.4h0c.4,0,1.2,0,1.4-.3,0-.2,0-.5,0-.8,0-.3.3-.5.5-.8.3-.2.4-.2.4-.5,0-.2,0-.6,0-.8,0-.7.4-.9.6-1.5h0c0-.7-.6-1.2-.7-1.8,0-.5,0-1-.1-1.5-.1-.8,0-1,.8-1.4.6-.4.6-.6.6-1.3,0-.6-.6-.8-.1-1.3.4-.4.9-.2,1.3,0,.5-.3,1-.8,1.4-1.3.2-.3.4-.6.6-.9.2-.2.5-.4.7-.7.2-.4,0-1,0-1.4,0-.5.3-1,.6-1.4v-.2c0-.5.4-1,.4-1.4,0-.3-.4-.7-.5-1.1-.3-.9-.6-1.8-.9-2.7-.1-.5-.2-.8-.4-1.3-.3-.5-.7-.6-.3-1.1.4-.5,1.8-.3,2.5-.5,0-.3,0-.8.1-1.1s.5-.3.7-.5h0c0-.7.5-1.3.4-1.9-.1-.6-.9-1.2-1.2-1.7-.4-.7-.4-.8-1.1-1.1-.8-.3-1-.8-1.4-1.5,0-1.9,0-3.8.2-5.7,0-.8.2-1.6,0-2.4,0-.9-.7-1.7-.6-2.6h-.2c0-.5,0-.9.1-1.4.2-.5.3-.7.2-1.3,0-.4-.2-.9-.1-1.3.2-.5.8-.8.9-1.4,0-1.1-1.2-2.2-1-3.4,0-.7.7-1.1,1-1.7.3-.6,0-1.3,0-1.9,1-1.1,1.6-2.4,2.5-3.6.5-.7.8-1.3,1.5-1.7.6-.3,1.3-.6,1.9-.9h0c.6,0,1.6.6,2.1.9.8.5,1.1.6,2.1.2h0c.2-.7.6-1.4.7-2,0-.6,0-1.3-.2-1.9-.1-.8,0-1.2-.8-1.7-.6-.4-1.2-.9-1.9-1.3h0c0-.9,1.1-1.6,1.4-2.2.4-.7.7-1.3,1.1-2,.4-.6,1.1-1.4,1.4-2.1.1-.3,0-.7,0-1,.1-.5.5-.7.7-1.1h0c0-1,.2-1.9.3-2.8,0-.9,0-1.8,0-2.7.1-.9.3-1.5,0-2.4-.1-.4,0-.8,0-1.3,0-.3-.5-1-.3-1.2.2-.3,2.3-.2,2.8-.3h0c.6,0,1.2-.5,1.6-.9.6-.5.4-.7.3-1.4-.2-1.3.4-2.5,1.4-3.3h0c0-.5.4-.8.6-1.2.2-.4.2-.9.3-1.4.3-1,1.3-1.8,2.1-2.4h0c0-.6,0-1.2,0-1.8,0-.8,0-.9-.4-1.5-.5-.6-.6-.9-.4-1.6.2-.8.7-1,1.3-1.5,0-1.2.6-2.6,1-3.7.4-1.2,1.4-1.9,2.3-2.8h0c1,0,1.8,1,2.8,1h0c.3-.5.5-1,.8-1.5.4-.8.4-.7.1-1.6-.3-.9-.8-2.5-.2-3.3.7-.9,1.6-.3,2.5-.3.5,0,.9-.2,1.4-.3.5,0,.9.2,1.4.3h0c.8.3,1.5.8,2.3,1,.9.3,1.2-.3,1.5-1.1-.5-.1-1-.5-1.4-.9.1-.3.5-.4.7-.6.2-.2.4-.6.5-.9.3-.6.4-1.2.7-1.8h0c-.3-.5-.4-1-.6-1.5-.2-.4-.5-.8-.6-1.2.6-.2,1.2,0,1.8-.5.9-.7.5-.3,1,.4.5.7,1.1,0,1.3-.6.2-.6-.2-1-.6-1.6h0c.5-.3.8-.9,1.3-1.1.4-.2.7,0,1.2,0h.1c1.1.8,1.8,1.7,2.5,2.7.4.9.9,1.7,1.2,2.6.4,1.1,1.2.8,2.3,1,.5,0,.8.4,1.2.5.5.1.9-.2,1.3-.3.4-.2.9-.3,1.1-.6.4-.4.3-.8.5-1.3.4-.1.6-.3,1-.2.5,0,.6.5,1,.7.6.3,1.5.1,2.1.5.5.2,1.1,1.8,1.6,1,.1-.2,0-.6.2-.8.2-.3.3,0,.4-.4,0-.2,0-.4-.1-.5-.2-.6-.4-.7-.2-1.3.2-.5.7-.8,1-1.2h0c0-.3.1-.3.3-.5,0-.1.2-.3.3-.3.3-.3.4-.4.4-.9,0-.6-.6-1.3-.6-1.9h0c0-1.1-.3-2.1-.2-3.1,0-.3.2-.5.2-.8,0-.2-.1-.4-.1-.6,0-.3.3-.4.3-.8,0-.3-.3-.5-.2-.9,0-.4.2-.6.5-.9.3-.3.2-.4.3-.8,0-.3,0-.5.3-.8.1-.2.2-.2.3-.4,0-.2,0-.4,0-.5.2-.7,1.2-.8,1.9-.7.7.2,1-.3,1.7-.5h0c0-.3.3-.5.4-.8,0-.2.1-.4.2-.7.1-.3.2-.5.5-.5.1,0,.3.1.4,0,.1,0,.2-.2.4-.3.8-.3.6.4.9.8.3.5,1.2.8,1.7,1.1.4.3.2.4.4.7.2.3.5.3.8.3h0c.4,0,.8.3,1.2.4.3,0,.8,0,1.1.2.3.2.6.9.8,1.2.3.4.5.8.8,1.3h0c0,.8-.6,1.4-.9,2-.3.6-.4,1.3-.3,2,0,.6.5,1.6,1.2,1.4.6-.2.4-1.4.4-1.9,0-.5-.7-2.2.3-1.8,0-.4.4,0,.5-.3.2-.2,0-.6.2-.8.3-.5,1-.5,1.3-1.1,0-.4,0-.8,0-1.2,0-.3-.3-1,0-1.2.4-.3.9.4,1.2.6.5.3.8,0,1.3.1h0c.6,0,1.4-.5,1-1.2Z"/>
    <path class="st0" d="M69.5,150.8s0,0,0,0c0,0,0,0,0,0h0Z"/>
    <path class="st0" d="M121.4,17.1c0,0,0,.2,0,.2,0,.1.1.2.3.3,0,0,.1,0,.1.2,0,0,0,0,0,0,0,0,0,0,0,.1,0,.1.2.2.3.1,0,0,0,0,0,0,0,0,0,.1,0,.2,0,0,0,.1,0,.2,0,0,.1.2.2.2s0,0,.2,0c0,0,.2,0,.2,0h.2c0-.1,0-.2,0-.3,0,0,.2-.2.2-.3,0,0,0-.2,0-.3,0-.1-.2-.2-.2-.3,0,0,0-.1-.1-.2,0,0,0-.1,0-.2,0,0,0,0,0,0,0,0,0,0,0,0,0,0,0,0,0,0,0,0,0,0,0-.1,0,0,0,0,0,0,0,0,0,0,0,0,0,0-.1,0-.1,0-.1,0-.3.2-.4.2-.1,0,0-.2,0-.3,0,0,0-.1,0-.2,0,0-.2,0-.2-.1,0,0-.2,0-.3,0-.1,0-.2.3-.2.4,0,.1,0,.2,0,.3,0,0,0,.1,0,.2Z"/>
    <path class="st0" d="M115.9,20.1c0,0,0,.2,0,.3"/>
    <path class="st0" d="M114.6,18.6c0,0,.2,0,.2.1,0,0,0,.1,0,.1,0,0,0,.1,0,.2,0,0,0,.2,0,.2,0,0,.1,0,.2,0,0,0,0,0,.2-.1,0,0,0,0,.1,0,0,0,0,0,.1,0,0,0,0,0,.1,0,0,0,0,0,.1,0,0,0,.2,0,.2,0,0,0,0,0,0,.1,0,0,0,0,0,.1,0,0-.2,0-.2.2,0,0,0,0,0,0,0,0,0,.1,0,.1,0,.1-.2.1-.2.2,0,0,0,.2,0,.3s0,.2,0,.3c0,.1.2,0,.3,0l.2-.3c0,0,0-.2.1-.2,0,0,.1,0,.2,0,0,.1,0,.3,0,.4,0,0,0,0,.1,0,0,0,0,0,0-.2,0,0,0,0,0,0,0,0,0,.2.1.2,0,0,0-.2,0-.2,0,0,0-.2.1-.1,0,0,0,0,0,.1,0,0,0,0,0,.1,0,0,0,0,.1,0,0,0,0,0,.1,0,0,0,0,0,.1,0,0,0,0-.1,0-.1,0,0,0-.2,0-.3,0,0,0,0,0,0,0,0,0,0,0,0,0,0,0,.1,0,.2,0,0,0,0,0,.1,0,0,0-.3.1-.3,0,0,.1,0,.2.1,0,0,0,.2.1.2,0,0,0-.2.2-.2,0,0,.2,0,.3,0,.2-.1.1-.3,0-.4,0,0,0-.1,0-.2,0,0,.1,0,.2,0s.1,0,.1,0c0,0,0,0,0,0,0,0,0,0,.1,0,0,0,0-.1.1-.2,0,0,0-.1,0-.2,0,0,.1,0,.1-.2,0,0,0-.1,0-.2,0,0,0,0,0-.1,0,0,0,0,0-.1,0,0,0-.2,0-.3,0,0,0,0,.1,0,0,0,0,0,.1,0,0,0,0-.2.1-.3h0v-.3c0-.1,0-.3.1-.3,0,0,0,0,.1,0,0,0,0,0,.1,0,0,0,.3,0,.3-.1,0,0-.1,0-.2-.1,0,0-.1,0-.1,0,0-.1.5,0,.4-.2,0,0,0-.1-.1-.2,0,0,0,0-.1-.1,0,0-.1-.1-.2-.2,0,0-.1-.1-.2-.1,0,0,0,0-.1,0,0,0,0,0,0,0,0,0,0,.1,0,.2,0,.1.1.3.2.4,0,0,.1.3,0,.4,0,0-.2,0-.2,0,0,0,0-.1-.1-.2,0,0,0-.1,0-.2,0,0-.1-.2-.2-.2,0,0,0,.1,0,.2s0,.1,0,.2c0,0,0,.1,0,.1,0,0-.1,0-.2,0,0,0,0-.1-.1-.1,0,0,0,0-.1,0,0,0-.1,0-.2.1,0,0,0,0,0,.1,0,0,0,0,0,.1,0,0,.1,0,.2,0,0,0,.1,0,.1,0,0,0,0,.1,0,.2,0,0,.2,0,.3.1,0,.1-.2,0-.3.1,0,0,0,0,0,.1,0,0,0,0-.1,0,0,0,0,0-.1,0,0,0,0,.1,0,.2,0,.1,0,.2,0,.4s0,.1,0,.1c0,0-.2,0-.2,0,0,0-.1,0-.2,0,0,0,0-.1,0-.2,0,0,0,0,0-.1,0,0,0-.2,0-.2,0,0-.2,0-.3,0,0,0,0,0,0,0,0,0,0,0,0,0,0,0,0,0-.1,0,0,0,0,0,0-.2,0,0,0-.1-.1-.2,0,0-.2,0-.2.1,0,0,0,0,0,.1,0,0,0,.1,0,.2,0,0,0,0,.1.2,0,0,0,.1,0,.2,0,.1,0,.2,0,.3,0,0,.1,0,.1.1,0,0,0,0,0,.1,0,0,0,0,0,.1,0,.1-.2,0-.2,0-.1,0,0,.3,0,.3,0,0-.1,0-.1-.1,0,0,0-.1,0-.2,0,0,0-.2,0-.2,0,0,0,.1-.1.1,0,0,0,0,0,.1,0,0,0,0-.1,0,0,0,0-.1,0-.2,0,0,0-.2,0-.2,0,0,0,0,0-.1,0,0,0-.1,0-.2,0,0,0,0-.1,0,0,0,0,0-.1,0,0,0-.2-.3-.2,0,0,0,0,.2,0,.2,0,0,0,.1,0,.2,0,0,0,.2,0,.2,0,0-.1,0-.2,0,0,0,0-.2,0-.2,0,0,0-.2,0-.2,0,0-.1,0-.1,0,0,0,0,.1,0,.2,0,.2,0,.4.2.6,0,0,0,.1,0,.2,0,0-.2,0-.2,0,0,0-.1-.1-.2-.2,0,0-.1-.1-.2-.2,0,0-.2,0-.2,0,0,0,0,.2,0,.2,0,0,0,.1,0,.2,0,0-.1,0-.2.1h0c-.1,0-.3,0-.4,0,0,0,0-.1-.1-.1,0,0-.2,0-.3,0,0,0-.1,0-.1.2,0,.1,0,.1.2.1Z"/>
    <path class="st0" d="M127,11.3s0,0,0,0c0,0,0,0,0,.1,0,0,0,0,0,.1,0,.1,0,.3.2.3,0,0,.1,0,.2,0,0,0,.2-.1.3-.2,0,0,.1,0,.2-.1,0,0,0,0,0,0,0,0,0,0,0,0,0,0,0,0,0,0,0,0,0,.1-.1.2,0,0,0,0-.1.1,0,0,0,.1,0,.2,0,0,0,.2.1.2,0,0,0,0,0,0,0,0,0,0,0,0,0,0,0,0,.1.1,0,0,0,0,0,0,0,0,0,0,0,.1,0,0,0,0,.1.1,0,0,0,0,0,0,0,0,0-.2.1-.3,0-.1.1-.3.2-.4,0,0,.1,0,.2,0,0,0,.2,0,.3,0,.2,0,.3,0,.5,0h0s0,0,0,0c0,0,0,0,0,0,0,0,.1,0,.2,0,0,0,.2,0,.2,0,0,0,.1,0,.2-.1,0,0,0-.1.1-.2,0,0,0-.1,0-.2s0-.2,0-.2c0,0-.2,0-.2,0,0,0,0,0,0,.1,0,0,0,.1-.1.2,0,0,0,.1-.2.2,0,0-.2,0-.2.1,0,0,0,0-.1,0,0,0,0,0,0,0,0,0,0,0,0,0,0,0,0,0,0,0,0,0,0,0-.1,0-.1,0-.2-.2-.2-.4,0,0,0,0,0-.1,0,0,0,0,.1-.1,0,0,.2,0,.3-.1,0,0,.1-.1.1-.2,0,0,0-.1,0-.2,0,0-.2,0-.2,0,0,0,0,0-.1,0,0,0-.1,0-.2,0,0,0-.2,0-.3,0h0s0,0,0,0c0,0,0,0,0,0,0,0,0-.1,0-.2,0,0,0-.1,0-.2,0,0-.1-.1-.2-.1,0,0-.1,0-.2,0,0,0-.1.2-.2.2,0,0,0,0,0-.1,0,0,0-.2,0-.2,0,0,0,0,0,.1,0,0,0,0,0,.1,0,0,0,.2-.1.2,0,0-.1,0-.2,0,0,0,.1.2.1.2,0,0,.1,0,.2,0,0,0,.1,0,.2,0,0,0,.1.1.2.2,0,0,0,0,0,.1,0,0,0,0,0,.1,0,0-.1,0-.2,0,0,0,0,0-.1,0,0,0,0,0-.1,0,0,0,0,0,0,0,0,0,0,0,0,0,0,0,0,0-.1,0,0,0,0,0,0,0,0,0,0,0,0,0,0,0-.1,0-.1,0,0,0,0,0,0,0,0,0,0,0,0,0,0,0,0,0,0,.1s0,.1,0,.1c0,0-.1,0-.2,0-.1,0-.3,0-.4,0,0,0,0,0,0,0,0,0,0,0,0,0,0,0,0,0,0,0Z"/>
    <path class="st0" d="M92.1,47c0,0-.2,0-.3,0,0,0,0,.2,0,.3,0,0-.1.2,0,.2,0,0,.1,0,.2,0s0,0,.1,0c0,0,0,0,.1,0,0,0,.1-.1.2-.2,0,0,.2-.1.2-.1s.2,0,.2,0c0,0,.2,0,.2,0,0,0,0,0,0,0,0,0,0,0,0-.1,0-.1,0-.1.1-.2,0,0,.1-.1.1-.2,0-.1,0-.1-.2-.2,0,0,0-.1,0-.2,0-.1,0-.2-.1-.2,0,0-.2-.1-.3-.1,0,0,0,0-.1,0,0,0,0,0-.1.1,0,0-.1,0-.2,0-.1,0-.1.2-.2.3,0,.1,0,.3-.1.4,0,0,0,0,0,.1,0,0,0,0,0,.1,0,0,.2,0,.2,0,0,0,.2,0,.2,0,0,.1-.1.1-.2.1Z"/>
    <path class="st0" d="M92.2,47.5s0,0,0,0c0,0,0,0,0,0h0Z"/>
    <path class="st0" d="M77.1,54.3c0,0,0-.1.1-.2,0,0,0-.2.1-.3,0,0,.2-.1.3-.2,0,0,.1,0,.2,0,0,0,0,0,.1,0,0,0,.1,0,0-.2,0,0-.1,0-.1,0,0,0,0-.1,0-.1,0,0,0-.1,0-.2,0,0,.1-.3.2-.3.1,0,0,.2.2.3.1,0,.3,0,.3-.1,0,0,.1-.1.2-.3,0-.1,0-.2,0-.3,0,0,0-.1.2-.1,0,0,0,0,0,.1,0,0,0,.1.1,0,0,0,.2-.1.2-.1,0,0,.1-.1.2-.2,0,0,0-.1.1-.2,0-.1,0-.3,0-.4,0-.2.2-.5,0-.7,0-.1-.3-.2-.4,0,0,0-.1.1-.1.2,0,.1.1.3,0,.4,0,0,0,0-.1,0,0,0,0,0,0-.1,0,0,0,0-.1,0,0,0-.1,0-.1.1,0,.1,0,.2,0,.3,0,0-.1.2-.2.3,0,0,0,.1,0,.2,0,0,0,.1-.1.1,0,0-.2,0-.2-.1,0,0,0,0,0-.1,0,0,0-.1,0-.2,0-.1.2-.2.3-.3,0,0,.1-.2,0-.3,0,0-.3,0-.4,0-.1,0-.2.2-.2.3,0,0,0,.1,0,.2,0,0,0,0,0,0,0,0,0,0,0,0,0,0-.1,0-.1.1,0,0,0,.1,0,.2,0,0,0,0,0,.1,0,0,0,.1,0,.2,0,.1-.2.2-.2.3-.1.2,0,.4,0,.6,0,.1,0,.2-.1.3,0,0-.1.1-.2.2,0,0,0,.2,0,.3,0,.1,0,.2,0,.3v.2c0,0,.1,0,.2,0,0,0,0,0,.1-.1Z"/>
    <path class="st0" d="M88.9,41.7c0,0,0-.2.1-.2,0,0,.1-.1.1-.2,0-.1,0-.3.1-.4,0,0,0,0,0-.1s0,0,0-.1c0,0-.1-.1-.2-.2,0,0,0-.2,0-.2,0,0,.1-.1.2-.1,0,0,0,0,.1,0,0,0,0,0,.1,0,0,0,.2,0,.2,0,0,0,.1,0,.2,0,0,0,.2,0,.2,0,0,0,.1,0,.1-.2,0,0,0-.2,0-.3s0-.2,0-.3c0,0,.1,0,.1-.1,0,0,0,0,0,0h0c0,0,0-.1,0-.1,0,0,0,0,0,0,0,0,0-.1.1-.2.1-.1.3-.2.4-.3,0,0,0-.1,0-.2s0-.1,0-.2c0,0,.1,0,.2-.1,0,0,0,0,0-.1,0,0,0-.1,0-.2,0,0,0-.1,0-.2s0-.1,0-.2c0,0,0-.1,0-.2,0,0,0,0,0,0,0,0,0,0,0-.1,0-.1,0-.4-.1-.4,0,0-.2,0-.2,0,0,0,0,0,0,0,0,0,0,0-.1,0,0,0-.1,0-.2,0,0,0-.2,0-.2,0,0,0,0,.2,0,.2,0,0-.1.1-.2.1,0,0-.1,0-.2.1,0,0,0,.2,0,.3,0,0,0,.1,0,.2v.2c0,0,0,.1,0,.2,0,0,0,0,0,.1,0,0,0,0,0,.1,0,0-.2.2-.3.2,0,0-.1,0-.2.1-.1,0-.3,0-.4.3,0,0,0,.2,0,.2s0,0,0,.1c0,0,0,0,0,.1,0,.1-.1.2-.2.3,0,0,0,.2-.1.3,0,0,0,0-.1.1,0,0,0,0,0,.1,0,0,0,.2,0,.2s0,.1,0,.2c0,.2,0,.3,0,.5,0,.1,0,.2,0,.4,0,0,0,.1.1.2h.1Z"/>
    <path class="st0" d="M84.1,44.4c0,0,0,.2,0,.3s0,.2,0,.3c0,0,.1.2.2.2,0,0,.1,0,.2,0,0,0,0-.1.1-.2s0,0,.1,0c0,0,.2,0,.3,0,0,0,0-.2,0-.3,0-.1,0-.2,0-.4,0-.1.1,0,.2,0,0,0,0,.1.1.2,0-.1.1-.3.2-.4,0,0,0-.1.1-.1,0,0,0,0,.1.1,0,0,.1.2.2,0,0,0,0,0,0,0,0,0,0,0,0,0,0,0,0,0,0,0,0,0,0,0,.1,0,0,0,0-.1,0-.1,0,0,0-.1,0-.2,0,0,0-.1.1,0,0,0,0,0,0,.1,0,0,0,.1.2,0,0,0,.1-.1.2-.2,0,0,0-.2,0-.2,0-.1.1,0,.2,0,0,0,0,.1,0,.2,0,0,0,.2,0,.3,0,0,0,.1-.1.1,0,0-.2,0-.2.1,0,0,0,.1-.2.1,0,0-.1,0-.2,0,0,0,0,0-.1,0,0,0,0,0-.1,0,0,0,0,0-.1,0s0,0-.1,0c0,0-.2.1-.2.2h0c0,.1,0,.2,0,.2,0,0,0,0,.1.1,0,0,.1.1.1.2,0,0,0,0,0,.1,0,0,0,0,0,.1,0,0-.2,0-.3,0s-.2,0-.2,0,0,0-.1,0c0,0,0,0-.1,0,0,0-.2,0-.2,0,0,0,0,.1,0,.2,0,0,0,.1,0,.2,0,0,0,0,.1.1,0,0,0,.1,0,.2,0,0,0,0,0,.1,0,0,0,0,0,0,0,0,0,0,.1,0,0,0,.1,0,.2,0,0,0,.2,0,.2,0,0,0,0,0,.1,0,0,0,0,0,0,0,0,0,.1,0,.2-.1,0,0,.2-.1.2-.2,0,0,0-.2,0-.3,0,0,0-.1,0-.2,0,0,.2,0,.2-.1,0,0,.1-.1.2,0h0c0,0,0-.1.1-.1,0,0,0,0,.1,0,0,0,.1,0,.2,0,0,0,0,0,0-.1,0,0,0-.1,0-.2,0,0,0,0,.1-.1,0,0,.2,0,.3-.2,0,0,.2-.1.2-.2,0,0,0-.2,0-.3s0-.2,0-.3c0,0,0-.1-.1-.2s-.1,0-.2,0c0,0,0,0,0-.2,0,0,0,0,0-.1,0,0,0-.1,0-.1,0,0,0,0,0-.2,0,0,0,0,.2-.1,0,0,.1,0,.1-.2,0,0,0-.2,0-.2,0,0,0-.2-.1-.2-.1,0-.2,0-.2.1,0,0-.1,0-.1,0,0-.1,0-.2,0-.3,0-.1,0-.3,0-.4,0,0-.2,0-.3-.1,0,0,0,0,0-.1s0-.2,0-.2c0,0,0,0-.1,0,0,0,0,0,0,0,0,0,0-.1.1-.2,0,0,.2-.2.2-.3,0,0,0-.2-.1-.2-.1,0-.4,0-.5.1,0,0-.2.1-.2.2,0,.1,0,.2.1.3,0,0,0,.1,0,.2,0,0,0,.2,0,.3,0,0,.2.1.2.2,0,0,0,.2,0,.3,0,0,0,.2.2.2,0,0,.1,0,.2.1,0,.1,0,.1-.1.1,0,0-.1,0-.2,0,0,0,0,.1,0,.2s0,.2,0,.3c0,0-.1-.1-.1-.2,0,0,0-.2,0-.3,0,0,0-.1,0-.2,0,0,0,0-.1-.1,0,0-.1,0-.2,0,0,0,0,.1,0,.2,0,0,0,.1,0,.2,0,0,0,0,.1.1,0,0,0,.2,0,.3,0,.1,0,.2-.2.3,0,0,0,0-.1,0,0,0,0,0-.1,0,0,0-.2,0-.3-.1,0,0-.1,0-.2,0,0,0,0,0-.1.1s0,0-.1,0c0,0-.1-.1-.1-.2,0,0,0-.7-.2-.6-.1,0,0,.2,0,.3,0,.1,0,.2,0,.3,0,.1,0,.2,0,.3,0,0,0,.2,0,.2-.1.1,0-.2,0-.2,0-.2,0-.5,0-.7,0,0,0,0,0,0s0,.1,0,.2c0,.1,0,.2-.2.2,0,0-.2.1-.2.2,0,0,0,.1.1.1,0,0,0,0,.1.1,0,0,0,0,0,0,0,0-.2,0-.2,0,0,0,0,.2,0,.3,0,0,0,0,0,.1,0,0,0,0,0,0,0,0,0,.2,0,.2,0,.1,0,.2.1.3Z"/>
    <path class="st0" d="M79.9,51.6c0,0,0,.1.1.1,0,0,0-.1.1-.2,0-.1.1-.2.2-.4,0-.1,0-.2.2-.3,0,0,0-.1,0-.1,0,0,0,.2,0,.2,0,0,0,.2,0,.3,0,0,0,0,0,0,0,0,0,0,0,0,0,0,0,0,.1,0,0,0,0-.1.1-.2,0,0,0-.1.1-.2,0,0,0-.1,0-.2,0,0,0,0,0,0,0,0,0,.1,0,.2,0,0,0,.2,0,.2,0,0,.1,0,.1,0,0,0,.1-.2.1-.2,0,0,0-.2,0-.2s0-.1,0-.2c0,0,0-.1,0-.2,0,0,.1,0,.2,0,.1,0,.2,0,.3,0,0,0,0,0,.1,0,0,0,.2,0,.2,0,0,0,.1,0,.2,0,0,0,.1,0,.1-.1,0,0,0,0,0-.1,0,0,0-.1,0-.1v-.2s0,0,0,0c0,0,0,0,0,0,0,0,0,0,0,0,0,0,0,0-.1,0,0,0-.1,0-.2,0,0,0-.1,0-.2.1-.1,0-.2,0-.3,0,0,0,0,0,0-.1,0,0,0-.1.1-.1,0,0,.1,0,.2,0,0,0,.1,0,.2,0,0,0,0,0,0,0,0,0,0,0,0,0,0,0,0-.1,0-.2s0-.1,0-.2c0,0,0,0,0,0,0,0,0,0,0,0,0,0-.1,0-.2,0,0,0-.1,0-.2,0,0,0,0,0,0,0,0,0,0,0,0,0,0,0,0,.1,0,.2,0,0,0,.1,0,.2,0,0,0,0,0,0,0,0,0,0-.1,0,0,0-.1,0-.2,0,0,0,0,0,.1.1,0,0,0,0,0,.1,0,0,0,0,0,0,0,0,0,0,0,0,0,0,0,0,0,0,0,0,0,0,0,0,0,0,0,0,0,0,0,0-.1-.1-.2-.2,0-.1,0-.4-.3-.4,0,0-.2.1-.2.2,0,0,0,0,0,.1,0,0-.1,0-.2,0,0,0,0,0,0,0,0,0,0,0,0,.1,0,0,0,.1,0,.2,0,0,0,0,0,.1.1,0,.2,0,.3,0,0,0,.2,0,.2,0,.1,0,0,.2-.2.2,0,0-.1,0-.2,0,0,0,0,0-.1,0,0,0,0,.1,0,.2,0,0,0,.2,0,.3,0,0,0,0,.1,0,0,0,0,0,.1,0,0,0,0,.1,0,.2,0,0-.1.1-.2.2,0,0-.2.2-.2.3,0,0,0,0,0,.2v.2c0,0,0,.1,0,.2Z"/>
    <path class="st0" d="M87.2,52.5c0,0-.1,0-.2.1,0,0,0,.1,0,.2,0,0-.1,0-.2,0,0,0,0,0-.1,0,0,0-.1.1-.1.2,0,0,0,0,0,0,0,0,0,0,0,0,0,0,0,.1,0,.2,0,0,.1.1.2.1,0,0,0,0,0,0,0,0,0,0,.1,0s0,0,.1,0c0,0,0,0,0,0,0,0,.2,0,.2,0s.2,0,.3,0c0,0,.1,0,.2,0h0c0-.1-.1-.2-.1-.2,0,0,0,0,0,0,0,0,0,0,0,0h-.1c0,0-.1,0-.2-.1,0,0-.1-.1-.1-.2,0,0,0-.1,0-.2,0,0,0-.1-.1-.1Z"/>
    <path class="st0" d="M70.7,81.2c.1,0,.2,0,.3,0,.1,0,.2,0,.3,0h0c0-.2,0-.3.1-.4,0-.1.1-.2.2-.3,0,0,.1,0,.2,0s0,0,0,0c0,0,0,0,.1,0,0,0,0,0,0-.1,0,0,0,0,0,0s0,0,0-.1c0,0-.1,0-.1,0,0,0-.1.1-.2.1-.1,0-.1,0-.1-.1,0,0,0,0,0,0,0,0,0,0,0-.1,0-.1-.1,0-.2,0,0,0,0,0-.1,0,0,0,0,0-.1,0,0,0-.2-.1-.3,0,0,0-.1.2-.2.2,0,0,0,.1-.1.2,0,0,0,.1,0,.2,0,.1,0,.2-.1.3,0,0-.1.2,0,.2,0,0,.2,0,.3,0Z"/>
    <path class="st0" d="M72.8,84.6s0,0,0,.1c0,0,0,0,0,.1h.1c.1,0,.3,0,.4-.1,0-.1.1-.3.3-.3,0,0,.2-.2.3-.3,0-.2,0-.3-.1-.4,0,0,0-.1,0-.2,0,0,0-.1,0-.2,0,0,0-.1,0-.2,0,0,0-.1,0-.2s0-.1,0-.1c0,0-.1-.1-.2-.2,0,0,0,0-.1-.2,0,0,0-.1-.1-.2,0-.1,0-.3,0-.4,0-.2,0-.3-.3-.3-.2,0-.1.1-.1.3,0,0,0,0,0,0,0,0,0,0,0,0,0,0,0,0,0,0,0,0,0,0,0,.1,0,0,0,.1,0,.2,0,0,0,.2,0,.2,0,0,0,.1,0,.2,0,0,0,.2-.1.3,0,0,0,.3,0,.2,0,0,.3-.2.4,0,0,0,0,.2,0,.2,0,.1,0,.1-.2.2-.2,0-.3.2-.4.3,0,0,0,.1,0,.2,0,0,0,.2.1.2,0,0,.1.2.1.3Z"/>
    <path class="st0" d="M72.2,85.3c0,0,0,.1-.1.2,0,0,0,.2-.1.2,0,0,0,.1,0,.2,0,0,0,0,.2,0,0,0,0,0,.1,0,0,0,0,0,.1,0,0,0,.2,0,.2-.1,0,0,0-.1.1-.2,0,0,0,0,.1-.1v-.2c0,0-.2-.2-.2-.3,0,0,0-.2,0-.3v-.3c0,0,0-.2,0-.2,0,0-.2,0-.2,0,0,0,0,.2,0,.3,0,.2-.2.2-.2.4,0,0,.1.1,0,.2Z"/>
    <path class="st0" d="M71.9,87.6c.1.1.3.2.5.2,0,0,.1,0,.1,0,0,0,0,0,.1,0,0,0,.2,0,.2-.1h0s.1-.1.1-.2c0,0-.1-.1-.2,0,0,0-.2,0-.1,0,0,0,0,0,0,0,0,0,0,0,0-.1,0-.1,0-.3,0-.4,0,0,0-.1,0-.2s0-.2-.2-.2c-.2,0-.3,0-.4.1,0,0-.1.1-.2.2,0,0,0,.2,0,.3s0,.2,0,.2c0,0-.1,0-.2.1-.2,0,0,.3,0,.4Z"/>
    <path class="st0" d="M70.2,88.1c0,0,.2,0,.3,0,0,0,0,0,.1,0,0,0,0,0,.1,0h0c0,0,0-.2.1-.2,0,0,0-.1,0-.2,0-.2.2-.3.3-.4,0,0,.2-.1.2-.3,0,0,0,0,0-.1,0,0,0,0,0,0,0-.2-.4.1-.4.2,0,0-.2.1-.2.2,0,0,0,0,0,0,0,0,0,.1,0,.2,0,0,0,.2,0,.2,0,0-.2.1-.2.2,0,0-.1.1-.2.2,0,0,0,.2,0,.2Z"/>
    <path class="st0" d="M66.7,94.3c0,0,0,.1.2.1,0,0,.2,0,.3,0,0,0,0,0,0,.1,0,0,0,0,.1.1,0,0,0,.1.2.1s.2,0,.2-.1h0c0,0,0-.2,0-.2,0,0,0-.1,0-.2,0,0-.1,0-.2,0,0,0-.1,0-.2,0,0,0-.1,0-.1-.1,0,0,0-.2,0-.2,0,0,0-.1,0-.2,0,0-.2-.1-.2-.1,0,0-.1,0-.2,0,0,0,0,.1,0,.2,0,0,0,.1,0,.2,0,0,0,0-.1,0,0,0,0,0-.1,0-.1,0,0,.3,0,.4,0,0,0,.1,0,.2Z"/>
    <path class="st0" d="M67,92.8c0,0,.1,0,.2,0,0,0,0,.1,0,.2,0,0,0,0,0,.1,0,0,0,0,.1,0h0c0-.3,0-.3,0-.4,0,0,0-.1.1-.2s0-.1,0-.2c0,0-.1-.2-.3-.2,0,0,0,0-.1.1,0,0-.1,0-.2,0-.1,0-.2,0-.2.2,0,.1,0,.3.2.2Z"/>
    <path class="st0" d="M66.1,93.2c0,0,0,.2.2.3,0,0,.2,0,.3,0,0,0,.1,0,.2,0,0,0,.1,0,.2,0h-.2c-.1-.2-.1-.4-.2-.5,0,0,0-.1-.1,0,0,0,0,0-.1.1,0,0,0,.1,0,.1,0,0,0,0-.1,0-.1,0,0,.2,0,.3Z"/>
    <path class="st0" d="M67.8,90.7c0,0,.1,0,.2,0,0,0,.2,0,.2,0,0,0,0,.2,0,.2,0,0,0,0,0,0,0,0,0,0,0,0,0,0,0,0,0,0,0,0,0,0,0,.1,0,0-.1.1-.2.2-.1.1-.3.2-.5.2,0,0-.2.1-.3.2,0,0,.2,0,.2,0,0,0,.1,0,.2,0,0,0,.1,0,.2,0,0,0,.1,0,.2,0,0,0,.1,0,.2,0,.1,0,.2-.1.3-.2,0,0,.1-.1.1-.2,0,0,0,0,0-.1,0,0,0,0,0,0h0c0-.1.1-.1.2-.2,0,0,0,0,0,0,0,0,0,0,0,0,.1,0,.2,0,.3-.1,0,0,.1-.1.2-.2,0,0,0,0,0-.1,0,0,.2-.2.2-.3,0,0,0,0-.1,0,0,0-.1,0-.2,0-.1,0-.2,0-.4,0-.2,0-.4,0-.6,0,0,0-.2,0-.3,0-.1,0-.2,0-.3.2,0,0,0,.2,0,.3,0,0,0,0,0,0Z"/>
    <path class="st0" d="M66.3,89.1c0,0-.2,0-.2.2-.1.1-.3.2-.4.3,0,0,0,0,0,0,0,0,0,0-.1.1,0,0,0,.2,0,.1h0c0,0,.2,0,.2,0,0,0,0,0,.1,0,0,0,0,0,.1-.1,0,0,.1,0,.2-.1,0,0,.1-.1.2-.2,0,0,.1,0,.2-.1,0,0,0,0,.1,0,0,0,0,0,.1-.1,0,0,0,0,0,0,0,0,0,0,0-.1,0,0,0,0,0-.2,0,0-.2,0-.2,0,0,0-.1.1-.2.2,0,0-.2,0-.3.1Z"/>
    <path class="st0" d="M64.9,89.8c0,0,.2,0,.3-.1h0c0,0,.1,0,.2-.1,0,0,0,0,.1-.1,0,0,0,0,.1,0,0,0,.2-.1.2-.2,0,0,.1-.1.2-.2.1,0,.3-.1.4-.2,0,0,.1,0,.2-.1,0,0,0,0,0,0,0,0,0,0,0-.1,0,0-.2,0-.2,0,0,0,0,0,0,0,0,0,0,0-.1,0,0,0-.1,0-.2,0-.1,0-.2.1-.3.2,0,0-.2.2-.3.2,0,0-.1.1-.2.1,0,0,0-.1-.2-.1,0,0-.2,0-.2.2,0,0,0,0,0,.1,0,0,0,0,0,.1,0,.1-.1.2-.2.2,0,.1,0,.1.1.1Z"/>
    <path class="st0" d="M69.2,87.8h.1c0,0,.2-.2.3-.3,0,0,.1,0,.2,0,0,0,.1,0,.2-.1,0,0,.3-.2.2-.3,0,0-.2,0-.2,0,0,0-.1,0-.2.1,0,0-.1,0-.2,0,0,0-.1,0-.2,0-.1,0-.3,0-.3.1,0,.1-.1.3-.1.5,0,0,0,.1,0,.2,0,0,.2,0,.2,0Z"/>
    <path class="st0" d="M77.5,74.3c.1,0,.2-.1.3-.2.1,0,.2-.1.3-.2,0,0,0,0,.1-.1,0,0,0-.1.1-.1.1,0,.2,0,.4,0,.1,0,.2,0,.3,0,0,0,.2,0,.3,0,0,0,.2-.1.3-.2,0,0,0,0-.1,0,0,0,0,0-.1-.1,0,0-.1-.1-.2-.2,0,0-.2,0-.2,0-.1,0-.2.1-.3.2-.2.1-.3,0-.5,0,0,0-.1,0-.2,0,0,0,0,.1,0,.2,0,0,0,0,0,0,0,0,0,0-.1,0,0,0-.2,0-.2,0-.1,0-.3.2-.4.4,0,.1-.2.3-.1.4.1.2.3,0,.4,0,0,0,.1,0,.2,0Z"/>
    <path class="st0" d="M77.4,74.4s0,0,0,0c0,0,0,0-.1.1h.1Z"/>
    <path class="st0" d="M75.7,73.8c0,0,0,.2,0,.3,0,0,.1,0,.2,0,0,0,.1-.1.2-.2h0c0-.1,0-.2,0-.2,0,0,0-.1,0-.2,0,0,0-.2-.1-.2s-.1,0-.2,0c0,0-.1,0-.2,0-.1,0-.2.1-.3.2,0,0-.2.2-.1.3,0,0,.2,0,.3,0Z"/>
    <path class="st0" d="M76.7,73.9h0s.2-.2.2-.2c.1,0,.2-.1.4-.2,0,0,0,0,.1,0,0,0,0,0,0,0,0,0,0,0,0-.1,0-.2-.2-.2-.3-.1-.2.1-.5.2-.7.4,0,0-.2.2-.2.3,0,.1.1.1.2.1Z"/>
    <path class="st0" d="M74.1,78.5s0,0,0,0c0,0,0,0,0,0h0Z"/>
    <path class="st0" d="M75.2,76.6s.1,0,0-.1c0,0-.2,0-.3,0-.2,0-.3,0-.4.1-.2,0-.1.2-.2.3,0,0,0,.1-.1.2,0,0-.1.1-.2.2,0,0-.1.1-.2.2,0,0,0,.2,0,.3,0,0,0,.2,0,.2,0,.1-.2.2-.2.3,0,.1-.1.2-.2.3,0,0,0,.2,0,.3,0,0,.1-.1.2-.2,0,0,0,0,0,0,0,0,.1-.1.2-.2,0,0,.2-.2.2-.2,0,0,.1-.2.2-.2,0,.2,0,.3-.1.4,0,0,0,.1,0,.2,0-.1.2-.2.2-.3,0-.1.2-.3.3-.4,0,0,0,0,.1-.1,0,0,0,0,.1,0,0,0,0,0,0,0,0,0,.2,0,.2,0,0,0,.1,0,.2-.2,0,0,.1-.1.2-.2,0,0,.1,0,.2,0,0,0,.2,0,.2,0,0,0,.2-.1.2-.2.1,0,.2-.1.1-.3,0-.2-.2-.1-.3,0-.2,0-.3.2-.5.2,0,0-.1,0-.2,0,0,0-.2,0-.3,0-.2,0,0-.2,0-.2Z"/>
    <path class="st0" d="M73.5,76.5c0,0,.1,0,.2,0h0c.1-.1.2-.2.3-.3.1,0,.3,0,.4-.1,0,0,.1-.1.2-.1,0,0,0,0,.1,0,0,0,.1-.1.1-.2,0,0,.1,0,.2-.1,0,0,0,0,0-.2,0,0,0,0-.1,0,0,0-.1,0-.2,0,0,0-.1,0,0-.2,0-.1.2-.2.3-.2.1-.1.2-.3.2-.5,0-.1,0-.3,0-.4,0,0-.3,0-.4,0,0,0-.2.2-.1.3,0,0,0,0,0,.2,0,0,0,.2-.1.2-.1,0-.2.2-.3.3,0,0,0,.1-.1.2,0,0-.1,0-.2.1,0,0-.3,0-.3.2,0,.1.3,0,.4,0,0,0,.2,0,.2,0,0,0-.2.1-.2.1,0,0-.2,0-.2,0,0,0-.2,0-.2,0-.2,0-.2.3-.2.4,0,0,0,0,0,0,0,0,.1,0,.1,0Z"/>
    <path class="st0" d="M67.9,90c0,0,.1,0,.2,0,0,0,.1,0,.1,0h.3s0,0,.1,0c0,0,.1,0,.2,0,0,0,0-.1,0-.2,0,0-.1,0-.1-.2,0-.1,0-.2-.2-.2,0,0-.1.1-.2.2,0,0-.1,0-.2.1-.1,0-.2,0-.3.1,0,0,0,.1,0,.1,0,0,.1,0,.2,0h0Z"/>
    <path class="st0" d="M66.7,89.5c0,.2-.1.2-.3.3-.1,0-.2.2,0,.3.1.1.2,0,.4,0h0c0,0,.1-.1.2-.1,0,0,0,0,0,0,0,0,0,0,0,0,0,0,0,0,0,0,0,0,0,0,0,0,0,0,0,0,0,0,0,0,0,0,0,0,0,0,0,0,0,0,0,0,0,0,0-.1,0,0,0-.1,0-.2,0,0,0,0,0,0,0,0,0,0,0,0,0,0-.2,0-.2,0-.1,0-.2.2-.2.3Z"/>
    <path class="st0" d="M48,106.5s0,0,0,0c0,0,0,0,.1,0,0,0,0,0,.1,0,0,0,.1,0,.2,0,0,0,0,0,0,.1,0,0,0,.1.1.2,0,0,.1,0,.2,0,0,0,0,0,.1.1,0,0,.1,0,.1.1h.1c0,0,0-.1.1-.1,0,0,.1,0,.2,0,0,0,.2,0,.3-.2,0,0,0-.1,0-.2,0,0,0,0,0-.1,0,0,0-.2,0-.3,0,0,0,0,0-.2,0,0,0,0,0,0,0-.1,0-.2-.1-.3,0,0,0,0-.1-.1,0,0,0,0-.1,0,0,0-.1,0-.2,0,0,0-.1,0-.2,0,0,0,0,0-.1.1,0,0,0,.1-.1.2-.1,0-.1-.1-.2-.1,0,0,0,0-.1,0,0,0,0,0-.1,0,0,0-.2,0-.3,0-.1,0-.1,0-.1.1,0,0,0,0,0,.1,0,0,0,0,0,.1,0,0,0,.1,0,.2,0,0,0,.1,0,.1,0,0,0,0,0,0,0,0,0,0,0,0Z"/>
    <path class="st0" d="M45.2,110.9c0,0,0,.2.1.3,0,0,0,.1,0,.1,0,0,0,0,0,0,0,0,0,0,0,0,0,0,0,.1,0,.1,0,0,0,0,.1-.1,0,0,.1,0,.2,0,0,0,.2,0,.3,0,0,0,.1-.1.2-.2,0,0,0,0,.1,0,0,0,.1,0,.2,0,0,0,.1,0,.2,0h0c0-.1,0-.2,0-.2,0,0,0-.1,0-.2,0,0,0-.1-.1-.1,0,0-.1,0-.2,0,0,0,0-.1-.2-.1,0,0,0,0-.1.1s0,.3-.2.2c0,0-.1-.1-.1-.2,0,0,0-.2-.1-.2,0,0,0,0,0,0,0,0,0,0,0,0,0,0-.1-.1-.2,0,0,0,0,.1,0,.2,0,0,0,.1,0,.2,0,0-.1.1-.2.2,0,0-.2.1-.2.2,0,0,0,0,.1,0,0,0,.1,0,.1,0Z"/>
    <path class="st0" d="M47.1,109.8c0,0,0,.1,0,.2,0,0,0,.1,0,.2s0,0,0,.1c0,0,0,0,.1,0v.2h.3c0,0,.1,0,.2,0,0,0,.1-.2.2-.3,0,0,.1,0,.2-.2,0,0,0-.1,0-.2,0,0-.1,0-.2,0s0,0,0,0c0,0,0,0,0,0,0,0,0,0,0,0,0,0,0-.1,0-.2,0-.1-.2-.3-.4-.3,0,0-.1,0-.2.1,0,.1,0,.1,0,.2,0,0,.1.1.1.2Z"/>
    <path class="st0" d="M49.4,108.5c0-.2-.2-.3-.3-.1-.1.1-.1.3-.2.4,0,0-.2,0-.3,0,0,0-.1,0-.2,0,0,0,0,.1,0,.2,0,0,0,0,0,0,0,0,0,0,0,0h0c.1.1.3.2.4.1,0,0,.1,0,.2,0,0,0,.1,0,.2,0,.2,0,0-.2,0-.4,0,0,0,0,0-.2,0,0,0-.2,0-.2Z"/>
    <path class="st0" d="M49.6,109.2s0,0,0,0c0,0,0,0,0,0h0Z"/>
    <path class="st0" d="M49.9,109c0,0,0,0,0-.1,0,0,0,0,0,0,0,0,0-.1-.1-.2,0,0,0-.1-.1,0,0,0,0,0,0,.1,0,0,0,0,0,0,0,0,0,0,0,0,0,0,0,.2,0,.2,0,0,0,.1,0,.2,0,0,0,0,.1,0,0,0,.2,0,.2-.1Z"/>
    <path class="st0" d="M52.1,106.9c0,0-.2,0-.3,0,0,0-.1-.1-.2,0,0,0-.2.2-.1.3,0,0,.1,0,.1,0,0,0,0,0,0,0,0,0,.1.2.2.2h.2c0,0,0,0,.1,0,0,0,.1,0,.1,0,0,0,0-.2,0-.2,0,0,0,0,0-.1,0,0,0,0,0-.1Z"/>
    <path class="st0" d="M50.2,108.4s0,0,0,0c0,0,0,.1,0,.2,0,0,0,.5.2.5,0,0,0-.1.2,0,0,0,0,0,.1.1,0,.1.2.1.3.1,0,0,.1,0,.2,0,0,0,.1,0,.2-.1,0,0,.1,0,.1-.1,0,0,0-.1,0-.1h0c0,0,0-.1,0-.2,0,0,0-.1,0-.2,0,0,0,0,0-.1,0,0,0,0,0-.1,0,0,0,0,0-.1,0,0,0,0,0-.1,0,0,0,0-.1,0,0,0-.1,0-.1,0,0,.2,0,.4,0,.5,0,0,0,.2-.2.1,0,0,0-.2,0-.3,0-.1,0-.4-.1-.5,0,0-.1,0-.2,0,0,0,0,0-.1,0h-.1c0,0,0,0-.1,0,0,0,0,0,0,.1s0,0,0,.1c0,0,0,0,0,0Z"/>
    <path class="st0" d="M52.6,103.3c.2,0,.3,0,.5,0,0,0,.1,0,.2,0,0,0,0,0,0,0,0,0,0,0,.1,0,.1,0,.2-.1.2-.2,0,0,0-.2,0-.2,0,0,0-.1,0-.2s0-.2,0-.3c0,0,0-.2,0-.3,0,0,0-.1-.2,0,0,0,0,.2-.2.2,0,0-.1.2-.2.2,0,0-.2,0-.3,0,0,0,0,.2-.1.2,0,0,0,0,0,0,0,0,0,0-.1,0-.1,0,0,.2,0,.3,0,0,0,.2-.1.2,0,0-.2.1-.2.2h0c0,0,.1,0,.2,0,0,0,.2,0,.3-.1Z"/>
    <path class="st0" d="M51.7,106.2s0,0,0,0c0,0,0,0,0,0h0Z"/>
    <path class="st0" d="M50.8,105.8c0,0,.1,0,.2.2,0,0,0,.1.1.2,0,0,.2,0,.2,0,0,0,.1,0,.2,0,0,0,.1,0,.2,0,0,0,.2-.1.2-.2,0,0,0,0,.1,0,0,0,.1,0,.2-.1,0,0,0,0,.1,0,0,0,0,0,.1,0,0,0,.2,0,.3,0,0,0,.1,0,.2,0,0,0,0,0,.1,0,0,0,.2,0,.3,0,0,0,.2,0,.3,0,.1,0,.2,0,.3-.1.1,0,.3,0,.5,0s.1,0,.2,0c0,0,.1,0,.2-.1.1-.1.3-.3.4-.4,0,0,.1,0,.3,0,0,0,0,0,.1,0,0,0,0-.1,0-.2,0,0,0-.1-.1-.1,0,0,0,0-.1,0,0,0-.2,0-.3,0,0,0-.2,0-.2,0,0,0,0,0-.1,0,0,0,0,0,0-.1,0,0,0-.2-.1-.2,0,0,0,0-.1,0,0,0,0-.1,0-.1,0,0-.2.2-.2.1,0,0,0-.1,0-.1,0,0,0-.1-.1-.1-.1,0-.2,0-.3,0,0,0,0,0-.2,0,0,0-.1,0-.2,0-.1,0-.2,0-.3,0s-.3,0-.3.2c0,0,0,0,0,0,0,0,.1,0,.2,0,0,0,.1,0,.2,0,0,0,.1,0,.2.1,0,0,.2.2,0,.2-.1,0-.2,0-.3,0,0,0-.2,0-.3-.1-.1,0-.2.1-.4.2,0,0-.1,0-.2,0,0,0-.1,0-.2-.1-.1,0-.2,0-.3.1,0,0,0,0-.1.2,0,0,0,.1,0,.2,0,.1,0,.3-.2.3,0,0-.1,0-.1.1,0,0,0,.1,0,.2,0,0,0,.1,0,.1Z"/>
    <path class="st0" d="M37.1,116.8c0,0,.1,0,.2.1,0,0,0,0,.1.1,0,0,.2,0,.3,0h.2c0,0,.1-.2.1-.3,0,0,0,0-.2,0,0,0-.1,0-.1,0,0,0,0-.1-.1-.1,0,0-.1,0-.2,0-.1,0-.2,0-.3,0,0,0-.1,0-.2,0,0,0,0,.1,0,.2,0,0,0,0,0,.1,0,0,.1,0,.2,0Z"/>
    <path class="st0" d="M35.2,118c0,0,0,.2,0,.3s0,0,0,.1,0,0,0,.1c0,0,0,0,0,0v.2c.2,0,.2,0,.3,0,0,0,0,0,.1,0,.1,0,.2,0,.3-.2,0,0,0,0,0-.1,0,0,.1,0,.2-.1,0,0,.2,0,.2,0,.1,0,0-.1,0-.2,0,0,0-.1,0-.2,0,0,.2-.1.2-.2,0,0-.1-.1-.2-.2,0,0-.1-.1-.2-.2,0,0,0-.2,0-.3,0-.1,0-.2,0-.3-.1-.2-.4-.2-.6-.1,0,0-.2,0-.2,0,0,0,0,0-.1,0,0,0,0,.1,0,.2,0,0,0,.1,0,.2,0,0,0,0,0,.1,0,.1,0,.2.1.3,0,0,0,.2,0,.3,0,.1-.1.2-.2.3Z"/>
    <path class="st0" d="M33.6,118.6s-.1,0-.1,0c0,0,0,.2.1.3,0,.1.1.1.2.2,0,0,0,0,.1,0,0,0,.1,0,.2,0,0,0,.2,0,.3,0,.1,0,.2,0,.3-.1h0c0-.2,0-.3,0-.3,0,0,.2-.1.2-.2,0,0,0,0,0-.1,0,0,0,0-.1,0,0,0-.1,0-.1,0,0,0,0,0,0,0,0,0,0,0,0,0-.2,0-.4,0-.6,0,0,0-.2,0-.2,0,0,0,0,0,0,0,0,0,0,0,0,0,0,.1-.2,0-.3.1,0,0,0,0,.1,0,0,0,.1,0,.2.2,0,0,.1.3,0,.2,0,0,0,0-.2,0Z"/>
    <path class="st0" d="M38.3,116.7c0,0,0,.1,0,.2h0c0,.1,0,0,.1,0,0,0,0,0,.1,0,0,0,.2,0,.3,0,.2,0,.4,0,.5,0,0,0,.2,0,.3,0,0,0,.2,0,.3,0s.1,0,.1,0c0,0,0,0,0-.1s0,0,0-.1,0,0-.1,0c0,0,0,0-.1,0,0,0,0,0-.1,0,0,0-.2,0-.2,0s-.2,0-.2,0c0,0-.1,0-.2,0-.1,0-.3,0-.4,0-.2,0-.3,0-.5,0,0,0-.2,0-.1.2,0,0,0,.1,0,.2,0,0,.1,0,.2.1Z"/>
    <path class="st0" d="M40.3,114.2c0,0,.2,0,.3,0,0,0,.1,0,.2,0,0,0,.2,0,.3-.1,0,0,.2,0,.3,0,.1,0,.3,0,.5,0,0,0,.1,0,.2,0,0,0,.1,0,.2,0,.1,0,0-.1,0-.2,0,0-.1-.1-.2-.1,0,0-.2,0-.2,0,0,0-.1-.1-.2-.1,0,0-.2,0-.3,0-.1,0-.2,0-.2.1-.1.1-.4,0-.5,0,0,0-.1,0-.1,0,0,0,0,0,0,.1,0,0,0,0,0,0,0,0,0,0-.1,0,0,0-.2,0-.2.1,0,0,0,0,0,.1,0,0,0,0,.1,0h0c0,0,0,0,0,0Z"/>
    <path class="st0" d="M28.6,123.4c0,0,0,0,0,.2,0,.1.2,0,.3,0,.1,0,.2.1.3,0,0,0,0-.1.1-.2,0,0,.1,0,.1-.2h0c0-.1,0-.2.1-.2,0,0,.1,0,.2-.1,0,0,.2,0,.2-.1,0,0,0,0,0-.1,0,0,0,0,.1-.1,0,0,0-.2,0-.3,0,0,0,0,0,0,0,0-.1,0-.2,0-.1,0-.2-.1-.3-.2,0,0,0,0-.1,0,0,0,0,0-.1,0,0,0-.2,0-.3,0,0,0,0,0,0,.1,0,0,0,0-.1,0,0,0-.2,0-.3,0s-.2,0-.2,0c0,0-.2.2,0,.2,0,0,.2,0,.2,0,0,0,0,0,.2,0,0,0,.1,0,.2,0s.2,0,.3,0c0,0,0,0,0,0,0,0,0,.1-.1.1,0,0-.1,0-.2,0,0,0-.1,0-.2,0,0,0,0,0,0,0,0,0,0,.1,0,.2,0,0,.2,0,.2.1,0,0,0,.2-.1.1,0,0-.1,0-.2-.1,0,0,0,0,0-.1,0,0-.1-.2-.2-.2,0,0-.2.2-.2.2,0,0,0,.2,0,.3,0,0,.1,0,.2,0Z"/>
    <path class="st0" d="M29,130.8s0,0,0,0c0,0,0,0,0,.1,0,0,0,0,0,0s0,0,0,0c0,0,0,0,0,0,0,0,0,0,0,0,0,0,0,0,0,0,0,0,0,0,.1,0,0,0,0,0,0,0,0,0,0-.2-.1-.3,0,0-.2,0-.3,0,0,0,0,0-.1,0,0,0,0,0-.1,0,0,0,0,0,0,.1s0,.1,0,.2h-.1s0,0,0,0Z"/>
    <path class="st0" d="M27.1,132h0c0,0,.2,0,.3-.2,0,0,0,0,0,0,0,0,0,0,0,0,0,0,0,0,0,0,0,0,0,0,0,0,0,0,0,.2,0,.3s0,.1,0,.1.1-.1.2-.2c0-.1.2-.1.3-.2,0,0,.2-.2,0-.3,0-.1-.2,0-.3,0s0,0-.2,0c0,0-.1,0-.1-.1,0,0,0-.1,0-.2,0,0-.1,0-.2,0,0,0-.2,0-.3,0,0,0,0,.1,0,.2,0,.1,0,.3,0,.4,0,0,0,.1,0,.2,0,0,0,.1,0,.2,0,0,0,.1,0,.2Z"/>
    <path class="st0" d="M26.1,132.3h.1s.1-.1.1-.2c0,0,0,0,0-.1,0,0,0,0,0-.1,0,0,0-.1,0-.2,0,0,0-.1,0-.2,0,0,0,0,0,0,0,0-.2.1-.2.2,0,0,0,0,0,0,0,0,0,0,0,.1s0,0,0,.1,0,.1,0,.1c0,0,0,0,0,.1,0,0,0,0,0,0,0,0,0,0,0,0Z"/>
    <path class="st0" d="M29.9,139.4c0,0,0,.2,0,.3,0,0,0,0,0,0,0,0,0,0,0,0,0,0,0,.1,0,.2,0,0,.1.1.2.1s.1,0,.2,0c0,0,0,0,.1-.1,0,0,0-.2.1-.2,0,0,0,0,0,0,0,0,0,0,0,0,0,0,.1,0,.2,0,0,0,0-.1,0-.2,0-.1,0-.2.1-.4,0-.2,0-.4.1-.6,0,0,0-.1,0-.2,0,0,0,0,0,0,0,0,0,0,0-.1v-.3c0,0,0-.1,0-.2,0,0,0-.2,0-.3,0,0,0,0-.1,0,0,0-.1,0-.2,0,0,0-.2,0-.2.2,0,0,0,.1,0,.2,0,0,0,0,0,.1,0,0,0,.1-.1.2,0,0,0,0-.1,0,0,0,0,0-.1,0,0,0,0,0,0,0,0,0,0,0,0,0,0,0,0,0,0,0,0,0,0,.1-.1.2,0,0,0,.1-.1.2,0,0,0,0,0,0,0,0,0,0,0,0,0,0,0,0-.1,0,0,0,0,0-.1-.1,0,0-.1,0-.2,0h0s0,0,0,0c0,0,0,.1,0,.2,0,0,0,.2.1.2,0,0,.2.1.2.2,0,0,.1.1.1.2Z"/>
    <path class="st0" d="M27.2,136.4c0,0,.1,0,.2.2,0,.1,0,.2.1.3,0,0,0,0,0,.1,0,0,0,0,0,0,0,0,0,0,0,0,0,0,.1,0,.2.1,0,0,.1,0,.2.1,0,0,.1.1.2.1h0s0,0,0,0c0,0,0,0,0,0,0,0,0,0,0,0,0,0,0,0-.1,0,0,0-.1-.1-.2-.2,0,0,0-.2-.1-.3,0,0,0,0,0,0,0,0,0,0,0,0,0,0,0,0,0-.1,0,0,0-.1,0-.2,0,0,0-.1-.1-.2,0,0-.1,0-.2,0,0,0,0,0,0,0,0,0,0,0,0,0,0,0,0,0,0,0,0,0,0,0,0,0s0,0,0,0c-.1,0,0,.3,0,.3,0,0,.1.1.2.2Z"/>
    <path class="st0" d="M28.2,138c0-.1,0-.3-.2-.3-.1,0-.3,0-.4,0,0,0,0,0,0,0,0,0,0,0,0,0,0,0,0-.1-.1-.1,0,0-.2,0-.2,0,0,0,0,.1,0,.2,0,0,0,.2.2.2,0,0,0,0,.1.1,0,0,.1,0,.2,0,0,0,0,.1,0,.2,0,0,0,.1.1.2,0,0,.1.1.2.2,0,0,0,0,.1.1,0,0,0,0,.1,0h.1c0,0,0,0,0,0,0,0,0,0,0,0,0,0,0-.1,0-.2,0,0,0-.1-.1-.2,0,0,0-.1-.1-.2Z"/>
    <path class="st0" d="M28.2,140c0,0,0-.1,0-.2,0,0,0-.1,0-.2,0,0,0-.1,0-.2,0,0,0-.1,0-.2,0,0,0-.1-.1-.1,0,0,0,0-.1,0,0,0,0,0,0,0,0,0,0,0,0-.1,0,0,0-.1,0-.1,0,0-.1,0-.2,0,0,0,0,0-.1,0,0,0,0-.1,0-.2,0,0-.1,0-.2,0,0,0,0,0,0,0,0,0,0,0,0,.1,0,0,0,.1.2.2,0,0,.1,0,.2.1,0,0,0,.1,0,.2,0,0,0,.1,0,.2,0,0,.2.1.2.2,0,0,0,0,0,.1,0,0,0,0,0,.1,0,0,0,.1,0,.2,0,0,.2,0,.2,0h.1Z"/>
    <path class="st0" d="M26.8,141.8c.1,0,.3.2.4.3,0,0,0,.1.1.2,0,0,0,.1,0,.2s0,.1,0,.1c0,0,.1.1.2,0h0v-.2c0,0,0-.2,0-.3,0,0,0-.1,0-.2,0,0,0,0,0,0,0,0,0,0,0,0,0,0,0,0,0,0,0,0,0,0,0,0,0,0,0-.1-.1-.1,0,0,0,0-.1,0,0,0,0,0-.1,0,0,0,0,0,0,0,0,0,0,0-.1,0,0,0,0,0,0,0,0,0,0,0,0,0h-.1s0,0,0,0c0,0,0,.2.1.2,0,0,.2.2.3.2Z"/>
    <path class="st0" d="M26.9,140.7s0,0,0,0c0,0,0,0,0,0,0,0,.2.2.2.3,0,0,0,.1,0,.1,0,0,0,0,0,0,0,0,0,0,0,0,0,0,0,0,.2,0,0,0,0,0,0,0s0,0,0,0h0s0,0,0-.2c0,0,0,0,0,0,0,0,0,0,0,0,0,0-.2-.2-.2-.3,0,0,0,0,0-.1,0,0,0-.1,0-.2,0-.1-.1-.2-.2-.2,0,0,0,0-.1,0,0,0-.1,0-.1.1,0,0,0,0,0,.1,0,0,0,.1,0,.2,0,0,0,0,0,.1Z"/>
    <path class="st0" d="M32.3,144.8c0,0,.1-.2.2-.2,0,0,0,0,0,0,0,0,0,0,0,0,0,0,0,0,0,0,0,0,0,0,0,0,0,0,0,0,0,0,0,0,0-.1,0-.2,0,0,0,0,0,0,0,0,0,0,0,0,0,0-.1,0-.2,0,0,0-.1,0-.2,0s0,0,0,.1c0,0,0,0,0,0,0,0,0,0,0,0,0,0,0,0,0,.1,0,0,0,0,0,.1,0,0,0,.1,0,.2,0,0,0,0,0,.1s0,.1,0,.1h0Z"/>
    <path class="st0" d="M30.4,145.1s0,0,0-.1c0,0,0-.1,0-.2,0,0,0-.1,0-.1,0,0,0,0-.1,0s0,0,0,0c0,0,0,0,0,0,0,0,0,0-.1,0,0,0,0,0-.1,0,0,0,0,0,0,0,0,0,0,0,0,0,0,0,0,0,0,0,0,0,0,0,0,0,0,0,0,0,0,.1,0,0-.1,0-.2,0,0,0-.1,0-.2,0,0,0,0,0-.1,0,0,0,0,.1,0,.2,0,0,0,.1,0,.2s0,.1,0,.2c0,0,0,0,0,.1,0,0,0,0-.1,0,0,0-.1,0-.2,0,0,0-.1,0-.1,0,0,0,0,0,0,.1,0,0,0,0,.1,0,0,0,0,0,0,0,0,0,0,0,0,0,0,0,0,.1,0,.1,0,0,0,0,0,0,0,0,0,0,0,0,0,0,.1-.1.2-.1s0,.1.1.2c0,0,0,.2,0,.2,0,0,0,.1,0,.2,0,0,0,0,.1,0h.2s0,0,0-.1c0,0,0,0,0-.1,0-.1.1-.2.3-.3,0,0,0,0,.1,0,0,0,0,0,.1,0,0,0,0,0,.1,0,0,0,0,0,0-.1,0,0,0,0,0,0,0,0,0,0,0-.1,0,0,0-.1,0-.2Z"/>
    <path class="st0" d="M28.6,145s0,0,.1,0c0,0,0,0,.1,0,0,0,0,0,0-.1,0,0,0,0,0-.1,0,0,0-.1,0-.2,0,0,0,0,0-.1,0,0,0,0,0-.1,0,0,0,0-.1,0,0,0,0,.1,0,.2,0,0,0,0,0,.1,0,0,0,0,0,.1,0,0,0,0,0,.1,0,0,0,0,0,.1h0c0,0,.1,0,.2,0Z"/>
    <path class="st0" d="M27.9,144.2c0,0,0,0-.1.1,0,0-.1,0-.2,0,0,0,0,.2,0,.2s0,0,0,0c0,0,0,0,0,0h0c0,0,.2,0,.2,0,0,0,0,0,0-.1,0,0,0,0,0-.1,0,0,0-.1,0-.2,0,0-.1-.1-.2,0Z"/>
    <path class="st0" d="M27,145.1c0,0,0,0,.2,0,0,0,.2,0,.2,0h0s0,0,0,0,0-.1,0-.2,0,0-.1,0-.1,0-.2,0c0,0-.1,0,0,0,0,0,0,0,0,0,0,0,0,0,0,0,0,0,0,0,0,0Z"/>
    <path class="st0" d="M27.1,148.8c0,0,0-.1,0-.2,0,0,0,0,0-.1,0,0,0,0,0,0,0,0,0-.1,0-.1,0,0,0,0,0,0,0,0,0,0-.1,0,0,0,0,0,0,0,0,0,0,0,0,0,0,0,0,.1,0,.2,0,0,0,.1,0,.2,0,0,0,.1,0,.2,0,0,0,0,0,0,0,0,0,0,0,0,0,0,0,.1,0,.2,0,0,0,0,0,0,0,0,0,0,0,.1,0,0,0,.2,0,.2,0,0,0,0,0,0,0,0,0,0,.1,0h.1c0-.2,0-.2,0-.3,0,0,0-.1,0-.2,0,0,0,0,.1,0,0,0,0,0,0,0,0,0,0,0,0,0,0,0,0-.1-.1-.2,0,0,0,0,0,0,0,0,0,0,0-.1,0,0,0,0,0-.1Z"/>
    <path class="st0" d="M27.2,148s0,0,0,0c0,0,.1,0,.2,0,0,0,.1-.1.2-.2h0v-.3s0,0,0-.1c0,0,0,0,0,0s0,0,0,0c0,0,0,0,0,0v-.2s0-.2,0-.2c0,0,0,0,0,0,0,0,0,0,0,0-.1,0-.2.1-.3.2,0,0-.1,0-.2.1,0,0-.1,0-.2.1,0,0,0,.1-.1.2,0,0,0,0,0,.2,0,0,0,0,0,0,0,0,0,0,0,0,0,0,0,0,0,0,0,0,0,0,0,0,0,0,0,0,0,0,0,0,0,0,0,.1,0,0,0,0,0,.1,0,0,0,.1.1.1,0,0,.1,0,.2,0,0,0,0,0,0,0Z"/>
    <path class="st0" d="M28.2,145.7s0,0,0,0c0,0,0,0,0,0,0,0,0,0,0,.1,0,0,0,0,0,.1,0,0,0,0,0,.1,0,.1,0,.3.1.4,0,0,0,.1,0,.1,0,0,0,0-.1,0,0,0,0,0,0,.2,0,0,0,.1,0,.2,0,0,0,.1,0,.2,0,0,0,0,0,0,0,0,0,0,0,0,0,0,0,.1,0,.2,0,0,0,0,0,0,0,0,0,.1,0,.1,0,0,0,.1.1.1,0,0,0,0,.1,0,0,0,0,0,0,0,0,0,0,0,0,0,0,0,0,0,0,.1h0c0,.1,0,.1,0,.1,0,0,0,0,.1,0s.1,0,.2,0c0,0,.1,0,.2,0s.1,0,.1,0c0,0,0,0,0-.1,0,0,0,0,0-.1,0,0,0,0,0,0,0,0,.1,0,.1,0,0,0,0,0,0-.1,0,0,0-.1,0-.2,0,0,0,0,0,0,0,0,0,0,0,0,0,0,0-.1,0-.2,0,0,0-.1,0-.2,0,0,0,0,0-.1,0,0,0,0,0,0,0,0,0-.1,0-.2,0,0,0-.1,0-.2,0,0,0,0-.1,0,0,0-.1,0-.2,0s0,0-.1,0c0,0,0,0,0,0,0,0,0,0,0,0,0,0,0,0,0,0,0,0-.1-.1-.2-.2Z"/>
    <path class="st0" d="M30.7,154.4s0,0,0,0c0,0,0,0,0,0,0,0,0,0,0,0,0,0,0,0,0,0,0,0,0,0,0,0,0,0,0,0,0,0h0c0,0,.1,0,.1,0,0,0,0,0,.1,0s0,0,0,0c0,0,0,0,0,0,0,0,.1,0,.1,0,0,0,.1,0,.2,0,0,0,0,0,0-.1,0,0,0-.1,0-.2,0,0,0,0,0,0,0,0,0,0,0,0,0,0,0,0-.1,0,0,0,0,0-.2,0,0,0-.1,0-.2,0s0,0-.1,0c0,0,0,0,0,0,0,0-.1,0-.1,0Z"/>
    <path class="st0" d="M31.5,153s0,0,0,0c0,0,0,0,.1,0h.1c0,0,.1,0,.2,0,0,0,.2,0,.3,0,0,0,0,0,0,0,0,0,0,0,.1,0,0,0,.1-.1.2-.2,0,0,0-.1,0-.2,0,0,0,0,0-.1s0,0,0,0c0,0,0,0-.1,0,0,0-.2,0-.2,0,0,0,0,0,0,0,0,0,0,0-.1,0,0,0,0,0-.1,0,0,0,0,0,0,0,0,0-.1,0-.2,0,0,0-.2,0-.3,0,0,0,0,0-.1,0,0,0-.1,0-.2,0,0,0-.2,0-.2,0s0,0-.1,0c0,0,0,0,0,0,0,0,0,.1,0,.2,0,0,0,.1,0,.2s0,0,0,.1c0,0,0,0,0,.1,0,0,0,0,0,.1,0,0,0,0,.1.1h0c0,0,0,0,.1,0,0,0,0,0,0,0,0,0,0,0,0,0,0,0,0,0,0-.1,0,0,0,0,0-.1,0,0,0,0,0,0,0,0,0,0,0,0,0,0,0,0,.1,0Z"/>
    <path class="st0" d="M27.7,153.5s0,0,.1.1c0,0,0,0,.1.1,0,0,0,0,.1,0,0,0,.1,0,.2.1,0,0,0,0,0,0,0,0,0,0,0,0h.2c0-.1.1-.2.2-.3,0,0,0-.1.1-.2,0,0,0,0,.1-.1.1-.2.2-.3.2-.5,0,0,0,0,0-.1,0,0,0,0,0,0,0,0-.2,0-.1-.1,0,0,0,0,0-.1,0,0,0,0,0-.1,0,0,0,0,0,0,0,0,0,0,0-.1,0,0-.1-.1-.2,0,0,0,0,0,0,0,0,0,0,0-.1,0,0,0-.1,0-.2,0,0,0,0,0-.1,0s-.1,0-.2,0c0,0-.1,0-.2.1,0,0,0,0,0,0,0,0,0,0,0,0,0,.1,0,.2,0,.4,0,0,0,.2,0,.3,0,0,0,.2,0,.3,0,0,0,0,0,.1Z"/>
    <path class="st0" d="M26.8,154.1h0c0-.2,0-.2,0-.2,0,0,0,0-.1,0,0,0,0,0,0,0,0,0,0,0,0,0h-.1c0,0-.1,0-.2,0,0,0,0,0,0,.1,0,0,0,.1,0,.2v.2s0,0,0,.1c0,0,0,0,0,0,0,0,0,0,0,0,0,0,0,0,0,.1,0,0,0,.2,0,.2s0,.1,0,.2c.1,0,.2,0,.3,0h0c0-.1.1-.2.1-.2,0,0,0-.1.1-.2,0,0,0,0,0-.1s0,0,0-.1c0,0,0-.1,0-.2Z"/>
    <path class="st0" d="M30.1,155.6s0,0-.1,0c0,0,0,0,0,0h.1Z"/>
    <path class="st0" d="M30,155.3c0,0,0,0,0,0,0,0,0,0,0,0,0,0,0,0,0,0,0,0,0,0,0,0,0,0,0,0,0,.2s0,.1,0,.2c0,0,.1,0,.2,0,0,0,0,0,0,0,0,0,0,0,0-.1,0,0,0-.1,0-.2Z"/>
    <path class="st0" d="M32.4,154.6s0,0,.1,0c0,0,0,0,.1,0,0,0,0,0,.1,0,0,0,0,0,.1,0,0,0,0,0,0-.1,0-.1-.2-.1-.2,0,0,0-.2,0-.3,0s-.2,0-.2,0c0,0-.1,0-.2,0,0,0,0,0,0,.1,0,.1.2,0,.3.1h0c0,.2.1,0,.2,0Z"/>
    <path class="st0" d="M121.8,13.2s.1,0,.2,0c0,0,0,0,0,.1,0,0,0,0,0,.1,0,0,0,0,0,.1,0,0,0,0,0,0s0,.1,0,.2c0,.2.1.2.2.2h.2c0,0,.1,0,.2,0,0,0,.2,0,.2,0,0,0,.2-.1.2-.2,0,0,0-.2-.1-.3,0,0-.1,0-.2,0,0,0-.2,0-.3,0-.1,0,0,0,0-.1,0-.1,0-.2.2-.2,0,0,.2,0,.2-.2,0,0,0,0,0,0,0,0-.1,0-.2,0,0,0-.1,0-.2,0,0,0-.1-.1-.2-.1,0,0-.1,0-.2,0,0,0-.3,0-.2,0,0,0,0,.1,0,.2,0,0,0,0,0,0,0,0,.1,0,.2,0Z"/>
    <path class="st0" d="M116.8,21.9c0,0,0,0,0,0,0,0,0,.1,0,.2,0,.1,0,.2,0,.3,0,.1.2,0,.3,0,.1,0,.2.1.3.1.1,0,.2,0,.3,0,.2,0,.4,0,.6,0,0,0,.1,0,.2,0,0,0,0,0,.2-.1,0,0,.1,0,.2,0,0,0,.1,0,.2,0v-.2c0-.1-.2-.1-.3-.2,0-.1,0-.3-.1-.4,0,0-.2,0-.3,0,0,0-.1,0-.2,0,0,0,0,0-.1.1,0,0,0,0,0,0,0,0,0,0,0-.1,0,0,0-.2-.2-.2,0,0,0,0-.1,0,0,0,0,0-.2-.1,0,0-.1,0-.1,0,0,0,0,0,0,0,0,0,0,0-.1,0s0,0-.1,0c-.1,0,0,0,0,.1,0,0,.1.2,0,.3-.1,0-.2-.1-.3-.1Z"/>
    <path class="st0" d="M120.3,19.2c0,0,0,.1,0,.2,0,0,0,0-.1,0,0,0,0,0,0,0,0,0,0,.2,0,.2s0,.2,0,.2c0,0,0-.2-.1-.3,0-.1,0-.2-.1-.3,0,0-.2,0-.2,0,0,0-.1,0-.1,0,0,0,0,.1,0,.2,0,0,0,.2,0,.3,0,0,0,0-.1,0,0,0,0,0,0,0,0,0,0-.1-.1-.1,0,0-.1,0-.1.1,0,0,0,.1-.1.2,0,0,0,.1-.1.2,0,0,0,0-.1,0,0,0-.1.2-.2.3,0,0,0,0,0,.1,0,0,0,.1,0,.1,0,0,0,0,.1,0,0,0,0,0,0,.1s0,0,0,.1c0,0,0,.1,0,.2s0,.2.1.3c0,0,0,0,.1,0,0,0,0,0,0,0,0,0,0,0,.1,0,0,0,0,0,.1,0,0,0,0-.1,0-.2,0,0,0-.1,0-.2,0,0,0-.3.2-.3.2,0,.1.3.1.4,0,.2,0,.3-.1.5,0,.1-.1.3,0,.4,0,.2.3.2.4.3v.2c.2,0,.2,0,.2,0,0,0,0,0,0,0s0,0,0,0c0,0,.1,0,.2-.1,0,0,0,0,.1,0,.2-.1,0-.3-.1-.5,0,0,0-.2,0-.2,0,0,.1,0,.2,0,0,0,0,0,.1,0,0,0,0-.2,0-.3s0,0,0-.1c0,0,0,0,.1,0,0,0,.1,0,.2,0,.1,0,.2-.1.2-.3,0,0,0-.2,0-.2,0,0,0,0,.1,0,0,0,0-.1,0-.2s0-.1,0-.2c0,0,0,0,0-.1,0,0,0,0-.1,0,0,0,0,0-.1-.1,0,0,0-.2-.2-.2,0,0-.2,0-.3,0s0,0-.1,0c0,0-.1,0-.2,0,0,0,0-.1-.1,0Z"/>
    <path class="st0" d="M109.6,28.8c0,0,0,.2,0,.3s0,.2,0,.2c0,0,.2,0,.2,0h.2c0,0,.1-.1.2-.1,0,0,.2,0,.2,0,0,0,0-.2,0-.3s0-.2,0-.2c0-.1,0-.3,0-.4,0,0,0-.1,0-.2,0,0,0,0,0,0,0,0,0,0,0,0,0,0,0,.1-.2.1,0,0-.2,0-.2,0,0,0,0,.2,0,.2,0,0,0,.2,0,.3,0,0-.1.1-.2.2Z"/>
    <path class="st0" d="M106.6,27.8c0,0,.1,0,.2-.2,0-.1,0-.3-.1-.4,0,0,0-.1-.1-.2,0,0-.1-.1-.2,0,0,0,0,.2,0,.2,0,0,0,0,0,.1,0,0,0,0,0,0,0,.1,0,.3-.2.4,0,0,0,.1-.2.2,0,0-.1.1-.2.2,0,0-.2.2-.2.3,0,0,0,.1,0,.2,0,0,0,0,0,0,0,0,0,.1,0,.2,0,0,0,0,0,.1,0,0,0,0,0,.1,0,0,0,0,0,.1,0,0,.1,0,.2,0,0,0,.1,0,.2,0,0,0,.1,0,.2,0,0,0,0,0,.1,0,0,0,.2,0,.3,0,0,0,.2,0,.3,0h0v-.4s0-.1,0-.1c0,0,0-.2,0-.2,0,0,0-.2.1-.2Z"/>
    <path class="st0" d="M110.3,26.6c0,0,0,.1,0,.2,0,0,0,.1,0,.2,0,.1,0,.2,0,.4h0c.1.2.2.2.4.1.1,0,.3-.1.3-.3,0-.1,0-.3-.1-.4,0,0-.1,0-.2-.1,0,0,0-.1,0-.2,0,0,0-.1-.1-.2,0,0-.2,0-.2,0,0,0-.2,0-.2,0,0,0,0,.1,0,.2Z"/>
    <path class="st0" d="M108.7,26c0,0,0,0,.1.1,0,0,0,0,0,0,0,0,0,0,0,0,0,0,0,0,.1,0,0,0,0,0,0-.1s0,0,0,0c0,0,0,0,0-.1,0,0,0,0,0,0,0-.1,0-.5.2-.4.2,0,.2.3.1.5,0,0-.2.4,0,.4,0,0,.1-.1.2-.2,0,0,.1,0,.2,0,0,0,.1,0,.2,0,.1,0,0,0,.2-.2h0c0-.2,0-.3-.1-.4,0,0,0-.2,0-.2,0,0,0-.2,0-.3,0,0,0-.2,0-.2s0-.1,0-.2c0,0,0-.2,0-.3,0,0,0-.1,0-.2,0,0,0,0,0-.1,0,0,0,0-.1,0,0,0-.1-.1-.2-.1,0,0,0,0,0,0,0,0-.1,0-.2,0-.1,0-.2,0-.2,0,0,0,0,.1,0,.2,0,0,0,0,0,.1,0,.1,0,.2-.1.2-.1,0-.2,0-.2.2,0,.2-.1.4-.1.6,0,0,0,.2,0,.3s0,0,0,.1c0,0,0,0,0,.1,0,0,0,0,0,.1Z"/>
    <path class="st0" d="M103.9,26.3c0,0-.1,0-.2,0-.1,0-.2,0-.2.2,0,0,0,0,0,.1,0,0,0,0,0,.1,0,0-.1,0-.1,0,0,0,0,.1,0,.2,0,0,0,.1.1.2,0,0,0,0,0,0s0,0-.1,0c0,0,0-.1-.1-.1,0,0,0,0-.1,0,0,0,0,0-.2,0-.3-.1-.4,0-.5.3,0,0,0,.2,0,.3,0,0,.2,0,.3,0s.1,0,.2,0c0,0,0,0,0,.1,0,0,0,0,0,.1,0,0,0,.2-.1.2-.1,0-.2-.2-.3-.2,0,0-.3-.1-.3,0,0,.1,0,.3,0,.4,0,.1.2.2.3.2.1,0,.2,0,.3,0,.1,0,.2.1.3.3,0,0,0,.2.1.2,0,0,0,.1.1.2,0,0,.2.1.3.2.1,0,.3,0,.4,0,0,0,.2,0,.3,0,0,0,.1,0,.2,0h.1c0-.1,0-.2,0-.3,0,0,0-.2,0-.2,0,0,0-.2.2-.2,0,0,0,0,0-.1,0,0,0,0,0-.1,0,0,0-.2,0-.2s0-.2,0-.2c0,0,0-.2,0-.2,0,0,.2,0,.3,0,0,0,.2-.1.2-.2,0-.1.1-.2.1-.4,0,0,0-.5-.1-.4,0,0,0,0,0,.1,0,0,0,.1,0,.1,0,0,0,0,0,0,0,0,0,0,0-.1,0-.1,0-.2.1-.3,0,0,0-.2,0-.3,0,0,0,0-.1,0,0,0,0,0-.1,0-.1,0-.2,0-.3.1,0,0,0,0-.1.2,0,0,0,.1,0,.2,0,0,0,.2,0,.3,0,0-.1-.2-.1-.2,0,0,0,0,0-.1,0,0,0,0-.1,0-.1,0-.1-.1-.1-.2s0-.2,0-.2c-.1,0-.1.1-.2,0,0,0,0,0-.1-.1Z"/>
    <path class="st0" d="M104.9,25.9s0,0,.1,0c0,0,0,0,.1,0,0,0,.2,0,.2,0,0,0,.1,0,.1-.1,0-.1,0-.2-.1-.3,0,0,0,0,0,0,0,0,0,0,0,0,0,0,0,0-.1-.1,0-.1-.1-.2-.3-.2-.2,0-.2.2-.3.3,0,0,0,.2,0,.3h0c.1,0,.2,0,.3,0,0,0,0,0,.1,0Z"/>
    <path class="st0" d="M105.3,24.6c0,0,.1,0,.2.1,0,0,.1,0,.2.1,0,0,0,.2,0,.2,0,0,0,0,0,0,0,0,0,0,0,0,0,0,.1.1.2.1,0,0,0,.2,0,.3s0,.2,0,.3c0,0,0,.2.1.2h0c.2.1.3.1.5.1h.2c0,0,.2,0,.2,0,0,0,0-.1,0-.2,0,0,.1,0,.2-.1,0,0,.2,0,.2,0,0,0,0-.1,0-.2,0,0,0-.1-.2-.1,0,0-.2,0-.2-.2,0,0,0-.1,0-.2,0,0,0-.2,0-.3,0,0-.1-.1-.2-.1,0,0,0,0-.1,0,0,0,0,0,0,.1,0,0,.1.5,0,.4,0,0,0,0-.1,0,0,0,0,0-.1-.1,0,0,0-.2,0-.3,0,0,0-.2-.1-.2,0,0,0,0,0,0,0,0,0,0-.1,0-.1.1,0,.4-.1.4,0,0-.1-.2-.1-.2,0,0,0,0,0-.1,0,0,0,0,0-.1,0,0-.1,0-.2,0,0,0,0-.1,0-.2,0-.2,0-.3,0-.4,0,0-.4-.2-.4,0,0,0,0,.2,0,.3,0,.1,0,0-.2.1-.2.1,0,.3.1.4Z"/>
    <path class="st0" d="M103.1,25.8c0,0,.1,0,.2,0,0,0,0,0,0,0,0,0,.2.1.2,0h0s0-.1.1-.2c0,0,0,0,.1,0,0,0,0,0,.1,0,.1,0,0-.3,0-.4,0,0,0-.2,0-.3,0,0-.1,0-.1-.2,0-.2,0-.3,0-.5,0,0,0,0-.1-.1,0,0,0,0-.1,0,0,0,0,0,0,0,0,0,0,0-.1,0,0,0,0,.1,0,.2s0,.2,0,.2c0,0,.2,0,.2,0,.1,0,0,.1,0,.2,0,0-.1.1-.1.2,0,0,0,0,0,.1,0,0,0,0,0,.1,0,0,0,0-.1-.1,0,0,0,0,0,0,0,0,0,0-.1,0,0,0,0,0,0,.1,0,0,0,0,0,0,0,0,0,0,0-.1,0,0,0,0,0-.1,0,0,0-.1,0-.1,0,0,0,.2,0,.3,0,.2,0,.2.2.2Z"/>
    <path class="st0" d="M92.4,40.9s0,0,.1,0c0,0,0,0,0,0h.2c0,0,0,0,.1.1,0,0,0,0,.1.1,0,0,.1,0,.2,0,0,0,0,0,.1,0,0,0,0,0,0,0,0,0,0,0,0,0,0,0,0,0,.1,0s.2,0,.2,0c0,0,0-.1,0-.2,0-.1,0-.2,0-.4,0,0,0-.1-.2-.1,0,0,0,0-.1,0,0,0,0,0,0-.1,0,0,0-.1-.1-.1s-.1,0-.2,0c0,0-.1,0-.2,0,0,0-.1,0-.2,0,0,0-.1-.1-.2-.2,0,0-.1,0-.2,0,0,0,0,.1,0,.2s0,.2,0,.2c0,0,0,.1.1.2Z"/>
    <path class="st0" d="M96.1,42.4c0,0-.1-.1-.2-.2,0,0,0-.1,0-.2,0,0,0,0,0-.1,0,0,0,0,0,0,0,0,0,0,0,0,0,0,0,0,0,0-.1,0-.3.2-.3.3,0,.2,0,.4-.1.6,0,0,0,.1-.1.2,0,0,0,.2-.1.2,0,0,0,.1,0,.2,0,0,0,0,0,.1,0,0,0,0,0,.1,0,0,.1,0,.1,0,0,0,.1,0,.2-.1,0,0,0,0,.1,0,0,0,.1,0,.2,0,0,0,0,0,.1,0,0,0,.1,0,.2,0,.1,0,.3,0,.4,0h.1c0-.2,0-.2,0-.3,0,0,0-.1,0-.2,0,0,0-.1,0-.2,0,0,0-.1-.2-.2Z"/>
    <path class="st0" d="M96.4,42.4s0,0,.1,0h.1c0,0,.2,0,.2-.1,0,0,0,0,0,0,0,0,0,0,0-.2,0,0,0,0,0-.1,0,0,0,0,.1-.1,0,0,.1-.1.1-.2s0-.1-.1-.2c0,0,0-.2-.2-.3,0,0-.1-.1-.3-.1,0,0-.2,0-.3,0,0,0,0,0,0,0,0,0,0,0,0,.1,0,.1.1.2.2.4,0,0,.1.2,0,.2,0,0,0,0-.1,0,0,0-.1,0-.2-.1,0,0-.1-.1-.1-.2,0,0,0-.2,0-.3,0,0,0,0,0-.1,0,0-.1,0-.1,0-.1,0,0,.2,0,.3,0,0,0,.1,0,.2,0,0,0,0,0,0,0,0,0,0,0,.1,0,0,0,.1.1.2,0,0,0,0,0,.1,0,0,0,.2,0,.3,0,0,0,0,0,0,0,0,0,0,0,0Z"/>
    <path class="st0" d="M97.6,39.4c0,0,0-.2,0-.3s0,0,0-.1c0,0,0,0,0-.1-.2,0-.3.1-.5.2,0,0,0,0-.1,0,0,0,0,0-.1,0,0,0,0,.2,0,.3,0,.2-.2.4-.2.6,0,0,0,0,0,.1,0,0,0,0,.1,0,0,0,0,0,.1-.1,0,0,0,0,0-.1h0c0-.1,0-.2,0-.3,0,0,.2,0,.3-.2Z"/>
    <path class="st0" d="M100.5,31c0,.2.2.1.3,0,0,0,.1,0,.2,0,0,0,.1,0,.2,0,0,0,.1,0,.2,0,0,0,.1,0,.2,0,0,0,.1,0,.2,0,0,0,0-.2,0-.3h0s0,0,0,0c0,0,0,0,0-.1,0,0,0-.1,0-.2,0-.1,0-.3,0-.4,0,0,0,0,0,0,0,0,0,0-.1,0,0,0-.1,0-.2.2,0,0,0,.2,0,.3,0,0,0,.2-.1.2,0-.1,0-.4-.3-.3,0,0,0,0-.2,0,0,0-.1-.1-.2,0,0,0,0,.1-.1.2,0,0,0,.1,0,.2,0,0,0,.1,0,.2,0,0,0,.1,0,.2Z"/>
    <path class="st0" d="M101.2,29.7s0,0,.1,0c0,0,.1,0,.2,0,0,0,0-.1,0-.2,0,0,0-.2,0-.2,0,0-.1,0-.2,0,0,0-.2,0-.2.1,0,0,0,.1,0,.2,0,0,0,.1,0,.2h0s0,0,0,0Z"/>
    <path class="st0" d="M101.9,27.3h.1c0,0,0-.1,0-.2,0,0,0-.1.1-.2,0,0,0,0,0,0,0,0,0,0,.1,0,0,0,.1,0,.2,0,.2,0,.3,0,.4-.3,0,0,0-.2,0-.3s0-.2,0-.2c0,0-.1.1-.2.2,0,0,0,.2-.1.2,0,0-.1,0-.2,0s0,0-.1,0c0,0,0,0,0,0,0,0,0,0,0-.1,0,0,0,0,0,0,0,0,0-.1-.1-.2,0,0-.1,0-.2,0,0,0,0,.2,0,.2s0,.2,0,.2c0,0,0,0,0,0,0,0,0,.1,0,.2,0,0,0,.2,0,.2s0,0,0,.1c0,0,0,0,0,.1Z"/>
    <path class="st0" d="M94.8,39.4c0,0,.2,0,.2,0,.1,0,.1-.2.3-.2,0,0,.2,0,.3,0,0,0,.2,0,.3,0,0,0-.2.2-.2.2,0,0,0,.2,0,.3,0,0,0,.2,0,.2,0,0,0,0,.1,0,0,0,0,0,.1,0,.1,0,.2,0,.3,0,.1,0,.2,0,.2-.2,0-.2-.2-.2-.3-.3,0,0,0-.1,0-.2v-.2h0c0-.1.2-.2.3-.3,0,0,.2-.2.2-.3,0,0,0,0,.1-.1,0,0,0,0,0-.1,0-.1.1-.2.2-.3,0,0,0,0,0,0s0,0,.1,0c0,0,.2,0,.3,0,0,0,0,0,0,.1s0,0,0,.1c0,0,0,0,0,0,0,0,.1,0,.1,0,.1,0,0,.2.2,0,0,0,.2,0,.3-.1.2,0,.3,0,.5,0,0,0,.2,0,.2,0,0,0,0,0,.1,0,0,0,0,0,.1,0,0,0,0,0,0,0,0,0,0,0,0-.1,0,0-.2-.1-.3-.2,0,0-.3,0-.2-.2,0-.1.2-.1.3-.2,0,0,0-.2,0-.3s0,0,0-.1c0,0,0,0,0-.1h0c0-.1,0-.2,0-.3s0-.2,0-.3c0-.1.2,0,.2-.1,0,0,.1-.2.2-.2,0,0,.1,0,.2,0,0,0,0,0,0-.1s0,0,0-.1c0,0,0,0,0-.1,0,0,0-.2,0-.3,0-.1,0-.2,0-.3,0,0,0,0-.1,0,0,0,0,.1,0,.2,0,0,0,0,0,.1,0,0,0,0-.1,0-.1,0-.2,0-.3.1,0,0-.1,0-.1,0,0,0,0,0,0-.1,0-.1,0-.2,0-.3,0,0,.1,0,.2,0,0,0,.1,0,.2,0,0,0,0,0,.1,0,0,0,0-.1,0-.2,0-.1,0-.2.1-.3,0,0,0-.1,0-.2,0-.1-.2,0-.2-.2,0,0,0,0,0,0,0,0,0,0-.1,0,0,0,0,0,0,.1s0,0,0,.1c0,0,0,0,0,.1,0,0,0,0,0,0,0,0,0,0,0,0,0,.1-.1.2-.2.3-.1,0-.1,0-.1-.2,0,0,0-.1,0-.2,0,0,0-.1,0-.2,0,0,.1-.2.2-.3,0-.1,0-.2,0-.4,0,0,0-.3-.2-.2,0,0,0,0-.1.1,0,0-.1,0-.2.1,0,0,0-.1,0-.1,0,0,0,0,0-.1,0,0-.2-.2-.3-.1,0,0,0,0,0,.1,0,0,0,0,0,.1,0,.1,0,.2,0,.3,0,.1.1.4-.1.4-.1,0-.2-.2-.2-.3,0,0,0-.2,0-.2,0,0,0-.1,0-.2h0s0,0,0-.1c0,0,0,0-.1,0,0,0,0,0,0,0,0,0,0,0,0,0,0,0-.1-.1-.2,0,0,0,0,.2,0,.2,0,0,0,0,0,.1,0,0,0,.1.1.2,0,0,0,.1.1.2,0,0,.1,0,.2.2,0,0,0,0,0,.1,0,0,0,0,0,.1,0,0,0,.1,0,.1,0,0,0,0,0,0,0,0,0,0,0,0,0,0-.2,0-.2,0,0,0-.2,0-.2-.1,0,0,0-.2,0-.2,0,0,0,0,0,0,0,0,0,0-.1,0,0,0-.2-.1-.2-.2,0-.1-.2-.3-.3-.4,0,0-.1,0-.2,0,0,0,0,.2,0,.3,0,0,0,.2.1.2,0,0,0,0,0,.2,0,0,0,0,0,.2s0,.1,0,.2c0,0,.1,0,.2,0h.2c0,0,.2,0,.2,0,0,0,0,.1,0,.2,0,0,0,.1.1.2,0,0,0,0,.2,0,0,0,0,.1,0,.2,0,.1,0,.1-.2.1-.1,0-.2,0-.2,0,0,0-.2-.2-.2-.3,0,0,0,0-.2,0-.1,0-.2,0-.3-.1,0,0,0,0,0,0,0,0,0,0-.1,0,0,0-.1,0-.2,0,0,0-.2,0-.3,0,0,0-.2.1-.2.2v.2c0,0-.1,0-.1,0,0,0,0-.1,0-.1s-.1,0-.2,0c0,0,0,0,0,0,0,0,0,0-.1,0,0,0-.1,0-.2,0,0,0-.1.1-.1.2,0,0,0,.1,0,.2,0,0,0,.1,0,.2,0,.1,0,0,.1,0,0,0,0,0,.1,0,0,0,0,0,0,0,0,0,.1,0,.2,0,0,0,.1,0,.2,0,0,0,.1,0,.2,0,0,0,0,.1,0,.2,0,0,0,0,0,0,0,0,0,0,0,0,0,0,.2,0,.2,0,0,0,.2.1.2.2,0,0-.2,0-.3,0,0,0,0,0-.1,0,0,0-.1,0-.2,0,0,0,0,0,0,0,0,0-.1,0-.1,0,0,0-.2,0-.3,0-.1,0-.2.1-.2.3,0,.2.2.2.3.2s.1,0,.1,0c0,0,0,0,0,.1,0,0,0,0,0,0,0,0,.1,0,.2,0,0,0,.2,0,.3-.1,0,0,.3-.1.3,0,0,0,0,0-.1.1,0,0,0,0,0,.1,0,0,0,.1,0,.2,0,0,0,.1-.1.1-.1,0-.2,0-.3,0-.1,0-.2,0-.3,0-.1,0-.2.1-.3.2,0,0,0,.2,0,.2,0,0,0,.1,0,.1.1,0,.2,0,.4,0,0,0,.2,0,.3,0,0,0,.1,0,.2,0,0,0,0,0,.1,0s0,0,.1,0c0,0,0,0,0,.1,0,0-.1.1-.1.2,0,0,0,.1,0,.1,0,0-.2,0-.2,0h0s-.1,0-.1,0c0,0,0,0,0,0,0,0,0,0-.1,0,0,0,0,0,0,.1,0,0,0,.2,0,.2,0,0,0,0-.1,0,0,0-.1,0-.2,0-.1,0-.1.2-.1.3,0,.1,0,.2,0,.3s0,.2,0,.2c.1,0,.2,0,.3,0Z"/>
    <path class="st0" d="M99.8,33c0,0,.1.1.2.2,0,0,0,.1.1.1,0,0,.2,0,.2,0,.1,0,.2,0,.3,0,0,0,.2,0,.2,0,0,0,.2,0,.2,0,.1,0,.3,0,.4-.1,0,0,.1,0,.2,0,0,0,.1,0,.2-.2,0,0,0-.1.2,0,0,0,.1,0,.2,0s.2,0,.3,0c0,0,.1-.2.2-.2,0,0,0-.2,0-.3s0,0,0-.1c0,0,0,0,0,0,0,0-.2,0-.2-.1,0,0,0-.2,0-.3,0-.2.2-.3.3-.3h0c0-.1.2-.2.3-.3,0,0,0,0,0-.1,0,0,0,0,0,0s0,0,0-.1c0,0,0,0,.1-.1,0,0,.1,0,.2-.2,0,0,0,0,0-.1,0,0,0,0,0-.1,0,0,0,0,0-.1s0,0,0-.1c0,0,0-.1,0-.2,0,0,0,0-.1-.1,0,0,0-.1-.1-.2,0,0-.2-.1-.3-.1,0,0-.2,0-.3,0,0,0-.2-.1-.2-.2,0,0-.2-.3-.2-.2,0,0,0,.2-.1.2,0,0-.2,0-.2,0,0,0,0,0,0,.1,0,0,0,.1,0,.2,0,0,0,0,0,0,0,0,0,0,0,.2,0,0,.2.2.2.3,0,0,0,0,0,.1,0,0,0,.1,0,.2,0,0,0,.1,0,.2,0,0,0,.1,0,.2,0,0,0,0,0,.1s0,.1,0,.1c0,0,0,0,0,.1,0,0,0,0,0,.1,0,0,0,0-.1,0,0,0,0-.1-.2-.1,0,0,0,0-.1,0,0,0-.1,0-.2,0s-.1,0-.2,0c0,0-.1,0-.2,0,0,0-.1,0-.2,0,0,0,0,0-.2,0-.1,0-.2,0-.3,0h0s-.1,0-.1,0c0,0,0,.1,0,.2s0,.1,0,.2c0,0,0,.2.1.3,0,0,0,.1.2.1,0,0,.1,0,.2,0,.1.1-.1.3-.2.4,0,0,0,0-.1,0s-.1,0-.2-.2c0-.1-.2-.2-.3-.1,0,0-.1,0-.2.1,0,0-.1,0-.1,0,0,0,0,0,0,0,0,0,0,0,0,.1,0,0,0,.1,0,.2,0,0,0,0,0,.1s0,0,0,0c0,0,0,0,0,0,.1,0,.3,0,.4,0Z"/>
  </g>
</svg>