<?xml version="1.0" encoding="UTF-8"?>
<svg xmlns="http://www.w3.org/2000/svg" version="1.1" viewBox="0 0 129.6 163.4">
  <!-- Generator: Adobe Illustrator 30.5.1, SVG Export Plug-In . SVG Version: 2.1.4 Build 3)  -->
  <defs>
    <style>
      .st0 {
        fill: #475569;
      }

      .st1 {
        fill: none;
        stroke: #fb923c;
        stroke-linecap: round;
        stroke-linejoin: round;
        stroke-width: 1.5px;
      }

      .st2 {
        opacity: .6;
      }

      .st3 {
        fill: #fb923c;
      }
    </style>
  </defs>
  <g id="Layer_2">
    <g class="st2">
      <path class="st0" d="M57.4,44.2h.4c0,0,.4-.2.5-.2.2,0,.2-.3.4-.4,0,0,.3,0,.4,0s0-.3.3-.4h0c0-.3.9-.5,1.1-.8v-.3c0,0,.2-.2.3-.3.2-.2.3-.5.4-.7,0-.2.3-.6,0-.4,0,0-.2.3-.3.4-.2,0-.2,0-.4,0-.3,0-.2.3-.3.5-.2.4-.2,0-.4-.3-.4-.4-.2.5-.4.6-.2,0-.2-.2-.3-.3,0,0,0-.2-.3-.3,0,.2,0,.4,0,.5-.2.2-.3,0-.4-.2-.2,0-.4,0-.4.2s.2.4.3.6c-.2,0-.3,0-.3.2,0,0,0-.3-.2-.4-.2,0-.2.3-.2.5s0,.3,0,.5h.2c-.3.2-.7.2-.6.7,0,.3.2.2.4,0v.4Z"/>
      <path class="st0" d="M62.3,41.2c.7-.4,1.2-.9,1.4-1.7,0-.3.2-.6.4-1h0c.4-.3.8-.7.8-1.2v-.6c-.2-.2-.7.6-.8.8,0-.3.4-.8.5-1,0-.2,0-.3.2-.5,0-.3,0-.5,0-.8s0-.3-.2-.4h-.5c-.6,0-.6.4-.8.8,0,.2-.3.3-.3.5,0,.3.4.3.4.5-.2,0-.5,0-.7,0v.7c0,.2.4.2.6.4-.2,0-.4-.2-.6,0-.2,0-.2.3,0,.5,0,.2.3.3.4.5,0,.3,0,.3-.3.3s-.3.2-.5.3-.4.2-.5.3c-.5.4.3.5.4.7-.2,0-.4,0-.3.3,0,.2.2.2.4.3-.2,0-.5,0-.7,0s-.3.5-.3.7c0,.3-.6,1.3.2,1h0c0-.2.3-.3.3-.5v-.4c0-.1.3-.2.4-.3s0-.2.3-.3Z"/>
      <path class="st0" d="M127.8,17.8c-.2-.3-.5-.5-.7-.9-.1-.3,0-.8-.3-1h-1c-.1-.6-.8-.3-1.2-.1.2.4,1,1.4,0,1.4,0-.6.3-1.8-.7-1.6v-.3c-1,0,.1,1.3-.3,1.8-.8.9-.5-.9-.5-1.2,0-.6-.7-1-1.2-.4-.4.4-.3,1.5-.7,2-.3-.7.7-1.3.4-2-.5.3-.8-.4-.4-.7,0-.1-.1,0-.2,0h0c-.4-.5-1.6-.4-2.3-.5h-.5c-.2,0-.2-.3-.3-.3-.4-.1-.7-.1-1.1.1,0-.1.2-.4.4-.5-.2,0-.3-.2-.5-.2.3-.5,1.7,0,2.2,0,.8,0,1.7.1,2.5,0,.6,0,.9-.2,1.3-.6.2-.1.4-.3.5-.5s0-.5.2-.6c.2-.3.6-.8.9-1,.5-.4,1-.2,1.4-.8.3-.6.1-.7-.2-1.2-.3-.4-.7-1-1.2-.4,0-.5-.8-.4-.9-1h-1.1c-.4.2-.7,1-1.2.6.2-.1,1.1-.7,1.1-1,0-.7-.9-.3-1.2-.6.1,0,.2-.3.3-.3-.9-.9-.9.7-1.5.9-.2-.6.2-1.3-.6-1.1l-.2.3h-.3c-.3.2-.5.5-.8.6,0-.2,0-.4.2-.6h-.3c.1-.1.2-.4.3-.6-.1-.1-.2,0-.3,0h0c-.3,0-.5-.3-.6-.6h-1c-.8-.3-.7.6-.8,1-.2.8-.9,1,0,1.5-.8,0-.4.7-.4,1.3s0,.4.1.7c.2.3.5.2.4.7h-.4c-.3.4-.4.9-.5,1.3-.1-.5,0-1.1.1-1.6-.7.2-.5.7-.8,1.2v-.8c-.4,0-.5.6-1,.6,0-.8,0-.9.6-1.5s.9-.9.7-1.5c-.6-1.3-1.9,2.2-2.4,1,.6-.3,1.5-.9,1.4-1.6-.5,0-.8,0-1.3.2,0-.2-.2-.3-.2-.5.3-.3.6,0,.8-.4.3.4.8.2,1.1,0-.1,0-.3-.3-.4-.4h.7q0-.3.2-.5h-.3c.2-.2.7-1,.5-1.3-.4-.6-.8.1-1,0-.7-.2-.1-.4-.2-.8-.1-.4-.4-.4-.6,0-.2-.4-.4-.3-.5,0,0,0-.1-.1-.1-.2-.1.2-.3.5-.4.7v-.3s-.3.2-.4.3c-.1,0-.1-.2-.1-.3h0c.1-.4,0-.6-.4-.6,0,.3-.3.6-.2.9,0,.4.5.5.3,1-.4-.6-.7-.5-1.4-.5.2.3.4.5.7.7h-.8c0,.6.3,1.6.9.7.7.1.5.5,1,.8-.3.1-.6,0-.9,0,0,.3,0,.7.1,1-1,0-.6,1.4-.2,1.8-1.4,0,0,1.3-.3,1.7-.2.3-.8-.1-1.1,0-.3.2,0,1-.7.7.2.4,0,.9-.5,1,0-.3.1-.8.2-1.1v-1.1c0-1.2-.3-1.4-1.4-.9-.4-.7,1.4-1.2,1.3-2.1,0-.3-.2-.4-.3-.6,0-.2.2-.7.1-.9-.3-.7-.6-.4-.9.2-.5.8-1.3,1.9-1.4,2.8,0,.5.1,1,0,1.5-.2.6-.8.7-.9,1.3h0c-.1.6-.8,1.6-.7,2.1,0,.4.3.3.4.7,0,.4-.2.8-.3,1.1-.9-.2-.2,1.5-.9,1.8-.1-.4-.1-1,0-1.4-.2.6-.7.8-.3,1.5-.7.4-.5-1-.4-1.3,0-.3,0-.5.2-.8s.7-.5.6-.9c0-.3-.5,0-.6-.5,0-.4.5-.3.6-.6.1-.4-.3-1.2-.4-1.7h0c0-1.1,1.2-2.3,1.6-3.2.1-.3.8-1.2.2-1.5-.5-.2-1.1.9-1.4,1.1-.4-.4.3-.6.2-1,0-.2-.7-.4-.9-.4,0,0,.6,2.4,0,2.1-.3-.1,0-.9-.4-1.2-.6-.5-.5.1-.9.4-.6-.3,0-.8,0-1.3-.2.2-.3.8-.6.6-.4-.2,0-.9-.6-.7,0,0,0-.2-.2-.2,0,.6-.3.9-.2,1.4,0,0,.2.4.2.5v.7c-.4-.3-.9-1-1.3-.4-.2.4,0,1.1.3,1.2.4.2.8-.1,1.2.1.4.2.8.9.8,1.4-.7.4-1-1-1.7-.7-.4.1-.3,1.3-.5,1.8.4.2.8.5.8,1.1-.4,0-.6-.5-1-.5s-.6.3-.9.6h0c-.3.7-1.2,1.2-1.1,1.9,0,.5.7.2,0,.6-.3.2-.8,0-.9.5h.9c-.2.3-.6,0-.9.5,0,0,.3.2.5.2-.5.4,0,.6,0,.9,0,0-.5.1-.6.2-.3.5,0,.1.2.4.4.5.4.4,1,.4.3.7-.3.6-.8.5,0,.5-.4,1-1,.8.4-.6,0-.9,0-1.5,0-.3,0-.7,0-.8-.3-.1-.5.3-.8.2.2-.8.8-.9-.3-.9s-1.4-.3-1.6-.1c-.6.6.5.8.6,1.1.2.5-.8.1-1.1.2,0-.5.2-1.4,0-1.9-.3.1-.3.5-.6.6v-.7c0,0-.4.1-.5.3v-.4c-.2.3-.6.5-.6.8.4.2.3.8.3,1.2-.5-.6-1.1-1-1.6-1.7,0,.3,0,.7,0,1,0-.7-.8-.4-1,.1-.2.6.3,1.2.8.8,0,.4.2.5.5.7l.8.4c.4,0,1-.7,1.3-.9.7.5-.5.8-.7,1.2.4.2,1.1-.1.7.5,0,.2-.4,0-.6.2s0,.6-.2.8l-.2-.2c-.9.8-1-1.8-2.1-1-.4.3.4,2.6-.7,2,0,.4-.4,1-.5.3,0-.5.7-.7.4-1.3,0,0,0,.2-.2.3h-.3c-.6.2-.3,1-.5,1.4-.2.3-.6.3-.7.5-.2.3,0,.6,0,.9s-.2.5,0,.8c0,.3.5.7.7.8.4.3,1.3.6,1.2,1.1-.4-.4-.9-.5-1.3-.9-.7-.7-.7-.4-.8.4,0,.3-.2.4-.2.7v.7c0,.2-.4.3-.6.5s-.4.5-.6.6c0-.5.9-1.4,1.1-1.9s0-1.1,0-1.6c0-.9.2-1.9,0-2.8,0-.4-.3-1.5-.8-1.5,0,.4,0,.9,0,1.3,0-.3,0-.6-.2-.8-.5.5-.3,1.4-.7,1.9v-.6c-.2.5-.9,1.4-.7,1.9.3.7,1.2.2,1.5.8-.6.2-1.3-.4-1.6.3-.2.5,0,1.3-.3,1.7-.5-.4-.2-1.5,0-2,.2-.6,0-1.4,0-2.1-.2-1-1,0-1.5.3-.3.1-.5.1-.7.3-.2.2-.2.5-.3.7h0c0,.4-.6.7-.5,1.1,0,.4.7.5.7.9s-.2.3-.2.6l.5.5c.2.2,0,.2.3.3h.6c.3.2.4.6.5.9.3.5.7.6,0,.8-1.7.5,0-1-.7-1.4-.6-.3-.9.3-1.3-.4v-.3s-.2,0-.3-.2v-.7c-.4,0,0-.5-.3-.6-.2,0-.6.3-.7.4-.3.2-1.5.4-.7.9l-.2.2c0,.2.5.3.7.4.2.2.3.5.6.6.6.2.9,0,1.4.4-.3.3-.6,0-.9,0h-.5c-.2.2,0,.2,0,.3s.3.2.3.4c0,.3-.3,0-.4,0-.4-.3,0-.7-.3-1.1-.7.2,0,1.2-.3,1.6-.3-.3-.2-.8-.2-1.1q0-.5-.2-.8c0,0-.2-.2-.4-.3,0,0,0-.3-.2-.4-.4-.2-.6,0-.7.4,0,.3,0,.7-.2,1.1-.2.3-.5.5-.5.9s.3.4.4.7v.5c0,.2.3.3.3.5,0,0-.3-.2-.5-.2s-.5.3-.7.4c-.3.2-.9.2-1,.6h.2c-.2.4-.5.7-.7,1.1h0c.5.3-.4.5,0,.9.2.2.7-.3.9-.4,0,.5.7.3.6.8,0,.4-.7.3-.5,0-.3-.2-1.1,0-.9.6,0,.4.9.3,1.1.5,0,0,.4.2.4.4,0,.5-.2,0-.4,0-.5,0-.8-.3-1.3-.6-.2.3-.5.5-.8.8,0,0,.3,0,.4,0,.2,0,.3,0,.4.2.2,0,.9.4.6.6-.4.3-.6-.4-.7-.5-.2,0-.8-.2-1,0-.6.4,0,.5,0,.9,0,.4-.7,0-.8-.3,0,0,0-.3-.2-.4-.2,0-.3.2-.5.2h-.6c-.2,0-.2.3-.4.4-.7.2-.2-.4,0-.7,0-.3-.2-.2-.2-.6s.2-.6.2-.8c-.2,0-.3-.2-.3-.4-.4.2-.3-.2-.6-.3h0c-.6,0-.3-.5-.7-.6-.2.4.4.7.4,1-.5,0-.7-.6-.9,0,0,.5.2.6.3.9-.8.3-.3.5-.3,1.2v.2c-.5,0-.4-.6-.9-.2-.3.3-.4.6-.4,1s-.2.6-.4.9c-.2.4-.7.5-.9.9-.2.4-.5.6-.8.9.3.3.6,0,.9,0,0,0,0,.3.3.4q.2,0,.3-.2c0-.2.2-.2.3-.4,0-.2,0-.3,0-.5,0,0,0,0,0-.2v-.2s0,0,.2-.2v-.5c0,.2,0,.6,0,.9v.5c0,0,0,0,.2-.2,0,0,.2,0,.2,0,.2,0,.2-.3.2-.5s.3-1,.5-1h0c0-.4.5-.5.8-.4,0,0,.3,0,.5,0,0,0,0-.3.2-.4.2-.4.5,0,.6.3,0,.5-.5,0-.5.5s.3.3.3.5v.5c.2,0,.2-.6.5-.4.2,0,0,.2.3,0h.4c.3,0,.2-.2.5-.5s.4,0,.6,0c0,0-.3,0-.3.2s0,.3.2.2c0,0,0-.2.3-.2h.4c.2,0,.5-.3.7-.5s.5-.4.8-.5h0c0,.3-.2.5-.2.7,0,.3.2.2.4.2s.4.2.6.3c.2,0,.4,0,.6.2-.4,0-.7,0-1.1,0-.2,0-.6-.2-.9,0,0,0,.2.3.2.4-.3,0-.6,0-.8.2,0,.2,0,.7,0,1,.2.3.5.4.5.8v.8c-.2,0,0-.7,0-1,0-.2-.3-.3-.4-.5s0-.4,0-.6c0-.6-.5-.4-.8,0-.3.3-.5.4-.9.3h0c0-.3,0-.4-.2-.5,0,0-.2,0-.3,0,0,0,0,0-.3-.2h-.7c-.2,0-.3.3-.5.2,0,.2-.3.2-.4.3-.2.2,0,.2,0,.3,0,.2.2.3.5.4.2,0,.3,0,.5,0,.4.3.3.6.5,1,.2.3.7.4.7.8-.2,0-.4,0-.6-.2,0,0,0-.2-.2-.2s-.2,0-.3-.2c0-.2,0-.5,0-.7s-.4-.2-.6-.3h0c0,0,0,0-.2,0-.2,0,0,0-.3-.2h-.3c0,0,0-.2-.2-.2-.3,0-.2.5,0,.7s0,0,.2,0h.2s0,0,0,0,0-.2.3,0l.2.2c0,0,.2.2.3.3,0,0,.3.2.3.3h-.3c0,0,0,.2,0,.3s-.5,0-.6.2c-.2,0,0,.5.2.5.3,0,.2-.4.6-.3,0,0,.2.2.3.2h.3c.2,0,.6.3.3.4,0,0-.5,0-.6,0,0,0,0-.2-.3-.2s-.3.2-.3.3v.4c0,0,.2,0,.3.2.2,0,0,.3,0,.4s.2,0,.3.2h0s0,.2-.2.2v.5c-.2.2-.2-.2-.3-.3,0-.2-.2-.3-.3-.5,0-.2-.2-.4-.3,0v.6c0,.2,0,.3.2.5.3.2.7.4.8.8,0,0-.4-.2-.5-.3-.2-.2-.3-.2-.5-.3-.4-.3,0-.8-.3-1.2,0-.2-.3-.4-.3-.6v-.6c0-.3,0-.8-.2-1.1s-.3-.2,0-.6c.2-.3,0-.4,0-.6h0c-.2,0-.4,0-.5,0,0,.2,0,.3,0,.5-.2,0-.3,0-.2.3,0,.2.2.3.2.5,0,.3,0,.2-.3.3,0,0-.2,0-.4.2,0,0-.3.4-.4.4-.2,0-.2-.2-.2-.4.2,0,.3,0,.4-.3v-.5c0-.3-.2-.4-.3,0,0,.2,0,.4,0,.5,0,0-.4.4-.5.3,0,0,.2-.4,0-.5-.2-.3-.5.7-.6.8h0c0,0-.4.5-.3.7,0,.3.4.2.6,0,0,0,.2-.3.3-.3.2,0,.2,0,.4,0s.2,0,.3,0c.2,0,0,.2.3.2s.4-.3.7,0c0,0,.2.2.2.4s0,0,0,.3h0v.2s0,.2-.3.2,0-.5-.5-.5-.3,0-.4.2c-.2,0,0,0-.4.2-.2,0-.6.3-.8.3h0c-.2,0-.2,0-.3.2-.2.2-.3,0-.5,0h-.4c0,0-.2,0-.3,0s-.8.2-.8.3c0,.4.6,0,.8,0s.3,0,.4,0c0,.2,0,0-.2,0-.3,0-.4.2-.7.3h-.3c-.2.2,0,.2,0,.3,0,0,0,.2,0,.3h.4c.2,0,.3,0,.4.2q0,.2-.2.2c-.3,0-.7,0-1,.2,0,.2.4.2.5.2-.2,0-.5,0-.5.3s.3.3.5.4q.3,0,.5,0c.2-.2.3-.3.6-.4.4-.2.6-.5.9-.8,0,0,.3-.3.4-.5,0-.2,0-.4,0-.6,0-.2.2-.2.2,0,0,0,0,0,0,.2,0,0,0,.2,0,.3s.3.3.5.4c.2,0,.3,0,.5.3s.3.3.6.4c0,0,.4,0,.4.2s-.5.2-.6,0c-.2,0-.3-.3-.4-.4-.2,0-.3-.3-.6-.3s-.5,0-.5.2c0,.5.8.2,1,.7-.2,0-.2,0-.3,0h-.2c-.2,0-.4,0-.6-.3,0,0-.4-.5-.5,0,0,.2,0,.3.3.3,0,.2-.9.3-.6.7,0,.2.4,0,.6,0,0,0,.3.4.3.6-.2,0-.3-.4-.5-.4s-.2.2-.2.4h0c.2.5.5.5.8.5s.4.2.5,0c0,0,.3-.3.4-.4.2,0,.8-.5,1-.5s.2.2,0,.3c0,0-.3,0-.4.2-.2,0-.3.3-.5.5-.2,0-.5.2-.5.4h.3s-.2.2-.2.3c0,.2,0,0,.2.2,0,0,.2.3.2.5s0,.4,0,.5c-.2,0,0,0-.2-.2q0-.2,0-.3c-.2-.2-.2-.3-.3-.6,0-.2,0-.4-.4-.5h-.6c-.3,0-.2.6-.5.8-.4-.3.3-.9.3-1.3-.2,0-.5.2-.7.3-.2,0-.4.2-.6.3-.2-.2.4-.3.5-.5,0-.2-.2-.5-.3-.5-.3,0-.4.2-.6.4s-.4.2-.6.4-.4.4-.3.5c0,.3.5,0,.7,0h.8c0,.2,0,.2-.2.2,0,0-.3.5-.5.6-.3,0,0-.5,0-.7,0,0-.2,0-.3,0h-.3c-.4,0-.3.2-.4.5h0c0,0,0,.3,0,.3,0,.2,0,0-.3.2-.2,0,0,0-.3.2,0,0,0,.2-.3.3,0,0-.7.3-.6.5,0,.2.5,0,.7,0h.9c0,0,.2-.2.4-.2h1.5c.2,0,.3-.2.5-.2s.4,0,.5.2q.2.2.3.4c0,0,0,.5.3.2,0,.2.6.3.7,0h0c.2,0,.3,0,.5,0,0,0-.3,0-.3.2v.4c0,.2,0,.5-.2.7-.2.4-.2.2-.2,0s0-.5-.3-.7c0,0-.2,0-.4,0-.2,0,0-.2-.3,0,0,0,0,.2-.3,0-.2,0,0-.3-.4-.2-.3,0-.4.4-.4.6s0,.6,0,.6c-.3,0,0-.7,0-.9v-.4c0,0-.3,0-.5,0h-.7s0,.3-.2.3h-.4c0,.4-.6.3-.7.4-.2.2-.4.6-.5.8h.4c0,0,.2.2.3.2.2,0,.4,0,.6,0s.4,0,.4.3c0,.5-.2,0-.3,0s-1.2-.4-1.3-.3v.6c0,.2-.3.5-.5.4,0,0,0-.4-.2-.5h0v-.3h0v-.3h0v-.2h0v-.3c0-.1,0,0,0,0h0v-.5s-.2,0-.2,0c0,0,0,.2,0,.2v.2h0c0,0,0,0,0-.1h0c0,0-.2,0-.2,0,0,0,0,.2,0,.3v.2h0v.2h.3c0,.2,0,.3,0,.4v.2h0s0,.3-.2.4c0,0-.3.2-.3.4h0c0,.2-.4.6-.5.3,0-.2.7-.4.3-.7-.2-.2-.4.2-.6.2h-.4c0,0,0,.2,0,.3,0,0-1.4.3-.9.6h.4s0,.3,0,.3c0,.2.3.4.6.6.3.3.4.2.8.2s0,.3-.3.2c-.5,0-.9-.4-1.4-.3-.3,0-.6.3,0,.4.2,0,.7,0,.8.2,0,0-1.3,0-.8.5.2,0,.4,0,.6-.2h.6c.2,0,.5,0,.3.2-.2,0-.4,0-.6,0-.3,0-.8.5-1.1.2,0,0,0-.2,0-.3h-.3s0,0,0,0h-.2c0,0-.2,0-.3,0h0c-.2,0-.4,0-.5,0,0,0,.3,0,.4,0,0,0,0,.2,0,.2h.2c.3,0,.9,0,.9.5-.3,0-.3,0-.6,0h-1.2c-.2.2.3.2.4.2h.3c0,.2,0,0-.2.2-.2,0-.4.2-.4.5v.3q0,.2.3,0c0,0,0-.2.3-.2h.4c.4,0,.4-.5.7-.6.2,0,.6,0,.7.2,0,.2-.8,0-.8.5s.7.4.6.8c-.2,0-.3-.3-.4-.4,0,0-.3,0-.5,0-.3,0-.8,0-1,.3,0,.2,0,.3,0,.3,0,0,.3,0,.4.2,0,0-.4.3-.6.3-.3,0,0-.4-.2-.6,0-.5-.8-.8-1.1-.2.2.2.5.3.7.6-.3.3,0,.5,0,.9s-.7.3-.7.6v.2c0,.2.3,0,.5,0,0,0,.2,0,.3.2h.6c0,0,.2-.2.4-.2s.5,0,.6,0c.2,0,0,.2.2.3,0,0,.2.2.2.2v.2c0,0-.2.3,0,.3,0,0,.5-.2.6-.2h.7s.2,0,.3,0c0,0,0-.3.2-.4,0,0,.3,0,.4,0,0,0,.2,0,.4,0,0,.2-.2.3-.3.4,0,0-.2.3-.4.3s-.3,0-.4.2c-.2,0-.3.4-.6.4,0-.2,0-.3-.2-.3,0,0-.4,0-.5,0v.5h.5c.3.3-.5.2-.6.3,0,0,0,.4-.3.5-.2.2-.3,0-.3,0s.6-.7.2-.8c-.2,0-.4.2-.4,0s.4-.2.3-.4c0-.2-.9,0-1,0-.4,0-.5.5-.9.7s-.8.2-1.2.3c-.2,0-.4,0-.6,0s-.3.4-.4.5h0s0,0,0,.2c0,0,0,0,.2,0,.2,0,.3.2.5.2.4,0,.6-.3,1-.2h0c-.4,0-.3.3-.4.6,0,.3-.3.4,0,.7.2,0,.5,0,.6.3v.8l-.4-.4c0-.2,0-.4-.2-.4h-.3c-.2,0-.2,0-.3-.3-.2-.2-.2-.4-.5-.2-.2,0-.4.4-.6.6s-.2.3-.2.6,0,.2,0,.3c0,0,.2,0,.3,0,0,0,0,.5,0,.6,0-.4-.3,0-.4,0q-.2.3,0,.6c.2.3,0,.3.2.6,0,.3.5.3.5.5-.3,0-.4,0-.5-.3,0,0,0-.3-.2-.4,0,0-.2,0-.3-.3,0,0,0-.2,0-.4-.2,0-.2,0-.3,0-.2,0-.5.4-.5.7h0v.7c0,.2,0,.4,0,.6.4,0,.4-.7.7-.6.4.2-.3.7-.3.8,0,0,.7-.2.7,0s-.8.4-.3.6h.3v.2h.2c.7.2-.2.2-.3.3,0,0,.2.3,0,.4,0,0-.4,0-.4-.2s0-.3,0-.4c-.2-.2-.3,0-.3.3v.5c0,.2-.2.2-.2.3,0,0,0,0,0,0,0,0,0,0,0,.2s-.4.3-.5.3-.3.3-.2.4h.3l.2.2s0,.2,0,.2,0,0,.2-.2h.6c0,0,.2,0,.2,0-.2,0-1,0-.9.2,0,0,.2,0,.2.2-.2,0-.5-.2-.6,0,0,.3.2.5.4.5.4,0,1.1-.7,1.4-1s.4-.5.6-.7.6-.5.4,0c0,.2-.5.5-.6.7,0,0-.2.3-.3.4,0,0-.2,0-.3.2-.3.2-.4.4-.7.6-.4.2-.5.3-.5.7-.2,0-.2-.3-.4-.3s-.3.2-.4.3h0c-.2,0-.3,0-.5.2,0,.2,0,.4-.2.6,0,.2-.3.2-.3,0s0-.3-.2-.4c-.3-.2-.3,0-.3-.4s-.2-.5-.4-.3c0,0,0,.4,0,.6h-.3c0,0-.2,0-.3.2-.2.3-.2.2-.5.2s-.5,0-.5.2h.5c.2.2,0,.3-.2.3h-.2s0,0-.2.2c0,0-.4,0-.5,0,0,0,.2.3.3.4,0,0,0,0,0,.2h.8c.2,0,.5,0,.6-.2.2,0,.9-.7,1.1-.4,0,.2-.2,0-.3.2,0,0-.2.2-.3.2-.2,0-.4,0-.6.2-.2,0-.4.3-.7.3s-.6,0-.6.3.4,0,.6,0c.3,0-.2.4-.3.4,0,0-.3,0-.3,0,0,.2.2,0,.2,0h.5c.2,0,.3,0,0,.2,0,0-.3,0-.4,0-.2,0-.2,0-.4,0,0,0-.2,0-.3,0h0c-.2,0-.4,0-.6,0h0c0,.4-.3.3-.5.5.2.2,0,.2,0,.4q0,.2,0,.4c0,0,0,.2.2.3,0,.2,0,.2.3.4.5.5,0-.4.4-.2,0,0,0,.2,0,.3,0,.2,0,0,.3,0,.5,0,.4.2,0,.2s-.3,0-.4,0v.2c0,0-.2,0-.3.2-.3.2-.5.3-.2.6,0,0,.2,0,.2.2s-.3,0-.4,0c-.2,0-.3,0-.4.2,0,.2,0,.3,0,.5,0,0-.3.2-.4.3,0,0-.2.3-.3.4,0-.3.3-.6.4-.9v-.5c-.2-.2-.2,0-.4,0-.2,0,0-.2,0-.4q0-.3-.2-.4s0-.2,0-.2h-.2s0-.5,0-.6h-.2v-.3c0,0-.3,0-.3.2s0,.3.2.5v.5c-.3-.3-.2,0-.4.3,0,0-.2-.2-.3-.2s0,.3,0,.4c-.2-.3-.5,0-.7-.3v.4c0,0,.4,0,.5,0q0,0,0,.2v.2c0,0,.3.4,0,.3-.2,0,0-.2-.2-.4,0-.3-.2,0-.4-.2,0,0-.2-.3-.3-.3-.2,0,0,.4,0,.5s0,.5,0,.6c-.2.2-.3-.2-.5-.3-.2.2,0,.4,0,.5h-.3s0,.2,0,.3l-.2.2c0,0-.2,0-.3,0-.2,0,0,0-.2.2,0,0-.2.2-.2.3.2,0,.6,0,.5.5s-.2,0-.4-.2c0,0,0,.2-.3.3-.2,0-.2,0-.3,0-.2,0,0,.7-.3.5h0c0,0-.2.2-.2.3h.6q0,.2-.2.3h-.2s0,0-.2.2c0,0-.2-.4-.4-.3-.2,0,0,.4,0,.5,0,.2,0,.3-.2.5,0,0-.4.3-.3.4,0,.4.6,0,.8,0,.3,0,0,0,.2.3,0,.2.2.2.2.5-.7-.3-1,.5-1.5.4,0,0-.2,0-.3,0,0,0,0,.2,0,.3,0,0-.5.3-.7.3h0c-.2,0-.8.5-.6.6.2.2.7,0,.9,0h-.6c0,0-.2.2-.2.2h-.2c-.2.2,0,.3,0,.5,0,.2-.4.2-.4.5,0,0,.2,0,.3,0l.4-.2h.2v-.2h.4c.5,0,1-1,1.6-.8,0,0-.2,0-.3.2,0,0,.3,0,.4,0,0,.2-.3.3-.5.3s-.3.2-.5.2-.3,0-.4,0c-.2.2,0,.4,0,.6s0,.3,0,.4c0,.2.3,0,.4.3v.5c0,.2,0,.3.2.4h0c0,.5.5.3.7,0,.3-.2.6-.3.9-.4.3-.2.6,0,.9-.3.2-.2.5-.2.7-.3h0c.3,0,.4-.3.6-.5s.4-.2.6-.3c.2-.2.2-.4.5-.4h.8c.2,0,.3-.4.3-.6s.2-.4.2-.6-.2-.4-.3-.5c-.3-.2-.3,0-.5,0s0,0-.3,0c0,0-.2,0-.3,0-.3,0-.5.3-.8.5-.3-.3.6-.7.8-.8h0c.2,0,.4-.3.6-.4.2,0,.4,0,.6-.2.2,0,.3-.3.5-.4,0,0,.3,0,.5-.2,0,0,.4-.3.4-.4v-.5c0-.2.2-.3.4-.4,0,0,.3-.4.5,0,0,.3-.7.5-.6.8,0,.3.3,0,.4.2,0,0,0,0,.2.2h.4c.3.3-.8.5-.9.6-.2.2-.3.4-.6.5-.2,0-.5.2-.6.4v.6c.4.2.4-.3.6-.4h.4c0,0,0-.2.2-.4,0-.2,0-.6.4-.6.2.3,0,.3-.2.5v.3c0,0,0,0-.2.2,0,0-.2,0,0,.2,0,0,.2,0,.3,0v.4c0,.2.2,0,.3.2v.3c0,0-.2,0-.3,0h-.6c-.4,0-.5.7-1,.7h-.3c0,0-.2,0-.4,0h-.3c0,0,0,.3-.2.4h0c-.3,0-.6.3-.8.5-.2,0-.2.2-.3.4,0,.2-.3.2-.5.4.3.4,1-.3,1.3-.4,0,0,.2-.2.3,0,.2,0,0,0,0,.2,0,.3.4.3,0,.4-.3,0-.5,0-.6.3s0,.4.2.5c0,0,.2,0,.2.2s0,0,0,.2c-.2.2-.3.3-.6.2-.3,0-.5-.2-.9-.2s-.6-.4-.8,0h0c-.3,0-.6-.2-.8-.2h-.4s0,.2-.2.2h-.2c-.3,0-.4.5-.2.8s.8.3.8.5h-.7c0,0-.2-.2-.3-.3h-.4c-.4,0,0-.4,0-.7,0-.3.2-.6,0-.8,0-.3-.4-.5-.5-.7-.2-.2,0-.4,0-.7,0-.2-.2-.3-.2-.4s0-.3,0-.4c0-.4-.4.3-.6,0-.2.2-.4.4-.4.6s.2.4,0,.6c0,0,0-.4-.3-.4s-.3.3-.4.3h-.5c-.2,0-.2.4-.5.3,0,.2.3.5.4.5.2,0,.5,0,.5,0-.3,0-.6.2-.8.2s-.6,0-.6.4c.2,0,0,.2.2.3,0,0,.3,0,.4,0,.2,0,.6-.3.9-.2,0,0-.7.4-.8.5h-.4c-.1,0-.3.2-.4.3,0,0-.3.3-.4.3-.2,0,0-.5.2-.5,0-.2.3-.2.3-.5s-.2-.4-.3-.5h0c0,0-.4-.6-.5-.5-.2,0,0,.5,0,.6h-.2c0-.2,0-.2-.3-.2s0,.3,0,.3c-.2.2-.3-.5-.4-.6h-.4c0,0,0,0-.2,0s-.2,0-.2.2.2.3.2.3c.2,0,.7,0,.2.3-.2,0-.5.2-.7.2-.3,0-.5,0-.6.2,0,.2.2.6.2.8,0,.3.4.4.8.5.3,0,.8-.2.9,0-.3,0-.6.2-.9.2s-.9,0-.9.2c.2,0,.4.8,0,.6,0,0-.2-.3-.3-.4h-.5c-.2,0-.5-.3-.7-.3-.4,0,0,.4,0,.6-.2,0-.3,0-.4,0,0,0,0-.4-.3-.3-.2,0,0,.7,0,.9s0,.3,0,.4c0,.2,0,.3.2.4h1c0,0,.4,0,.4.2s-.5.2-.5.4c.2,0,.6,0,.8,0-.2.3-1.4,0-.8.8,0,0,.6.3.5.5,0,0-.7,0-.9,0,0,0-.2-.2-.4-.2s-.2,0-.3-.2c0,0,0-.2,0-.4,0,0,0,0-.2-.2v-.2c0-.4,0-.2-.4-.5,0,0,0-.3-.2-.4,0,0-.2,0-.2-.2s.2-.8-.3-.7c-.3,0-.2.5-.2.7h0c0,.3.3.6.4.9,0,.3.3.6.3,1v.5c0,.2.2.3.4.5.3.3.6.7.9.9.2,0,.3,0,.4.4,0,0,.2.4,0,.5,0-.2-.2-.4-.4-.6-.2,0-.4-.2-.5-.3-.2-.2-.2-.4-.4-.6s-.4-.3-.6-.6c-.2-.2-.3-.4-.3-.7v-.7c0-.5-.6-.4-1-.4h0c-.2,0-.5.2-.7,0-.2,0,0-.4-.4-.2-.4.2-.9.7-1.4.5.2-.4.2-.5-.2-.7h0c-.2,0-.3-.3-.3-.5h-.4c0,0-.2-.2-.4-.2s-.2,0-.3,0h-.3c-.2,0-.4.3-.6.4-.2,0-.5.3-.6.5.3,0,.4,0,.4.4s0,.4.3.5c.3,0,.4,0,.6,0,.2.2.3.4,0,.3,0,0-.2,0-.3,0h-.5c0,0,0,0-.2.2,0,.2-.2.4,0,.6,0,0,.2,0,.3,0h.2c0,0,.2.3.4.2.2,0,0-.3.3-.2,0,0,0,.2.3.2s.2,0,.4,0h0c.2.2.3.3.6.4h.5c.5,0,1,0,1.4-.2.6-.2,2-.3,2,.7-.4-.5-1.1-.7-1.7-.5-.4,0-.7.2-1,.4-.3,0-.6,0-.9.2-.3,0-.7.4-.4.8,0,0,.3.4.4.4,0,0,.5,0,.4.2s-.9,0-1,0c-.3-.3-.2-.7-.5-.9,0,0-.5-.2-.6-.2-.2,0-.3.2-.6.2-.6,0,.3-.9-.5-.6h-.4c-.2,0,0,.2,0,.4,0,.4-.3.6-.4,0,0-.3,0-.7-.4-.7s-.7.3-.8.6v-.3c0,0-.2.3-.3.5,0,.2,0,.3,0,.4v-.7h-.2c0-.3-.2-.4-.4-.2,0,.2,0,.5,0,.7,0-.3,0-.5-.3-.6-.2,0-.6,0-.7.2-.4.7.5.6.9.7.3,0,.5,0,.7.2,0,0,0,.3.2.4,0,0,.3,0,.4,0,.5.2,1.1.4,1.4,1,.2.3,0,.5,0,.8s.4.6.7.7h0c.2,0,.3.2.5.3h.6c.3,0,.7.8.5,1-.3-.2-.3-.8-.8-.7-.2,0-.3.2-.5,0-.2,0-.2-.4-.5-.2-.2,0,0,.4-.2.5,0,.2,0,.3-.3.5,0,.2-.6.7,0,.8.4,0,.8,0,1,.3-.4,0-.8,0-1.2,0-.2,0-.4,0-.6,0-.2,0-.2-.2,0-.4.3-.4.5-.7.6-1.2v-.6c0-.2-.2-.3-.3-.5v-1c0-.2,0-.4-.3-.5h-.4c0,0-.2-.4-.4-.3-.2,0-.2.2-.4.3-.2,0-.3,0-.3.2s0,.3,0,.5c-.2,0,0-.3-.3-.5h-.5c-.3.2,0,.7,0,1s0,.7.3,1c0,0,.4.3.4.4,0,.3,0,.2-.3.2,0,.3.4.6,0,.9s-.3-.3-.3-.6,0-.3,0-.5v-.5s0,0,0-.2v-.4c0-.2-.2-.3-.2-.5h0c0-.3,0-.7-.4-.7s-.7.3-.8.4-.2.3-.3.4-.3,0-.4.2c-.2.2,0,.5,0,.8,0,0,0-.4-.3-.3-.2,0,0,.2,0,.3,0,.3.2.6.4.8.2.2.3.6.6.7h.4c0,0,.2.4.2.5,0,0-.2-.2-.3-.3h-.4c0,0,0-.3-.3-.3s-.3.2-.4.3c0-.2.2-1-.4-1q0,.3-.2.5c0,.2-.4.5-.6.6-.4.2,0-.3,0-.5.2-.3.4-.4.5-.7,0-.3.2-.6,0-.8-.3-.2-.3,0-.6,0h-.5c0,.2,0,.4,0,.6,0,.4-.2.4-.3,0,0-.3,0-.5-.2-.8h0c-.3,0-.5-.6-.8-.4,0,0,0,.3-.2.4,0,.2-.2,0,0,.4l.2.4h.4c.3,0,.6.4.3.7-.2,0-.2-.4-.5-.4,0,.2,0,.9-.5.8,0-.3.2-.5,0-.8,0-.3-.5-.4-.6-.8v-.5q0-.2,0-.3h-.2v-.2c0,0,0-.2-.3-.3h0c-.2,0-.4,0-.5,0,.2.2,0,.3,0,.5s.2,0,.2.3c0,0-.2.2-.2.3.2,0,.3,0,.5,0,0,0,0,0,.2.2,0,0,.2,0,.3,0s0,.3.2.4c0,0,.3.2.2.4,0,0-.3,0-.4,0v.2s-.2,0-.2.2c0,0,0,.2-.2.3-.2,0-.2,0-.3-.2,0,0,0,0,0,.2,0,0,0-.3,0-.4,0,0,0,0-.2.2,0,0,0-1.1-.2-.6,0,0-.2-.2-.3-.2-.2.2,0,1.4.2,1.4s.2,0,.3,0h.4c.2,0,.5.2.7.2h.7c.3,0,.5.2.7.3.5,0,1,.2,1.5.2h0c.2,0,.6,0,.7.3-.2,0-1,0-1.1,0,.2.2.6,0,.9.2.3,0,.6,0,.9.2.3,0,.6,0,.9.2.3,0,.5.2.8.4h0c.8,0,2.2-1,2.4.4-.2,0-.5-.4-.8-.4s-.5.2-.8.3c-.4,0-1,0-1.4,0-.2,0-.4-.3-.7-.4h-.6c-.3,0-.3-.2-.5,0,0,.2-.3.8-.6.7-.3,0,0-.7,0-.8,0,0,.2-.2.2-.3,0-.2-.2-.2-.3,0h-.9c0,0-.4.2-.6,0-.3-.2.2-.2.3-.3,0,0,.2-.3,0-.4,0-.2-.4,0-.6,0-.4,0-.8-.4-1.2-.4s-.2.2-.3.4c0,.2-.5,0-.6.3-.3,0-.6,0-.9.2,0,.2.4,0,.5,0,.3,0,.4.2,0,.3h-.3c0,0,0,0,0,.3s0,.3-.2.3,0-.2-.2-.3c0,0,0,.3-.3.3,0-.3,0-.4-.2-.5-.2,0-.5,0-.6.2-.1.3-.1.9.2,1h.5c.2,0,.3.2.6.3.3,0,1.2.4,1.2.7-.2,0-.6,0-.6.2-.2,0-.8,0-.9,0,0,.3.4.3.6.4,0,0,0,.2.2.3h.3c.2,0,.4.3.5.3h0c.4,0,.7,0,1.1,0,.2,0,.4,0,.5,0,.2.4,0,.2-.3.2-.3,0-.4.2-.7.3h-.7c-.2,0-.3-.3-.5-.4h-.6c-.4,0-.8,0-1.2,0s-.6,0-.7.2c0,.3.2.2.4.2h.3s0,.3-.1.3c-.2,0-.3-.3-.4.2,0,.2,0,.5.1.6.2,0,.4-.2.6-.2.3,0,.4,0,.7,0,.3,0,.5-.2.9,0,.2,0,.5,0,.7.2.2,0,.5,0,.6.3-.3,0-.8,0-1.1,0-.2,0-.4-.2-.6,0,0,0-.4.2-.5.3-.4-.2-.3-.2-.6,0h-.2c0,0-.2,0-.3,0,0,0-.2,0-.3,0h-.3c-.3.2,0,.4.1.6,0,0,.2,0,.2,0,0,.5.3.3.7.5,0,0,.3.2.3.4s0,.2-.3.3c0,0,0,.2.2.2,0,0-.3.1-.3.3.2.1.3.1.5.1s0-.1.2,0c0,0,0,.2.2.3.3.4.5.3.8,0h0c.2,0,.3-.1.4-.2h.6c.2,0,.3-.2.5-.3.2,0,.3.1.5.2h.6c.2,0,.4-.3.6-.4.5,0-.3.7.4.6h.6c0,.6.4.4.8.6.4.1.7.4,1,0,.4-.3,0-1.8.4-2,0,0,0,.4.2.4s.4-.4.4-.4c.3-.3.4-.7.7-.9.4.5-.3,1-.6,1.4-.4.6-.3,1.1.4,1.3h0c.4,0,.5.2.8.4h0c.3-.1.6-.3.9-.4.2-.1.7-.5.5,0,0,.2,0,0-.3.2-.2,0-.2.4-.4.4s-.7-.2-.7.2,1.3-.2,1.6-.3c.3,0,.6.2.9,0,.3-.3,0-.7,0-1s-.3-.4-.3-.6c0-.3,0-.2.2-.3.3-.4-.3-.8.5-.8s.4-.3.7-.4c.3-.2.6-.3.9-.4,0,.2,0,.3-.3.4s-.3.2-.4.4c0,0-.2,0-.3.2,0,0,0,0,0,.2,0,.2-.2.3-.3.4-.3.4-.2.4,0,.9,0,.3,0,.7.3.8h.6c.2,0,.5-.4.7-.3,0,.2-.5.4-.7.5-.3.1-.4.1-.6.4-.2.3,0,.5-.5.4-.2,0-.5-.2-.7-.4-.2.2-.3.3-.6.3s-.4,0-.6.1c-.4.2,0,.7-.2,1.1h0c0,.3.5.4.6.8,0,.3,0,.7-.4.7,0-.2.2-.4,0-.7,0-.1,0-.2-.2-.3l-.3-.2h-.2c0,0-.2,0-.3.1,0,0-.2,0-.3.1,0,0-.2.2-.3.2-.2-.3.4-.6.6-.7.3-.2.4-.3.4-.7v-.4c0-.2-.3,0-.4-.1-.3-.2,0-.7-.3-.8h-.6c-.2,0-.2-.2-.4-.3-.3-.1,0,.1-.2.3,0,.1-.3.4-.3.5-.2.2-.2,0-.5,0s-.4.1-.5.3c0,.1,0,.5-.2.6s-.2-.3-.5,0c0-.2.4-.5.3-.7,0-.3-.5,0-.6.1,0,0,.4-.9,0-.7h0c-.5,0-.7-.3-1.2-.3s-.8-.5-1,0h0c0,.2-.2,0-.3.1,0,0,0,.2-.2.2v-.5c-.2-.1-.2.1-.3.2h-.4c-.4,0-.2.1-.3.4,0-.2-.2-.3-.4-.1h-.6c-.2,0-.2.4-.3.5-.2-.3-.3-.2-.6-.3-.4,0,0-.1-.3-.4,0-.2-.5-.1-.6-.2,0,0-.1-.2-.2-.2s-.3.2-.4.3h-.3v.3c0,.2,0,.4.1.5h.6c.2,0,.6-.1.6,0,0,.3-.6,0-.7.2-.2.1-.2.6-.4.8,0-.2,0-.8-.3-.8s-.2.7-.1.8c0,0,.1,0,.1.1v.2s0,.3.1.4c.2.1.1,0,.4-.1.2,0,.2.2.3.4,0,0,0-.3.2-.3s.1.2.3.1c.2,0,.3-.4.6-.4,0,.1,0,.2-.2.4,0,0,0,.3,0,.3,0,.1-.2,0-.4,0l-.2.3c0,.2.3.5.4.7,0,.2.3.5.3.8,0,.4-.3,0-.3-.2,0-.3-.1-.4-.4-.7-.2-.2-1.1-1.1-1.2-.4,0,.2.1.2.2.3,0,.1,0,.2.1.3,0,.1.2.2.3.3,0,.1.1.4.3.2h-.1c.2.3.4,1.1.8,1.1s.4-.3.5-.3c.2-.1.3-.3.5-.5.3-.4.7-.8,1.1-1.1.3-.2.6-.6,1.1-.5,0,.3-.2.2-.4.4-.2.1-.3.3-.5.5,0,0-.5.2-.4.4,0,.1.4,0,.5,0,0,.2,0,.4,0,.6,0,0,.4.2.5.3.2,0,.4,0,.4.2s-.3.2-.4.1c-.2,0-.3-.3-.5-.3s-.3.3-.3.5,0,.4,0,.6v.7c0,.2,0,0-.2.1,0,0,0,.2-.2.3-.2.2-.4.1-.6,0-.5,0-.7-.4-1.1-.7-.1-.1-.3-.4-.5-.3h0v-.2h0v-.5h0v-.6h0c0-.1-.1-.1-.2-.1,0,0-.1,0-.1.1h0v.2h0v.6h0v.5s.1,0,.1-.1h0c0,.1,0,.3.1.5v.3h-.2v.3c-.1.1-.4,0-.5.3v1.4q0,.3.4.5c.2.1.3.3.3.5-.6.3.2.5.5.2.4-.3.6-1,1-1.3h0c0-.4.7-1.6,1.2-1.2-.4.3-.5.3-.7.7,0,.2,0,.2,0,.5s0,.3,0,.4c0,0,.2.1.3.2-.2.2-.4.1-.6.3,0,.1-.2.6-.3.7.3,0,.4,0,.6-.1.2-.1.4-.2.6-.3h0c-.2.3-.3.2-.3.5v.4c0,.1,0,.2-.2.3,0,0,.3.2.5.2,0,.2-.2.1-.3.2q-.2,0-.2.3c0,.1,0,.8.2.5.2.4.7-.2.8-.4s0-.4,0-.6c0-.2.2-.3.3-.5,0-.2,0-.3,0-.5,0,0,.3-.2.3-.3s0-.2.2-.3c.3-.5.6,0,1-.3.2-.1.4-.4.5-.5.2-.4,0-.4-.3-.5,0-.3.4.2.5-.3,0-.3,0-.6,0-.9.3.1,0,.9.5.8h0c.3,0,.7-.2,1-.4h0c.3,0,.6-.2.8-.4.2-.1.4-.4.6-.3,0,.1-.9.7-.4.8,0,0,.4-.2.5-.3.2-.1.3-.1.5-.2.5,0,.5-.3.5-.8s0-.2.2-.2h.5c-.2.2-.5.2-.4.6,0,.3.3.1.5.3.4.3-.4.1-.5.1h-.8c-.2,0-.6.2-.7.3-.3.2-.2.5-.4.8-.2.2-.3.4-.4.7,0,.3-.3.5-.3.8s0,.6-.2.9c0,.3-.2.5-.3.8h0s0,.1-.2.1c0-.2,0-.6.2-.8,0-.3.2-.6.2-.8v-.8c0-.3.4-.5.5-.9,0-.3.2-.5-.2-.7-.3,0-.5.2-.8.3h-.4c-.3.1,0,.1-.2.3-.2.3-.6.4-.8.6,0,0-.2.2-.3.3,0,0,0,0-.2.2v.3s-.2,0-.2.1c-.4.4,0,.7-.2,1.1h.6c.2-.1.2-.4.4-.4v.2s0,.2,0,.3c0,0-.5,0-.6.1-.2,0-.5,0-.6.2-.2.1-.3.4-.5.5h0c-.3,0-.4.2-.6.4-.2.3-.3.2-.6.3-.3,0-.4.2-.5.4s-.6.4-.7.6c0,.3.4.3.6.4.2.2,0,.5.3.7.7.4.6-1,1-.9.4,0-.2.5-.2.6v.8h0c.4-.2.7-.4,1.1-.6.3-.2.8-.4,1.2-.4,0,.2-1,.6-1.2.7-.4.2-.8.4-1.2.5-.3,0-.9-.1-1.2.2-.5.6.5.5.7.5,0,.3-.4.2-.6.3,0,0,0,0-.2.2,0,.1-.2.3-.4.3,0-.2.4-.8-.2-.7h0c-.2-.1-.4-.3-.7-.3h-.4c-.1.2,0,.1,0,.3,0,.4,0,.9-.3,1.2h0v-.6q0-.3-.2-.6c-.1-.2-.1-.5-.4-.5s-.4.2-.5.4-.1.4-.3.6c-.1.2-.4.4-.5.6v1.2c0,.2.3.5.3.7s-.1.5,0,.7c.2-.3.1-.8.3-1.2.2-.3.6-.3.9-.4.3-.2.9-.8.9,0v1.1q0,.3-.1.6s-.2.4-.1.5c.2.2.4-.2.6-.3s.4,0,.6,0c.4,0,.8-.2.6-.7,0-.2-.2-.4-.4-.4s-.3.2-.5.3c-.5,0-.2-.2,0-.4,0-.1,0-.6.2-.6.2,0,.2.5.4.1.2-.2,0-.6.3-.7,0,.1,0,.4.2.5,0,.1.4.2.5.2h0c.5,0,1.3,0,1.6-.4.2-.2.6-1.6,1-1.4,0,.5-.5.9-.6,1.3.2,0,.4,0,.6-.1h.7c.3,0,.4,0,0,.2-.2.1-.4.1-.7.2-.2,0-.6.2-.7.3-.2.1-.3.4-.4.6-.2.2-.5.4-.8.5-.2,0-.5.2-.5.4,0,.3.4.5.6.5.3,0,.4-.4.7-.5,0,.2,0,.4.2.5.2.2.3.1.5.1.3,0,.7,0,1,.3-.5.1-1.1,0-1.5.2s-.9.2-1.3.5c0,0-.5.3-.5.5s.6.3.4.5h-.7c-.3,0-.5,0-.7.3h0c0,.2,0,.5,0,.6.2.2.4.1.5.3.2.3-.3.4-.4.5,0,0,0,.5.2.6.3.2.4-.2.6-.3.2-.1.5-.2.8-.3.5-.1.9-.2,1.4-.3.3,0,1.3-.2,1.4,0-.4.1-.9,0-1.3.2-.5,0-.9.2-1.4.4-.4,0-.9.3-1,.8,0,.4.5.7.8.8,0,0-.6.1-.8,0-.3-.1-.3-.5-.5-.7-.2-.1-.3-.1-.4-.3,0-.1,0-.3,0-.4,0-.2-.6-.5-.8-.4v.3c-.7-.3-.3.4-.8.5-.1-.3,0-.7,0-1h0c0-.3.1-.6-.1-.8s-.6-.2-.7,0,0,.6,0,.8-.1.2-.2.3v.4c0,.3-.2.7-.3.9-.2.3-.5.4-.5.8s.3.6.3.9,0,.6.3.9c.1.1.3.2.4.4,0,.2,0,.4.2.6.2.5.6.6,1,.9h0c.5,0,.7.8.9,1.2.2.5.6.5,1,.8.8.5,1.5,1.1,2.5,1.4h0c0-.1,0-.8.3-.7,0,0,0,.3,0,.4s0,.2.2.4h.3c.3.4-.5.3-.4.7-.3,0-.5-.2-.7,0v.2s0,0,0,.2c0,.2-.2.2-.2.4,0,.6.9.7,1.4.5-.2-.3-.3-.7-.2-1,.3.1,0,.6.4.5.4,0,.2-.4,0-.6.2,0,.3.2.5.3s.5,0,.6.2c-.2.1-.9.2-.9.3,0,.5.8.1.9.1,0,.3-.6,1.3,0,.8.4-.3.8-.4,1.1-.7.2.6,0,.4-.5.5-.2,0-.8.6-.5.9.2.3.5-.4.8-.5h.6c.2,0,.2.3.5.2h0c.2.1.4.1.7.2.3,0,.4.2.6.3.3.1.4,0,.6-.2,0,0,.2,0,.3-.1l.2-.3c.2-.1,0-.2.2-.2,0,0,.3.2.3.3h.3c.2,0,0,.2.3.2.7,0,.6-.8.8-1.1.6-.9.6.9,1.2.6h0c.5,0,.3-1.1,1-.7v-.2c.2-.1.3-.4.5-.5h.3s.2,0,.2-.1h.3s0-.2,0-.2c0,0,.2-.2,0-.2,0,0,.2-.1.2-.2.2-.2,0-.3.4-.4.2,0,.4,0,.5-.3,0-.2,0-.4.3-.6h.2s0-.2,0-.3h0c.2-.3.4-.7.7-.8.3-.2.5-.3.7-.7.2-.3.3-.6.7-.7.4-.1.7,0,.9-.4h-.5c0-.2.2-.3.3-.4-.2,0-.9,0-.7-.3,0-.1.8,0,1,0q.4,0,.7-.2c.3-.2.3-.6.6-.8-.2,0-.9.1-1-.1,0-.3.7-.2.9-.3,0-.2,0-.3.3-.3.2-.3.6,0,.9,0s0-.2.2-.3h.5c0-.1,0-.2,0-.3.4,0,.7-.2.5-.7h0c-.3-.3-.6-.5-.7-.9.5-.2.8.5,1,.7q.3.2.3.6c0,.2,0,.5,0,.6.2.2,1,0,1.2-.2,0-.2,0-.6.2-.7.3-.1.3.3.4.4,0-.2.4-.3.6-.5,0-.3.2-.5.3-.7.2-.3.3-.2.6-.4.4-.3,0-1.3.5-1.5.3-.1.4.3.7-.1.2-.3,0-.5,0-.8s.3-.4.3-.7-.2-.4-.5-.5c0,0,0,.3,0,.3-.2,0,0-.2-.2-.3,0-.2-.3-.5,0-.7,0-.5.4-1,.3-1.6,0-.4,0-.2-.3-.4s-.3-.4-.2-.7c.2.4.6.3.7.7v1.1c0,.3,0,.8.3.8s.4-.7.6-1c.3-.5.2-.4,0-.9-.2-.4-.3-.8-.3-1.2,0-.6,0-1.7.9-1.7s1.1,1.7.5,2.2c0-.3.2-.7-.2-.9-.4-.3-.5.3-.5.6v1.9c0,.3,0,.6,0,.9,0,.4,0,.5,0,.9,0,.3-.3,1.9.2,1.6h0c.6,0,.4.2.3.5,0,.2-.4.7.2.5,0,.2,0,.7,0,.8.3.2.3-.3.5-.5.2.1,0,.4,0,.6,0,.3.3.4.3.7s0,1.1.2,1.4c.4-.4,1.7-1.8,2.3-1.1.4.4.3,1.1.3,1.6s0,1,0,1.4h0c.4,0,1.2,0,1.4-.3v-.8c0-.3.3-.5.5-.8.3-.2.4-.2.4-.5v-.8c0-.7.4-.9.6-1.5h0c0-.7-.6-1.2-.7-1.8,0-.5,0-1,0-1.5,0-.8,0-1,.8-1.4.6-.4.6-.6.6-1.3s-.6-.8,0-1.3c.4-.4.9-.2,1.3,0,.5-.3,1-.8,1.4-1.3.2-.3.4-.6.6-.9.2-.2.5-.4.7-.7.2-.4,0-1,0-1.4s.3-1,.6-1.4v-.2c0-.5.4-1,.4-1.4s-.4-.7-.5-1.1c-.3-.9-.6-1.8-.9-2.7,0-.5-.2-.8-.4-1.3-.3-.5-.7-.6-.3-1.1.4-.5,1.8-.3,2.5-.5,0-.3,0-.8,0-1.1s.5-.3.7-.5h0c0-.7.5-1.3.4-1.9,0-.6-.9-1.2-1.2-1.7-.4-.7-.4-.8-1.1-1.1-.8-.3-1-.8-1.4-1.5,0-1.9,0-3.8.2-5.7,0-.8.2-1.6,0-2.4,0-.9-.7-1.7-.6-2.6h-.2c0-.5,0-.9,0-1.4.2-.5.3-.7.2-1.3,0-.4-.2-.9,0-1.3.2-.5.8-.8.9-1.4,0-1.1-1.2-2.2-1-3.4,0-.7.7-1.1,1-1.7s0-1.3,0-1.9c1-1.1,1.6-2.4,2.5-3.6.5-.7.8-1.3,1.5-1.7.6-.3,1.3-.6,1.9-.9h0c.6,0,1.6.6,2.1.9.8.5,1.1.6,2.1.2h0c.2-.7.6-1.4.7-2,0-.6,0-1.3-.2-1.9,0-.8,0-1.2-.8-1.7-.6-.4-1.2-.9-1.9-1.3h0c0-.9,1.1-1.6,1.4-2.2.4-.7.7-1.3,1.1-2,.4-.6,1.1-1.4,1.4-2.1,0-.3,0-.7,0-1,0-.5.5-.7.7-1.1h0c0-1,.2-1.9.3-2.8v-2.7c0-.9.3-1.5,0-2.4,0-.4,0-.8,0-1.3s-.5-1-.3-1.2c.2-.3,2.3-.2,2.8-.3h0c.6,0,1.2-.5,1.6-.9.6-.5.4-.7.3-1.4-.2-1.3.4-2.5,1.4-3.3h0c0-.5.4-.8.6-1.2.2-.4.2-.9.3-1.4.3-1,1.3-1.8,2.1-2.4h0v-1.8c0-.8,0-.9-.4-1.5-.5-.6-.6-.9-.4-1.6.2-.8.7-1,1.3-1.5,0-1.2.6-2.6,1-3.7.4-1.2,1.4-1.9,2.3-2.8h0c1,0,1.8,1,2.8,1h0c.3-.5.5-1,.8-1.5.4-.8.4-.7,0-1.6-.3-.9-.8-2.5-.2-3.3.7-.9,1.6-.3,2.5-.3s.9-.2,1.4-.3c.5,0,.9.2,1.4.3h0c.8.3,1.5.8,2.3,1,.9.3,1.2-.3,1.5-1.1-.5,0-1-.5-1.4-.9,0-.3.5-.4.7-.6.2-.2.4-.6.5-.9.3-.6.4-1.2.7-1.8h0c-.3-.5-.4-1-.6-1.5-.2-.4-.5-.8-.6-1.2.6-.2,1.2,0,1.8-.5.9-.7.5-.3,1,.4s1.1,0,1.3-.6c.2-.6-.2-1-.6-1.6h0c.5-.3.8-.9,1.3-1.1.4-.2.7,0,1.2,0h0c1.1.8,1.8,1.7,2.5,2.7.4.9.9,1.7,1.2,2.6.4,1.1,1.2.8,2.3,1,.5,0,.8.4,1.2.5.5,0,.9-.2,1.3-.3.4-.2.9-.3,1.1-.6.4-.4.3-.8.5-1.3.4,0,.6-.3,1-.2.5,0,.6.5,1,.7.6.3,1.5,0,2.1.5.5.2,1.1,1.8,1.6,1,.1-.2,0-.6.2-.8.2-.3.3,0,.4-.4,0-.2,0-.4-.1-.5-.2-.6-.4-.7-.2-1.3.2-.5.7-.8,1-1.2h0c0-.3.1-.3.3-.5,0,0,.2-.3.3-.3.3-.3.4-.4.4-.9s-.6-1.3-.6-1.9h0c0-1.1-.3-2.1-.2-3.1,0-.3.2-.5.2-.8s-.1-.4-.1-.6c0-.3.3-.4.3-.8s-.3-.5-.2-.9c0-.4.2-.6.5-.9s.2-.4.3-.8c0-.3,0-.5.3-.8.1-.2.2-.2.3-.4v-.5c.2-.7,1.2-.8,1.9-.7.7.2,1-.3,1.7-.5h0c0-.3.3-.5.4-.8,0-.2.1-.4.2-.7.1-.3.2-.5.5-.5s.3.1.4,0c.1,0,.2-.2.4-.3.8-.3.6.4.9.8.3.5,1.2.8,1.7,1.1.4.3.2.4.4.7.2.3.5.3.8.3h0c.4,0,.8.3,1.2.4.3,0,.8,0,1.1.2s.6.9.8,1.2c.3.4.5.8.8,1.3h0c0,.8-.6,1.4-.9,2-.3.6-.4,1.3-.3,2,0,.6.5,1.6,1.2,1.4.6-.2.4-1.4.4-1.9s-.7-2.2.3-1.8c0-.4.4,0,.5-.3.2-.2,0-.6.2-.8.3-.5,1-.5,1.3-1.1v-1.2c0-.3-.3-1,0-1.2.4-.3.9.4,1.2.6.5.3.8,0,1.3.1h0c.6,0,1.4-.5,1-1.2l-1.7,4Z"/>
      <path class="st0" d="M43.4,144.8h0Z"/>
      <path class="st0" d="M95.3,11.1v.2c0,.1,0,.2.3.3,0,0,0,0,0,.2h0c0,.2.2.3.3.2h0v.4s0,.2.2.2h.6v-.3s.2-.2.2-.3v-.3c0-.1-.2-.2-.2-.3,0,0,0-.1,0-.2v-.2h0c0-.1,0-.1,0-.1,0,0-.3.2-.4.2s0-.2,0-.3v-.2s-.2,0-.2-.1h-.3c0,0-.2.3-.2.4v.5l-.2-.3Z"/>
      <path class="st0" d="M89.8,14.1v.3"/>
      <path class="st0" d="M88.5,12.6s.2,0,.2.1h0v.5h.4q0-.1,0-.1h.5v.2s-.2,0-.2.2h0c0,.2-.2.2-.2.3v.6c0,.1.2,0,.3,0l.2-.3s0-.2,0-.2h.2v.4h0v-.2h0s0,.2,0,.2v-.2s0-.2,0-.1h0v.2h.3v-.4h0v.2h0c0,.1,0-.2,0-.2,0,0,0,0,.2.1,0,0,0,.2,0,.2,0,0,0-.2.2-.2h.3c.2-.1,0-.3,0-.4v-.2h.4s0-.1,0-.2v-.2s0,0,0-.2v-.2h0v-.5h.2s0-.2,0-.3h0v-.3c0-.1,0-.3,0-.3h.2s.3,0,.3-.1c0,0,0,0-.2-.1h0c0-.1.5,0,.4-.2,0,0,0-.1,0-.2h0c0-.1,0-.2-.2-.3,0,0,0-.1-.2-.1h0v.2c0,.1,0,.3.2.4,0,0,0,.3,0,.4h-.2s0-.1,0-.2v-.2s0-.2-.2-.2v.4h0c0,.1,0,.1-.2.1,0,0,0-.1,0-.1h0s0,0-.2.1h0v.2h.3v.2s.2,0,.3.1c0,.1-.2,0-.3.1h0q0,.1,0,.1h0v.6c0,.2,0,.1,0,.1h-.4v-.2h0v-.3h-.4v-.2s0-.1,0-.2c0,0-.2,0-.2.1h0v.5c0,0,0,.1,0,.2v.3s0,0,0,.1h0v.2c0,.1-.2,0-.2,0,0,0,0,.3,0,.3,0,0,0,0,0-.1v-.4s0,.1,0,.1h0q0,.1,0,.1v-.4h0v-.3h-.2s-.2-.3-.2,0v.6h-.2v-.4h0v.2c0,.2,0,.4.2.6v.2h-.2l-.2-.2-.2-.2h-.2v.4s0,0-.2.1h-.4s0-.1,0-.1h-.3s0,0,0,.2,0,.1.2.1l.4-1.1Z"/>
      <path class="st0" d="M100.9,5.3h0v.2c0,.1,0,.3.2.3h.2s.2-.1.3-.2c0,0,0,0,.2-.1h0s0,.1,0,.2h0v.3s0,.2,0,.2h0v.2h0c0,.1,0,0,0-.2,0-.1.1-.3.2-.4h1.4s.1,0,.2-.1c0,0,0-.1.1-.2v-.4h-.2c0,.1,0,.2-.1.3,0,0,0,.1-.2.2,0,0-.2,0-.2.1h-.2c-.1,0-.2-.2-.2-.4h0q0-.1.1-.2s.2,0,.3-.1c0,0,.1-.1.1-.2v-.2h-.8v-.4s-.1-.1-.2-.1h-.2s-.1.2-.2.2h0v-.3h0v.2s0,.2,0,.2h-.2v.2h.5s.1.1.2.2h0v.2h-.6v.2h-.8Z"/>
      <path class="st0" d="M66,41h-.3v.3s0,.2,0,.2h.4s0,0,.2-.2h.2c0,0,.2,0,.2,0h.2q0-.2,0-.3s0,0,0-.2,0,0-.2-.2v-.2c0,0,0-.2,0-.2,0,0-.2,0-.3,0h-.2c0,0,0,0-.2,0s0,.2-.2.3c0,0,0,.3,0,.4h0v.2h.4c0,0,0,0-.2,0h0Z"/>
      <path class="st0" d="M66.1,41.5h0Z"/>
      <path class="st0" d="M51,48.3s0,0,0-.2c0,0,0-.2,0-.3,0,0,.2,0,.3-.2h.3s0,0,0-.2h0v-.3s0-.3.2-.3,0,.2.2.3c0,0,.3,0,.3,0,0,0,0,0,.2-.3v-.3s0,0,.2,0h0c0,0,0,.2,0,0h.2c0,0,0-.2.2-.3,0,0,0,0,0-.2v-.4c0-.2.2-.5,0-.7,0,0-.3-.2-.4,0,0,0,0,0,0,.2s0,.3,0,.4h0q0,0,0,0s0,0,0,0v.3s0,.2-.2.3v.2s0,0,0,0c0,0-.2,0-.2,0h0v-.3c0,0,.2-.2.3-.3,0,0,0-.2,0-.3h-.4c0,0-.2.2-.2.3v.2h0s0,0,0,0v.2h0v.3c0,0-.2.2-.2.3,0,.2,0,.4,0,.6s0,.2,0,.3c0,0,0,0-.2.2v.8h.3c0,0-.5-.3-.5-.3Z"/>
      <path class="st0" d="M62.8,35.7s0-.2,0-.2c0,0,0,0,0-.2s0-.3,0-.4h0v-.2s0,0-.2-.2v-.2s0,0,.2,0h.8s0,0,0-.2v-.6s0,0,0,0h0c0,0,0-.2,0-.3,0,0,.3-.2.4-.3v-.4s0,0,.2,0h0v-.9h0c0-.2,0-.5,0-.5h-.7v.2s0,0-.2,0c0,0,0,0-.2,0v.9h0v.2s-.2.2-.3.2c0,0,0,0-.2,0,0,0-.3,0-.4.3v.2h0v.2c0,0,0,.2-.2.3,0,0,0,.2,0,.3h0v1.5s0,0,0,.2h.4Z"/>
      <path class="st0" d="M58,38.4v.6s0,.2.2.2h.2s0,0,0-.2,0,0,0,0h.3v-.7c0,0,0,0,.2,0,0,0,0,0,0,.2,0,0,0-.3.2-.4,0,0,0,0,0,0h0c0,0,0,.3.2,0h0v-.3s0,0,0,0h0c0,0,0,.2.2,0,0,0,0,0,.2-.2v-.2c0,0,0,0,.2,0v.5s0,0,0,0c0,0-.2,0-.2,0,0,0,0,0-.2,0h-.6s-.2,0-.2.2h0v.2h0c0,0,0,.2,0,.3h0v.2h-.9v.4h0v.3h0q0,0,0,0h.5s0,0,.2,0c0,0,.2,0,.2-.2v-.5s.2,0,.2,0c0,0,0,0,.2,0h0s0,0,0,0h.3v-.3h0c0,0,.2,0,.3-.3,0,0,.2,0,.2-.2v-.6s0,0,0-.2,0,0-.2,0v-.2h0v-.4h.2c0,0,0,0,0-.3v-.2s0-.2,0-.2-.2,0-.2,0h0v-.7s-.2,0-.3,0h0v-.3h0s0,0,0-.2c0,0,.2-.2.2-.3,0,0,0-.2,0-.2s-.4,0-.5,0c0,0-.2,0-.2.2s0,.2,0,.3v.5s.2,0,.2.2v.3s0,.2.2.2c0,0,0,0,.2,0q0,0,0,0h-.2v.5s0,0,0-.2v-.5h0c0,0,0,0-.2,0v.4h0v.4c0,0,0,.2-.2.3h-.2s-.2,0-.3,0h-.3c0,.2,0,0,0,0,0,0,0,0,0-.2,0,0,0-.7-.2-.6,0,0,0,.2,0,.3v.8c0,0,0-.2,0-.2v-.7h0v.2c0,0,0,.2-.2.2,0,0-.2,0-.2.2,0,0,0,0,0,0h0c0,0-.2,0-.2,0v.3h0v.3c0,0,0,.2,0,.3h-.2Z"/>
      <path class="st0" d="M53.8,45.6s0,0,0,0c0,0,0,0,0-.2,0,0,0-.2.2-.4,0,0,0-.2.2-.3h0c0,0,0,.1,0,.1v.3h0s0,0,0-.2c0,0,0,0,0-.2v-.2h0v.4h0v-.2c0,0,0-.2,0-.2v-.4h1s0,0,0,0h0v-.4h-.3s0,0-.2,0h-.3c0,0,0-.2,0-.2h.4v-.4h-.4v.4h-.3,0v.2h0s0,0-.2-.2c0,0,0-.4-.3-.4,0,0-.2,0-.2.2h0c0,0,0,0-.2,0h0v.3h0c0,0,.2,0,.3,0h.2c0,0,0,.2-.2.2h-.3v.5h.2v.2s0,0-.2.2c0,0-.2.2-.2.3v.6l-.2-.3Z"/>
      <path class="st0" d="M61.1,46.5s0,0-.2,0v.2h-.3s0,0,0,.2h0v.2s0,0,.2,0h.9c0,0,0-.2,0-.2h0s0,0-.2,0c0,0,0,0,0-.2v-.2s0,0,0,0h0Z"/>
      <path class="st0" d="M44.6,75.2h.6c0-.2,0-.3,0-.4,0,0,0-.2.2-.3h.2c0,0,0,0,0,0h0v-.2h0s0,0-.2,0,0,0,0,0h0c0-.2,0,0-.2,0h-.2s-.2,0-.3,0c0,0,0,.2-.2.2,0,0,0,0,0,.2v.2c0,0,0,.2,0,.3,0,0,0,.2,0,.2h.3,0Z"/>
      <path class="st0" d="M46.7,78.6h0v.2h0c0,0,.3,0,.4,0,0,0,0-.3.3-.3l.3-.3c0-.2,0-.3,0-.4v-.8h0c0,0,0-.2-.2-.3v-.2c0,0,0,0-.2-.2v-.4c0-.2,0-.3-.3-.3s0,0,0,.3h0v.7s0,.2,0,.3c0,0,0,.3,0,.2,0,0,.3-.2.4,0v.2q0,0-.2.2c-.2,0-.3.2-.4.3v.2s0,.2,0,.2c0,0,0,.2,0,.3v.2Z"/>
      <path class="st0" d="M46.1,79.3s0,0,0,.2c0,0,0,.2,0,.2v.2h.4s.2,0,.2,0c0,0,0,0,0-.2h0v-.3s-.2-.2-.2-.3v-.8h-.2v.3c0,.2-.2.2-.2.4,0,0,0,0,0,.2v.2Z"/>
      <path class="st0" d="M45.8,81.6c0,0,.3.2.5.2h.2s.2,0,.2,0h0s0,0,0-.2c0,0,0,0-.2,0,0,0-.2,0,0,0h0v-.7c0,0,0-.2-.2-.2s-.3,0-.4,0l-.2.2v.5s0,0-.2,0c-.2,0,0,.3,0,.4l.3-.3Z"/>
      <path class="st0" d="M44.1,82.1h.5s0-.2,0-.2v-.2c0-.2.2-.3.3-.4,0,0,.2,0,.2-.3h0c0-.3-.4,0-.4,0,0,0-.2,0-.2.2h0v.4s-.2,0-.2.2l-.2.2v.2-.2Z"/>
      <path class="st0" d="M40.6,88.3s0,0,.2,0h.3q0,0,0,.2s0,0,.2,0,.2,0,.2,0h0v-.4h-.4s0,0,0,0v-.4h-.2c0,0,0,0-.2,0v.4h-.2c0,0,0,.3,0,.4v.2-.3Z"/>
      <path class="st0" d="M40.9,86.8h.2v.2h0q0,0,0,0h0v-.4s0,0,0-.2,0,0,0-.2c0,0,0-.2-.3-.2h0c0,0,0,0-.2,0s-.2,0-.2.2,0,.3.2.2l.2.2Z"/>
      <path class="st0" d="M40,87.2s0,.2.2.3h.7-.2c0-.2,0-.4-.2-.5,0,0,0,0,0,0h0v.2h0c0,0,0,.2,0,.3l-.2-.3Z"/>
      <path class="st0" d="M41.7,84.7h.4v.2h0c0,0,0,.2-.2.3s-.3.2-.5.2c0,0-.2,0-.3.2h1c0,0,.2,0,.3-.2,0,0,0,0,0-.2h0c0-.2,0-.2.2-.3h0c0,0,.2,0,.3,0l.2-.2h0c0,0,.2-.3.2-.4h-1.6c0,0-.2,0-.3.2v.3h.2Z"/>
      <path class="st0" d="M40.2,83.1s-.2,0-.2.2c0,0-.3.2-.4.3h0c0,0,0,.3,0,.2h.4c0,0,0,0,.2-.2l.2-.2s0,0,.2,0h.2v-.4h-.2l-.2.2s-.2,0-.3,0h.2Z"/>
      <path class="st0" d="M38.8,83.8s.2,0,.3,0h0s0,0,.2,0h0q0,0,0,0s.2,0,.2-.2l.2-.2c0,0,.3,0,.4-.2,0,0,0,0,.2,0h0c0,0-.2,0-.2,0h-.3c0,0-.2,0-.3.2,0,0-.2.2-.3.2,0,0,0,0-.2,0,0,0,0,0-.2,0,0,0-.2,0-.2.2h0v.2c0,0,0,.2-.2.2q0,0,0,0h0Z"/>
      <path class="st0" d="M43.1,81.8h0l.3-.3h.2s0,0,.2,0c0,0,.3-.2.2-.3h-.2s0,0-.2,0h-.4c0,0-.3,0-.3,0s0,.3,0,.5v.2h.2v-.2Z"/>
      <path class="st0" d="M51.4,68.3c0,0,.2,0,.3-.2,0,0,.2,0,.3-.2h0c0,0,0-.2,0-.2h1s.2,0,.3-.2h-.2c0,0,0-.2-.2-.3h-.2c0,0-.2,0-.3.2-.2,0-.3,0-.5,0h-.2v.2h-.3c0,0-.3.2-.4.4,0,0-.2.3,0,.4,0,.2.3,0,.4,0h.2-.3Z"/>
      <path class="st0" d="M51.3,68.4h0c0,0,0,0,0,0h0Z"/>
      <path class="st0" d="M49.6,67.8v.3h.2l.2-.2h0v-.4s0-.2,0-.2h-.4c0,0-.2,0-.3.2,0,0-.2.2,0,.3h.5Z"/>
      <path class="st0" d="M50.6,67.9h0l.2-.2c0,0,.2,0,.4-.2h0c0-.3-.2-.3-.3-.2-.2,0-.5.2-.7.4,0,0-.2.2-.2.3s0,0,.2,0l.3-.2Z"/>
      <path class="st0" d="M48,72.5h0Z"/>
      <path class="st0" d="M49.1,70.6s0,0,0,0h-.3c-.2,0-.3,0-.4,0-.2,0,0,.2-.2.3,0,0,0,0,0,.2l-.2.2-.2.2v.5c0,0-.2.2-.2.3s0,.2-.2.3v.3l.2-.2h0l.2-.2.2-.2s0-.2.2-.2c0,.2,0,.3,0,.4v.2c0,0,.2-.2.2-.3s.2-.3.3-.4h0q0,0,0,0h.2s0,0,.2-.2l.2-.2h.4s.2,0,.2-.2c0,0,.2,0,0-.3,0-.2-.2,0-.3,0-.2,0-.3.2-.5.2h-.5c-.2,0,0-.2,0-.2l.4-.4Z"/>
      <path class="st0" d="M47.4,70.5h.2l.3-.3c0,0,.3,0,.4,0,0,0,0,0,.2,0h0s0,0,0-.2c0,0,0,0,.2,0v-.2h-.3s0,0,0-.2c0,0,.2-.2.3-.2,0,0,.2-.3.2-.5v-.4h-.4s-.2.2,0,.3v.2s0,.2,0,.2-.2.2-.3.3c0,0,0,0,0,.2,0,0,0,0-.2,0,0,0-.3,0-.3.2s.3,0,.4,0h.2-.2c0,0-.2,0-.2,0h-.2c-.2,0-.2.3-.2.4h0v.3Z"/>
      <path class="st0" d="M41.8,84h.9v-.2s0,0,0-.2,0-.2-.2-.2l-.2.2s0,0-.2,0c0,0-.2,0-.3,0h0c0,0,0,0,.2,0h0Z"/>
      <path class="st0" d="M40.6,83.5c0,.2,0,.2-.3.3,0,0-.2.2,0,.3,0,0,.2,0,.4,0h0s0,0,.2,0h0v-.3h-.2c0,0-.2.2-.2.3v-.5Z"/>
      <path class="st0" d="M21.9,100.5h.4c0,0,0,.2,0,.3h.3c0,0,0,0,0,.2h0s0,0,0,0h.2s.2,0,.3-.2v-.2h0v-.6h0c0,0,0-.2,0-.3h0q0,0,0,0h-.5c0,0,0,.2,0,.3,0,0,0,0-.2,0h-.5q0,0,0,0h0v.4h0c0,0,0,.3,0,.3Z"/>
      <path class="st0" d="M19.1,104.9s0,.2,0,.3h0v.2h0c0,0,0,0,.2,0h.3s0,0,.2-.2h.5v-.4s0,0,0,0h-.2s0,0-.2,0h0c0,.2,0,.4-.2.3,0,0,0,0,0-.2,0,0,0-.2,0-.2h0s0,0-.2,0v.4s0,0-.2.2c0,0-.2,0-.2.2h.2v-.3Z"/>
      <path class="st0" d="M21,103.8v.4h0q0,0,0,0v.2h.5s0-.2.2-.3c0,0,0,0,.2-.2v-.2h-.2c-.1,0,0,0,0,0h0v-.2c0,0-.2-.3-.4-.3,0,0,0,0-.2,0v.2s0,0,0,.2h-.3Z"/>
      <path class="st0" d="M23.3,102.5c0-.2-.2-.3-.3,0,0,0,0,.3-.2.4h-.5v.2h0c0,0,.3.2.4,0h.4c.2,0,0-.2,0-.4v-.4l.2.2Z"/>
      <path class="st0" d="M23.5,103.2h0Z"/>
      <path class="st0" d="M23.8,103h0c0,0,0-.2,0-.3,0,0,0,0,0,0h0v.5h0s.2,0,.2,0h-.1Z"/>
      <path class="st0" d="M26,100.9h-.3s0,0-.2,0c0,0-.2.2,0,.3h0s0,.2.2.2h.4v-.2h0v-.2h0Z"/>
      <path class="st0" d="M24.1,102.4h0v.2s0,.5.2.5c0,0,0,0,.2,0h0c0,.2.2.2.3.2h.2s0,0,.2,0c0,0,0,0,0,0h0v-.5h0v-.2h0v-.2h-.2v.5s0,.2-.2,0v-.3c0,0,0-.4,0-.5h-.5v.2h0l-.3.2Z"/>
      <path class="st0" d="M26.5,97.3h.8c0,0,.2,0,.2-.2v-1s0,0-.2,0c0,0,0,.2-.2.2,0,0,0,.2-.2.2h-.3s0,.2,0,.2h0c0,0,0,.2,0,.3,0,0,0,.2,0,.2,0,0-.2,0-.2.2h.2s.2,0,.3,0h-.1Z"/>
      <path class="st0" d="M25.6,100.2h0Z"/>
      <path class="st0" d="M24.7,99.8s0,0,.2.2c0,0,0,0,0,.2h.6s.2,0,.2-.2h0s0,0,.2,0h1.4c0,0,.2,0,.3,0h.7s0,0,.2,0c0,0,.3-.3.4-.4h.4v-.2s0,0,0,0h-.7c0,0,0-.3,0-.3h0c0,0-.2,0-.2,0h0c0,0,0-.2,0-.2h-1c0,0-.3,0-.3.2h.4s0,0,.2,0c0,0,.2.2,0,.2h-.3s-.2,0-.3,0c0,0-.2,0-.4.2h-.2s0,0-.2,0c0,0-.2,0-.3,0v.2c0,0,0,0,0,.2s0,.3-.2.3c0,0,0,0,0,0v.2h0c0,0-.7-.3-.7-.3Z"/>
      <path class="st0" d="M11,110.8s0,0,.2,0h0c0,0,.2,0,.3,0h.2s0-.2,0-.3h-.3s0,0,0,0h-.7v.2h0c0,0,0,0,.2,0h0Z"/>
      <path class="st0" d="M9.1,112v.3c0,.1,0,0,0,0h0v.3h.4c0,0,.2,0,.3-.2h0c0,0,0,0,.2-.2h.2c0,0,0,0,0-.2v-.2s.2,0,.2-.2c0,0,0,0-.2-.2,0,0,0,0-.2-.2v-.6c0-.2-.4-.2-.6,0h-.3v.4h0c0,.2,0,.3,0,.4v.3c0,0,0,.2-.2.3h.1Z"/>
      <path class="st0" d="M7.5,112.6h0s0,.2,0,.3c0,0,0,0,.2.2h.6c0,0,.2,0,.3,0h0v-.3s.2,0,.2-.2h0q0,0,0,0h-.9c0,0-.2,0-.3,0h0s0,0,.2.2c0,0,0,.3,0,.2h-.2v-.3Z"/>
      <path class="st0" d="M12.2,110.7v.2h0c0,0,0,0,0,0h1.6v-.2c0,0,0,0,0,0h-1.7s-.2,0,0,.2v.2s0,0,.2,0v-.5Z"/>
      <path class="st0" d="M14.2,108.2h.5s.2,0,.3,0h1.2c0,0,0,0,0-.2,0,0,0,0-.2,0h-.2s0,0-.2,0h-.3c0,0-.2,0-.2,0,0,0-.4,0-.5,0h0q0,0,0,0s-.2,0-.2,0h0q0,0,0,0h0Z"/>
      <path class="st0" d="M2.5,117.4v.2c0,0,.2,0,.3,0s.2,0,.3,0c0,0,0,0,.1-.2,0,0,.1,0,.1-.2h0c0,0,0-.2.1-.2,0,0,.1,0,.2,0,0,0,.2,0,.2,0h0q0,0,.1-.2v-.3h-.2c-.1,0-.2,0-.3-.2h-.5q0,0-.1,0h-.5s-.2.2,0,.2h.9s0,0-.1,0h-.4v.2s.2,0,.2,0c0,0,0,.2-.1,0,0,0-.1,0-.2,0h0c0,0-.1-.3-.2-.3l-.2.2v.3h.2v.4Z"/>
      <path class="st0" d="M2.9,124.8h0q0,.1.1.1h0s0-.2-.1-.3h-.5v.3h-.1.6Z"/>
      <path class="st0" d="M1,126h0s.2,0,.3-.2h0v.3h0c0,.1.1,0,.2,0,0-.1.2-.1.3-.2,0,0,.2-.2,0-.3,0-.1-.2,0-.3,0h-.2s-.1,0-.1-.1v-.2h-.5v1.2l.3-.4Z"/>
      <path class="st0" d="M0,126.3h.1s.1-.1.1-.2H.2v-.6H.2s-.2.1-.2.2h0v.2h0v.2h0v.2Z"/>
      <path class="st0" d="M3.8,133.4v.3h0v.2s.1.1.2.1h.3c0-.1,0-.3.1-.3h.2v-.2c0-.1,0-.2.1-.4,0-.2,0-.4.1-.6v-.2h0v-.9h-.3s-.2,0-.2.2v.2h0c0,.1,0,.2-.1.3h-.2s0,.1-.1.2c0,0,0,.1-.1.2h-.2c0-.1-.1-.1-.2-.1h0v.2s0,.2.1.2c0,0,.2.1.2.2,0,0,.1.1.1.2v.2Z"/>
      <path class="st0" d="M1.1,130.4s.1,0,.2.2c0,.1,0,.2.1.3h0c0,.1.1.1.2.2,0,0,.1,0,.2.1,0,0,.1.1.2.1h-.1s-.1-.1-.2-.2c0,0,0-.2-.1-.3h0v-.3s0-.1-.1-.2h-.2c-.1,0,0,.3,0,.3,0,0,.1.1.2.2l-.4-.4Z"/>
      <path class="st0" d="M2.1,132c0-.1,0-.3-.2-.3h-.4s0-.1-.1-.1h-.2v.2s0,.2.2.2h.1c0,.1.1.1.2.1v.2s0,.1.1.2c0,0,.1.1.2.2h.1q0,.1.1.1h.1v-.2s0-.1-.1-.2c0,0,0-.1-.1-.2v-.2Z"/>
      <path class="st0" d="M2.1,134v-.8s0-.1-.1-.1h-.1v-.2h-.3v-.2h-.2c0,.1,0,.2.2.3,0,0,.1,0,.2.1v.4s.2.1.2.2h0v.4h.3-.2Z"/>
      <path class="st0" d="M.7,135.8c.1,0,.3.2.4.3,0,0,0,.1.1.2v.2h0c0,.1.1.2.2.1h0v-.7h0s0-.1-.1-.1h-.4s0,.2.1.2c0,0,.2.2.3.2l-.6-.4Z"/>
      <path class="st0" d="M.8,134.7h0s.2.2.2.3h0q0,.1.2.1h0v-.2h0s-.2-.2-.2-.3h0v-.3c0-.1-.1-.2-.2-.2h-.1s-.1,0-.1.1h0v.3h0c0,.1.2.2.2.2Z"/>
      <path class="st0" d="M6.2,138.8s0-.2.2-.2h0v-.2h-.4c-.1,0,0,0,0,.1h0v.4h0v.2h0l.2-.3Z"/>
      <path class="st0" d="M4.3,139.1h0v-.3h0q0-.1-.1-.1c-.1,0,0,0,0,0h-.2c0,.1-.1.1-.2.1h-.3v.6h0q0,.1-.1.1h-.3q0,.1.1.1h0c0,.1.1,0,.2,0s0,.1.1.2v.4h.3v-.2c0-.1.1-.2.3-.3h.3v-.6Z"/>
      <path class="st0" d="M2.5,139h.2v-.4h0v-.2h-.1v.2h0v.2h0v.2h.2-.3Z"/>
      <path class="st0" d="M1.8,138.2h-.1c0,.1-.1.1-.2.1v.2h.2v-.4s-.1-.1-.2,0h.3Z"/>
      <path class="st0" d="M.9,139.1h.4v-.2c0,0,0,0-.1,0h-.2s-.1,0,0,0h0v.2Z"/>
      <path class="st0" d="M1,142.8v-.2h0v-.2h-.1v.6h0v.2h0v.3h.2v-.5h.1s0-.1-.1-.2h0v-.2.2Z"/>
      <path class="st0" d="M1.1,142h.2s.1-.1.2-.2h0v-.3h0v-.5h0c-.1,0-.2.1-.3.2,0,0-.1,0-.2.1,0,0-.1,0-.2.1,0,0,0,.1-.1.2v.2h0v.2s0,.1.1.1h.3Z"/>
      <path class="st0" d="M2.1,139.7h0v.2h0c0,.2,0,.4.1.5h0q0,.1-.1.1v.6h0v.2h0c0,.1,0,.2.1.2h.1v.2h.6v-.2h.1v-.3h0v-.4h0v-.5h-.4s-.1-.1-.2-.2l-.3-.4Z"/>
      <path class="st0" d="M4.6,148.4h.2c.1,0,0,0,0,0h.3v-.3h-.7l.2.3Z"/>
      <path class="st0" d="M5.4,147h.8s0-.1.2-.2v-.2h0c0-.2,0-.1,0-.1h-1.6v.4h0v.2h0q0,.1.1.2h.1v-.2h.4Z"/>
      <path class="st0" d="M1.6,147.5h.1q0,.1.1.2h.1s.1,0,.2.1h.2c0-.1.1-.2.2-.3,0,0,0-.1.1-.2h.1c.1-.3.2-.4.2-.6h0c0-.1-.2-.1-.1-.2h0v-.2h0c0-.1-.1-.2-.2-.1h-.6s-.1,0-.2.1h0v1h0c0,.1-.2.2-.2.2Z"/>
      <path class="st0" d="M.7,148.1h0v-.2h-.4v.5H.3v.6h.3c0-.1.1-.2.1-.2,0,0,0-.1.1-.2h0v-.4h0Z"/>
      <path class="st0" d="M4,149.6h-.1.1Z"/>
      <path class="st0" d="M3.9,149.3h0v.4h.2v-.3h-.2Z"/>
      <path class="st0" d="M6.3,148.6h.4c0-.2-.2-.2-.2-.1h-.7c0,.2.2.1.3.2h0c0,.2,0,0,.2,0h0Z"/>
      <path class="st0" d="M95.7,7.2h.2v.2h0v.3c0,.2,0,.2.2.2h.6s.2-.1.2-.2c0,0,0-.2,0-.3h-.5c0,0,0,0,0-.1s0-.2.2-.2c0,0,.2,0,.2-.2h-.4s0-.1-.2-.1h-.2s-.3,0-.2,0v.2h.2l-.2.2Z"/>
      <path class="st0" d="M90.7,15.9h0v.5c0,.1.2,0,.3,0s.2.1.3.1h1.3c0-.1,0-.1.2-.1h.2v-.2c0-.1-.2-.1-.3-.2,0-.1,0-.3,0-.4h-.6q0,.1,0,0s0-.2-.2-.2h-.3c0-.1,0-.1,0-.1h-.2c0,0,0,0,0,.1,0,0,0,.2,0,.3,0,0-.2-.1-.3-.1l-.2.3Z"/>
      <path class="st0" d="M94.2,13.2v.2h0v.4s0-.2,0-.3c0-.1,0-.2,0-.3h-.3v.5h0s0-.1,0-.1c0,0,0,0,0,.1,0,0,0,.1,0,.2,0,0,0,.1,0,.2h0s0,.2-.2.3h0v.2h0v.4c0,.1,0,.2,0,.3h.3v-.4s0-.3.2-.3,0,.3,0,.4c0,.2,0,.3,0,.5,0,.1,0,.3,0,.4,0,.2.3.2.4.3v.2h.2s0,0,.2-.1h0c.2-.1,0-.3,0-.5v-.2h.3v-.3h0q0-.1,0-.1h.2c0,0,.2-.1.2-.3v-.2h0v-.4h0q0-.1,0-.1h0c0-.1,0-.3-.2-.3h-.3c-.1,0,0,0,0,0h-.2s0-.1,0,0v-.7Z"/>
      <path class="st0" d="M83.5,22.8v.5h.4s0-.1.2-.1h.2v-1.1h0s0,.1-.2.1h-.2v.5l-.2.2h-.2Z"/>
      <path class="st0" d="M80.5,21.8s0,0,.2-.2c0-.1,0-.3,0-.4,0,0,0-.1,0-.2,0,0,0-.1-.2,0v.2h0c0,.2,0,.4-.2.5,0,0,0,.1-.2.2l-.2.2s-.2.2-.2.3v.2h0v.2h0v.2h0c0,.1,0,.1.2.1h1.1v-.4h0v-.3s0-.2,0-.2l-.4-.4Z"/>
      <path class="st0" d="M84.2,20.6v.8h0c0,.2.2.2.4.1,0,0,.3-.1.3-.3s0-.3,0-.4c0,0,0,0-.2-.1v-.2s0-.1,0-.2h-.4v.2h0Z"/>
      <path class="st0" d="M82.6,20h0q0,.1,0,.1h0c0-.2,0-.1,0-.1h0c0-.2,0-.6.2-.5.2,0,.2.3,0,.5,0,0-.2.4,0,.4l.2-.2h.4c0,0,0,0,.2-.2h0c0-.2,0-.3,0-.4v-1.4h0q0-.1,0-.1s0-.1-.2-.1h-.4v.2h0c0,.2,0,.3,0,.3s-.2,0-.2.2,0,.4,0,.6v.3h0v.2h0c0,.1,0,.2,0,.2Z"/>
      <path class="st0" d="M77.8,20.3h-.2c0,0-.2,0-.2.2h0v.2h0v.2s0,.1,0,.2h0s0-.1,0-.1h-.3c-.3-.1-.4,0-.5.3v.3h.5v.2s0,.2,0,.2-.2-.2-.3-.2c0,0-.3-.1-.3,0v.4c0,.1.2.2.3.2h.3c0,0,.2.1.3.3,0,0,0,.2,0,.2,0,0,0,.1,0,.2,0,0,.2.1.3.2h1v-.5s0-.2.2-.2h0v-.8h.3s.2-.1.2-.2,0-.2,0-.4c0,0,0-.5,0-.4h0v.2h0c0-.2,0-.3,0-.4v-.3h-.2c0,0-.2,0-.3.1v.2c0,0,0,.1,0,.2v.3-.2q0,0,0-.1h0c0,0,0-.1,0-.2v-.2c0,0,0,.1-.2,0h0c0-.1-.4-.1-.4-.1Z"/>
      <path class="st0" d="M78.8,19.9h.4s0,0,0-.1,0-.2,0-.3h0c0-.2,0-.3-.3-.3s-.2.2-.3.3v.3h.4,0Z"/>
      <path class="st0" d="M79.2,18.6s0,0,.2.1c0,0,0,0,.2.1v.2h0s0,.1.2.1v.6s0,.2,0,.2h0c.2.1.3.1.5.1h.4v-.2s0,0,.2-.1h.2v-.2s0-.1-.2-.1c0,0-.2,0-.2-.2v-.5s0-.1-.2-.1h0c0,.1,0,.6,0,.5h-.2v-.4s0-.2,0-.2h0c0,.1,0,.4,0,.4v-.2q0,0,0-.1h0c0-.1,0-.1-.2-.1v-.6s-.4-.2-.4,0v.3c0,.1,0,0-.2.1s0,.3,0,.4h0Z"/>
      <path class="st0" d="M77,19.8h.2s.2.1.2,0h0s0-.1,0-.2h.2c0,0,0-.3,0-.4v-.3s0,0,0-.2v-.5h0q0-.1,0-.1h0v.4h.2c0,0,0,.1,0,.2,0,0,0,.1,0,.2h0v.2h0q0-.1,0-.1h0q0,.1,0,0h0v-.2.3q0,.2.2.2l-.4.5Z"/>
      <path class="st0" d="M66.3,34.9h.4q0,0,0,.2h.6v-.6s0,0-.2,0h0c0,0,0-.2,0-.2h-.6s0,0-.2-.2h-.2v.4s0,0,0,.2l.2.3Z"/>
      <path class="st0" d="M70,36.4s0,0-.2-.2v-.2h0c0,0-.3.1-.3.2,0,.2,0,.4,0,.6,0,0,0,0,0,.2,0,0,0,.2,0,.2v.2h0v.2h0s0,0,.2,0h1.1v-.7s0,0-.2-.2l-.4-.2Z"/>
      <path class="st0" d="M70.3,36.4h.2s.2,0,.2,0h0v-.2h0q0,0,0-.2s0,0,0-.2,0,0,0-.2c0,0,0-.2-.2-.3,0,0,0,0-.3,0h-.3c0,.2,0,.3.2.5,0,0,0,.2,0,.2h0s0,0-.2,0c0,0,0,0,0-.2v-.3h0c0,0,0,0,0,0,0,0,0,.2,0,.3v.2h0c0,0,0,.2,0,.3h0v.4h.5Z"/>
      <path class="st0" d="M71.5,33.4v-.3h0v-.2c-.2,0-.3,0-.5.2h-.2v.3c0,.2-.2.4-.2.6h0q0,0,0,0h0v-.2h0v-.3s.2,0,.3-.2h.4Z"/>
      <path class="st0" d="M74.4,25c0,.2.2.1.3,0h1v-.3h0v-.7h0s0,0-.2.2v.3s0,.2,0,.2c0-.1,0-.4-.3-.3h-.2s0-.1-.2,0c0,0,0,.1,0,.2v.6-.2Z"/>
      <path class="st0" d="M75.1,23.7h.3v-.4h-.2s-.2,0-.2.1v.4h0Z"/>
      <path class="st0" d="M75.8,21.3h0v-.2s0-.1,0-.2h.3c.2,0,.3,0,.4-.3v-.5l-.2.2s0,.2,0,.2h-.3c0-.1,0-.2,0-.3h-.2v.4h0v.4h0v.2h0Z"/>
      <path class="st0" d="M68.7,33.4h.2c0,0,0-.2.3-.2h.6l-.2.2v.5h.5c0,0,.2,0,.2-.2s-.2-.2-.3-.3v-.4h0c0,0,.2-.2.3-.3,0,0,.2-.2.2-.3h0v-.2c0,0,0-.2.2-.3h.4v.2h0c0,0,0,.2.2,0,0,0,.2,0,.3,0h.9c0,0-.2-.2-.3-.3,0,0-.3,0-.2-.2,0,0,.2,0,.3-.2v-.3h0v-.2h0v-.6c0,0,.2,0,.2,0,0,0,0-.2.2-.2h.2v-.2h0v-.7h0v.2h0q0,0,0,0c0,0-.2,0-.3,0h0v-.4h.5v-.2c0,0,0-.2,0-.3v-.2c0,0-.2,0-.2-.2h0v.2h0c0,.2,0,.3-.2.4q0,0,0-.2v-.4s0-.2.2-.3v-.4s0-.3-.2-.2h0c0,0,0,0-.2.2h0v-.2s-.2-.2-.3,0h0v.5c0,0,0,.4,0,.4s-.2-.2-.2-.3v-.4h0q0,0,0,0h0s0,0-.2,0v.2h0c0,0,0,.2,0,.3,0,0,0,0,0,.2,0,0,0,0,.2.2h0v.2h0c0,0-.2,0-.2,0,0,0-.2,0-.2,0v-.2h0s-.2,0-.2-.2-.2-.3-.3-.4h-.2v.3s0,.2,0,.2v.6h.6v.2s0,0,0,.2h.2v.2q0,0-.2,0h-.2s-.2-.2-.2-.3h-.2c0,0-.2,0-.3,0h-.6s-.2,0-.2.2v.2h0c0,0,0,0-.2,0h-.3s0,0,0,.2v.4c0,0,0,0,0,0h.7v.2h.2s.2,0,.2.2h-1c0,0-.2,0-.2.3s.2.2.3.2,0,0,0,0h0c0,0,0,0,.2,0,0,0,.2,0,.3,0,0,0,.3,0,.3,0h0v.4s0,0,0,0h-.6c0,0-.2,0-.3.2v.2h0c0,0,.2,0,.4,0h.7c0,0,0,.2,0,.3h0c0,0-.2,0-.2,0h-.2v.3h-.3c0,0,0,.2,0,.3v.5h.3l-.8.2Z"/>
      <path class="st0" d="M73.7,27s0,0,.2.2c0,0,0,0,0,0h.9c0,0,.3,0,.4,0h.2s0,0,.2-.2c0,0,0,0,.2,0h.5s0-.2.2-.2v-.3h0c0,0-.2,0-.2-.2v-.3c0-.2.2-.3.3-.3h0c0-.1.2-.2.3-.3h0v-.2h0c0-.1,0-.1.2-.3h0v-.2h0v-.4h0c0-.1,0-.2,0-.3,0,0-.2-.1-.3-.1h-.3s-.2-.1-.2-.2c0,0-.2-.3-.2-.2,0,0,0,.2,0,.2h-.2v.3h0v.2s.2.2.2.3h0v.7h0v.2h0v.2h0s0-.1-.2-.1h-1.5v.4s0,.2,0,.3c0,0,0,0,.2,0h.2c0,0,0,.3-.2.4h0q0,0-.2-.2c0,0-.2-.2-.3,0,0,0,0,0-.2,0h0v.3h0c0,.2,0,0,0,0h.4-.3Z"/>
    </g>
  </g>
  <g id="Layer_1" focusable="false">
    <path class="st1" d="M104.1,3.5l-3.9,8.2-2.2,16.5-19,11.1-13.8,13.7-2.1,6.4-2.9,5.8-6.3,21.4-11.8,11.5.4,7.7,1,8.6-7.3,4.2-8.3,5.3-6.6,5.4-5.6,10.1-2.9,10.6-1.5,9.9"/>
    <circle class="st3" cx="104.1" cy="3.5" r="3.5"/>
    <circle class="st3" cx="100.2" cy="11.7" r="2.5"/>
    <circle class="st3" cx="98" cy="28.2" r="2.5"/>
    <circle class="st3" cx="79" cy="39.3" r="2.5"/>
    <circle class="st3" cx="65.2" cy="53" r="2.5"/>
    <circle class="st3" cx="63.2" cy="59.4" r="2.5"/>
    <circle class="st3" cx="60.3" cy="65.2" r="2.5"/>
    <circle class="st3" cx="54" cy="86.6" r="2.5"/>
    <circle class="st3" cx="42.3" cy="98.1" r="2.5"/>
    <circle class="st3" cx="42.7" cy="105.8" r="2.5"/>
    <circle class="st3" cx="43.7" cy="114.4" r="2.5"/>
    <circle class="st3" cx="36.4" cy="118.7" r="2.5"/>
    <circle class="st3" cx="28.1" cy="124" r="2.5"/>
    <circle class="st3" cx="21.5" cy="129.4" r="2.5"/>
    <circle class="st3" cx="15.9" cy="139.4" r="2.5"/>
    <circle class="st3" cx="13" cy="150" r="2.5"/>
    <circle class="st3" cx="11.5" cy="159.9" r="3.5"/>
  </g>
</svg>